<svg id="Layer_1" data-name="Layer 1" xmlns="http://www.w3.org/2000/svg" viewBox="0 0 56 80"><defs><style>.cls-1{fill:#280959;}.cls-2{fill:#61419e;}.cls-3{fill:#fec859;}</style></defs><path class="cls-1" d="M0,72V0H24V8h8v8h8v8h8v8h8V48H48v8H40v8H32v8H24v8H0Z"/><path class="cls-2" d="M16,8h8v8H16Z"/><path class="cls-2" d="M40,32h8v8H40Z"/><path class="cls-2" d="M32,24h8v8H32Z"/><path class="cls-2" d="M24,16h8v8H24Z"/><polygon class="cls-3" points="24.22 31.85 24.22 23.85 16.22 23.85 16.22 15.85 8.22 15.85 8.22 23.85 8.22 31.85 8.22 39.85 8.22 47.85 8.22 55.85 8.22 63.85 8.22 72.2 16.22 72.2 16.22 63.85 16.22 55.85 24.22 55.85 24.22 47.85 32.22 47.85 32.22 39.85 32.22 31.85 24.22 31.85"/></svg>