<svg id="Layer_1" data-name="Layer 1" xmlns="http://www.w3.org/2000/svg" viewBox="0 0 80 56"><defs><style>.cls-1{fill:#280959;}.cls-2{fill:#61419e;}.cls-3{fill:#fec859;}</style></defs><path class="cls-1" d="M72,56H0V32H8V24h8V16h8V8h8V0H48V8h8v8h8v8h8v8h8V56Z"/><path class="cls-2" d="M8,40V32h8v8Z"/><path class="cls-2" d="M32,16V8h8v8Z"/><path class="cls-2" d="M24,24V16h8v8Z"/><path class="cls-2" d="M16,32V24h8v8Z"/><polygon class="cls-3" points="31.85 31.78 23.85 31.78 23.85 39.78 15.85 39.78 15.85 47.78 23.85 47.78 31.85 47.78 39.85 47.78 47.85 47.78 55.85 47.78 63.85 47.78 72.2 47.78 72.2 39.78 63.85 39.78 55.85 39.78 55.85 31.78 47.85 31.78 47.85 23.78 39.85 23.78 31.85 23.78 31.85 31.78"/></svg>