<svg id="Layer_1" data-name="Layer 1" xmlns="http://www.w3.org/2000/svg" viewBox="0 0 80 56"><defs><style>.cls-1{fill:#280959;}.cls-2{fill:#61419e;}.cls-3{fill:#fec859;}</style></defs><path class="cls-1" d="M8,0H80V24H72v8H64v8H56v8H48v8H32V48H24V40H16V32H8V24H0V0Z"/><path class="cls-2" d="M72,16v8H64V16Z"/><path class="cls-2" d="M48,40v8H40V40Z"/><path class="cls-2" d="M56,32v8H48V32Z"/><path class="cls-2" d="M64,24v8H56V24Z"/><polygon class="cls-3" points="48.15 24.22 56.15 24.22 56.15 16.22 64.15 16.22 64.15 8.22 56.15 8.22 48.15 8.22 40.15 8.22 32.15 8.22 24.15 8.22 16.15 8.22 7.8 8.22 7.8 16.22 16.15 16.22 24.15 16.22 24.15 24.22 32.15 24.22 32.15 32.22 40.15 32.22 48.15 32.22 48.15 24.22"/></svg>