<svg id="Layer_1" data-name="Layer 1" xmlns="http://www.w3.org/2000/svg" viewBox="0 0 56 80"><defs><style>.cls-1{fill:#280959;}.cls-2{fill:#61419e;}.cls-3{fill:#fec859;}</style></defs><path class="cls-1" d="M56,8V80H32V72H24V64H16V56H8V48H0V32H8V24h8V16h8V8h8V0H56Z"/><path class="cls-2" d="M40,72H32V64h8Z"/><path class="cls-2" d="M16,48H8V40h8Z"/><path class="cls-2" d="M24,56H16V48h8Z"/><path class="cls-2" d="M32,64H24V56h8Z"/><polygon class="cls-3" points="31.78 48.15 31.78 56.15 39.78 56.15 39.78 64.15 47.78 64.15 47.78 56.15 47.78 48.15 47.78 40.15 47.78 32.15 47.78 24.15 47.78 16.15 47.78 7.8 39.78 7.8 39.78 16.15 39.78 24.15 31.78 24.15 31.78 32.15 23.78 32.15 23.78 40.15 23.78 48.15 31.78 48.15"/></svg>