<?xml version="1.0" encoding="utf-8"?>
<!-- Generator: Adobe Illustrator 26.0.3, SVG Export Plug-In . SVG Version: 6.00 Build 0)  -->
<svg version="1.1" id="Layer_1" xmlns="http://www.w3.org/2000/svg" xmlns:xlink="http://www.w3.org/1999/xlink" x="0px" y="0px"
	 viewBox="0 0 1024 278" style="enable-background:new 0 0 1024 278;" xml:space="preserve">
<g>
	<path d="M465.8,159.2c0-0.3,0-0.5,0-0.8c0,0-0.1-0.1-0.1-0.1c0-0.1,0.1-0.2,0.1-0.3c0,0.1,0,0.3,0,0.4c1.1,0.9,2.1,1.8,3.3,2.7
		c3.1,2.3,6.7,3.3,10.5,3.5c8.3,0.4,15.4-3.2,18.8-10.7c3.8-8.6,3.8-17.3-0.3-25.7c-3-6.1-8-9.7-14.7-10.3
		c-6.7-0.6-13.2,0.1-17.5,6.9c0-2.2,0-4.1,0-5.9c-2.6,0-4.9,0-7.4,0c0,0.5,0,0.9,0,1.3c0,19.9,0,39.8,0,59.7c0,0.4,0.1,0.8,0.1,1.2
		c2.4,0,4.8,0,7.2,0c0-0.5,0.1-0.9,0.1-1.4C465.8,172.6,465.8,165.9,465.8,159.2z M467.5,131.5c2.3-5,6.4-7.5,11.9-7.4
		c5.4,0.1,9.3,2.6,11.7,7.4c1.5,3,2,6.1,2,8.9c-0.1,4.3-0.6,8.1-2.5,11.5c-2.5,4.4-6.4,6.3-11.4,6.1c-7.8-0.2-11.9-5.5-13.1-11.4
		C465.1,141.5,465.2,136.4,467.5,131.5z"/>
	<path d="M465.7,158.2c0,0,0.1,0.1,0.1,0.1c0-0.1,0-0.3,0-0.4C465.7,158,465.7,158.1,465.7,158.2z"/>
	<path d="M952.8,117.5c-8.3-0.2-14.8,3-19,10.2c-3.6,6-4,12.5-2.7,19.3c0.9,4.9,2.8,9.3,6.5,12.6c6.9,6.1,19.5,6.7,26.9,1.3
		c3.9-2.9,5.8-6.9,6.7-11.5c-2.5,0-4.9,0-7.3,0c-0.1,0.5-0.2,0.9-0.4,1.3c-1.2,3.9-3.9,6.3-7.9,7.1c-1.8,0.3-3.7,0.4-5.6,0.2
		c-3.9-0.4-7.1-2.1-9.4-5.4c-1.9-2.8-2.6-5.8-2.4-9.2c11.3,0,22.4,0,33.6,0c0-1.4,0-2.7,0-4.1c-0.3-1.8-0.5-3.7-1-5.5
		C969,125.3,962.8,117.8,952.8,117.5z M938.4,136.6c-0.4-6.2,5.5-12.3,11.9-12.5c7.8-0.3,13.3,5.6,13.6,12.5
		C955.5,136.6,947,136.6,938.4,136.6z"/>
	<path d="M228.4,99.9c-0.3-0.8-0.7-1-1.5-1c-5.4,0-10.7,0-16.1,0c-0.9,0-1.4,0.2-1.7,1.2c-4.6,12.1-9.3,24.2-13.9,36.4
		c-1,2.5-1.9,5-2.9,7.5c-0.2-0.2-0.2-0.4-0.2-0.6c0.5-7.8-2.6-13.4-9.6-16.8c-3-1.4-6.3-2.3-9.4-3.4c-2-0.7-4.1-1.4-6-2.4
		c-3.7-2.2-3.5-6.3,0.3-8.3c2.6-1.4,5.2-1.2,7.9-0.6c2.8,0.6,5.2,2,7.5,3.8c2.3-4.4,4.5-8.7,6.7-13.1c-6.9-3.6-14.1-5.5-21.7-5.2
		c-5.5,0.2-10.4,2-14.5,5.8c-0.9,0.8-1.7,1.8-2.7,2.8c0-2.4,0-4.6,0-6.8c-19.3,0-38.5,0-57.7,0c0,0.6,0,1.1,0,1.7
		c0,11.2,0,22.3,0,33.5c0,2-0.1,4.1-0.4,6.1c-0.8,6.7-4.4,10.1-10.7,10.3c-5.9,0.1-9.6-2.7-10.9-8.5c-0.4-1.7-0.6-3.5-0.7-5.2
		c-0.1-12.1-0.1-24.2-0.1-36.4c0-0.5,0-0.9,0-1.4c-5.7,0-11.2,0-16.9,0c0,0.5,0,0.9,0,1.4c0,11.8,0,23.5,0,35.3
		c0,3.2,0.2,6.5,0.6,9.7c1.1,8.4,5.6,14.4,13.5,17.4c9.2,3.5,18.5,3.5,27.8,0.2c7.2-2.6,11.8-7.8,13.5-15.3c0.6-3,0.9-6.2,1-9.3
		c0.1-7.9,0-15.8,0-23.6c0-0.5,0-0.9,0-1.4c3.5,0,6.7,0,10.2,0c0,16.8,0,33.5,0,50.2c5.6,0,11.1,0,16.7,0c0-16.8,0-33.5,0-50.3
		c3.6,0,7.2,0,10.4,0c0,2.9-0.3,5.6-0.1,8.4c0.3,5.6,2.9,9.9,8.1,12.2c3.4,1.5,7,2.4,10.5,3.7c2.3,0.8,4.6,1.6,6.6,3
		c3.2,2.1,3,6.3,0,8.7c-1.6,1.2-3.4,1.7-5.4,1.8c-4.2,0.1-7.8-1.3-11.2-3.5c-1.4-0.9-2.8-2-4.2-3.1c-2.4,4.5-4.7,8.9-7.2,13.5
		c0.4,0.3,0.7,0.5,1,0.8c3.1,2,6.4,3.7,9.9,4.8c8.4,2.6,16.8,2.9,24.9-0.9c2.4-1.1,4.5-2.8,6.6-4.1c-0.6,1.5-1.2,3.2-1.9,5
		c0.3,0.1,0.4,0.1,0.6,0.1c5.5,0,11,0,16.6,0c0.4,0,0.9-0.5,1-0.9c1.3-3.1,2.5-6.2,3.7-9.3c0.3-0.7,0.6-1,1.4-1c7.1,0,14.2,0,21.2,0
		c0.7,0,1,0.3,1.3,0.9c1.1,3,2.3,6.1,3.4,9.1c0.3,0.9,0.7,1.2,1.7,1.2c5.1-0.1,10.2,0,15.4,0c0.4,0,0.8,0,1.3-0.1
		c-0.1-0.4-0.2-0.7-0.3-1C244.1,141.7,236.2,120.8,228.4,99.9z M211.8,139.4c2.3-6.8,4.6-13.5,6.8-20.3c0.1,0,0.2,0,0.2,0
		c2.2,6.7,4.5,13.4,6.7,20.3C220.9,139.4,216.4,139.4,211.8,139.4z"/>
	<path d="M712.9,130.7c-5.1-1.5-10.4-2.6-15.5-3.9c-3.3-0.8-6.7-1.7-9.4-4c-1.3-1.1-2-2.4-2.2-4.1c-0.6-5,1.8-9,6.6-10.6
		c4.6-1.5,9.2-1.6,13.8-0.1c4.4,1.4,7.2,4.4,8.3,9c0.2,0.7,0.2,1.3,0.4,2c0.1,0.3,0.4,0.7,0.6,0.7c2.4,0,4.8,0,7.2,0
		c0.2-7-3.1-13.8-9.5-16.8c-9-4.2-18.1-4.1-27,0.4c-5,2.5-8,6.7-8.6,12.3c-0.7,6.3,0.9,11.5,7.4,15c1.4,0.7,2.9,1.5,4.4,1.9
		c4.8,1.3,9.7,2.5,14.5,3.6c3.3,0.8,6.6,1.6,9.5,3.6c1.9,1.3,3.3,2.9,3.7,5.2c0.8,5-1,9.3-6,11.4c-6.6,2.6-13.3,2.6-19.8-0.5
		c-4.3-2-6.9-5.6-7.6-10.4c-0.1-0.8-0.1-1.6-0.2-2.3c-2.7,0-5.2,0-7.7,0c-0.4,7,2.8,14.4,10.3,18.3c6,3.2,12.4,3.9,19,3.3
		c4.8-0.4,9.3-1.7,13.4-4.5c7.2-5,9.6-15,5.2-22.1C720.9,134.3,717.2,132,712.9,130.7z"/>
	<path d="M439.1,118.1c-1.3-0.3-2.7-0.5-4-0.5c-5.3-0.3-9.9,1.2-13.5,5.2c-0.6,0.7-1.2,1.4-1.8,2.2c-1.4-3.1-2.5-4.5-4.5-5.5
		c-6.2-3.4-15-2.2-20,2.8c-0.8,0.9-1.6,1.8-2.6,2.9c0-2.3,0-4.4,0-6.5c-2.3,0-4.6,0-6.9,0c0,15,0,29.9,0,44.9c2.5,0,4.8,0,7.3,0
		c0-0.6,0-1,0-1.5c0-8.5,0-17,0-25.6c0-7.3,5.7-12.7,13.1-12.3c3.6,0.2,6.1,2.2,6.9,5.8c0.3,1.4,0.5,2.9,0.5,4.3c0,9.3,0,18.6,0,28
		c0,0.5,0,0.9,0,1.4c2.5,0,4.9,0,7.4,0c0-0.6,0-1.1,0-1.6c0-9.2,0-18.3,0.1-27.5c0-2.4,0.8-4.6,2.3-6.4c3-3.7,7.1-4.4,11.5-3.8
		c3.5,0.5,5.5,2.4,6.1,5.9c0.2,1.3,0.4,2.6,0.4,3.9c0,9.3,0,18.6,0,28c0,0.5,0,0.9,0,1.4c2.6,0,4.9,0,7.3,0c0-0.2,0.1-0.4,0.1-0.5
		c0-11.1,0.1-22.2,0-33.4C448.7,123.3,445.3,119.4,439.1,118.1z"/>
	<path d="M321.5,141.6c-0.6,4.6-2.2,8.8-5.7,12c-3.8,3.5-8.3,4.7-13.4,4.4c-8-0.4-13.8-4.2-17-11.5c-3.6-8.2-3.8-16.7-1.2-25.2
		c2.4-7.7,8.5-14.1,18.3-14.4c5.2-0.2,9.9,1,13.9,4.6c2.3,2.1,3.5,4.7,4.4,7.6c0.1,0.4,0.5,1,0.7,1c2.5,0.1,5.1,0,7.8,0
		c-1.1-7.1-4.4-12.6-10.4-16.3c-5.6-3.4-11.8-4.4-18.2-3.8c-10.6,0.9-18.4,6.2-22.9,15.8c-4.4,9.5-4.5,19.3-1.8,29.3
		c2,7.1,5.9,12.7,12.4,16.4c4.9,2.8,10.3,3.5,15.8,3.4c12.1-0.2,20.7-6.4,24.2-17.6c0.7-2.3,1.1-4.7,1.6-7.1c-3,0-5.7,0-8.5,0
		C321.6,140.8,321.5,141.2,321.5,141.6z"/>
	<path d="M605.6,119.1c-8-3.4-20.1-1.9-26.1,9c-3.4,6.2-3.8,12.8-2.3,19.7c0.9,4.4,2.7,8.3,6,11.5c7,6.9,20.8,6.7,27.4,1.6
		c3.8-2.9,5.7-6.8,6.7-11.6c-2,0-4,0.1-5.9,0c-1.1-0.1-1.6,0.2-1.9,1.4c-0.9,3.4-3.1,5.7-6.5,6.8c-3.6,1.1-7.2,1-10.7-0.4
		c-5.5-2.2-8.4-7.9-7.8-13.7c11.1,0,22.3,0,33.4,0c0-0.4,0.1-0.6,0.1-0.9c0-3.5-0.4-6.9-1.4-10.3
		C614.6,126.3,611.4,121.5,605.6,119.1z M584.3,136.6c0.2-5.9,4.6-13.1,13.8-12.5c7.3,0.5,11.8,6.9,11.7,12.5
		C601.4,136.6,592.9,136.6,584.3,136.6z"/>
	<path d="M834.6,143.3c-0.4-3.2-0.6-6.2-1.2-9.1c-1.8-8.8-8.3-16.3-18.2-16.7c-8.3-0.4-15.9,3.7-19.7,11.2
		c-3.9,7.8-3.6,15.8-0.5,23.8c2.3,5.9,6.7,9.7,12.9,11.3c3,0.8,6.1,0.8,9.2,0.6c7.9-0.6,13.8-5.3,15.9-12.9c0.2-0.7,0.4-1.4,0.5-2.2
		c-2.5,0-4.9,0-7.2,0c0,0.1-0.1,0.1-0.1,0.1c-0.2,0.5-0.3,1-0.5,1.5c-1.1,3.3-3.4,5.6-6.8,6.5c-2.7,0.8-5.4,0.8-8.1,0.2
		c-6.3-1.3-10.7-6.8-10.2-14.4C811.9,143.3,823,143.3,834.6,143.3z M813.6,124.1c7.4,0.1,12.7,6.3,12.6,12.6c-8.5,0-17,0-25.5,0
		C800.7,131.5,804.8,124,813.6,124.1z"/>
	<path d="M376.1,128.9c-0.2-0.4-0.4-0.9-0.7-1.3c-3.7-6.3-10.3-10.1-18.6-10.1c-0.3,0-0.6,0-1,0c-0.6,0-1.2,0.1-1.8,0.1
		c-7.7,0.8-13.4,4.5-16.7,11.6c-3.2,7-3.3,14.3-0.9,21.5c1.9,5.7,5.6,9.8,11.2,12.1c3.7,1.6,7.7,1.9,11.6,1.6
		c7.3-0.6,12.9-4,16.4-10.5c2.9-5.3,3.3-11.1,2.7-17C378,134,377.3,131.3,376.1,128.9z M370.7,141.2c0,3.6-0.6,7-2.4,10.1
		c-2.6,4.5-6.6,6.8-11.8,6.7c-5.4-0.1-9.5-2.7-11.8-7.6c-2.8-6.1-2.8-12.3-0.1-18.5c2.3-5.3,7.2-8.1,13-7.8
		c5.2,0.2,9.9,3.8,11.7,9.3c0.8,2.5,1.1,5.1,1.6,7.7C370.9,141.1,370.8,141.1,370.7,141.2z"/>
	<path d="M375.4,127.6c-3.7-6.3-10.3-10.1-18.6-10.1c-0.3,0-0.6,0-1,0c0.3,0,0.6,0,1,0C365.1,117.5,371.8,121.3,375.4,127.6z"/>
	<path d="M537.8,120.3c0,8,0,15.9,0,23.9c0,2.4-0.4,4.7-1.4,6.9c-2.7,6-8.8,7.8-14.4,6.7c-3.5-0.6-5.5-2.9-6.3-6.3
		c-0.2-1-0.3-2-0.3-3c0-9.5,0-19,0-28.4c0-0.5,0-0.9,0-1.4c-2.5,0-4.9,0-7.4,0c0,0.5,0,1,0,1.5c0,9.2,0,18.5,0,27.7
		c0,1.9,0.2,3.8,0.4,5.6c0.7,4.8,3.2,8.3,7.8,10c2.5,0.9,5.1,1.1,7.7,1.1c5.9-0.1,10.7-2.3,13.9-7.5c0.1-0.1,0.2-0.2,0.5-0.6
		c0,2.6,0,4.8,0,7.1c2.4,0,4.6,0,6.9,0c0-15,0-29.9,0-44.9c-2.5,0-4.9,0-7.4,0C537.8,119.3,537.8,119.8,537.8,120.3z"/>
	<path d="M877.9,129.9c-0.4-3.6-1.6-6.9-4.5-9.2c-2.7-2.2-5.9-3-9.4-3.1c-6.6-0.3-12,1.7-15.6,7.5c-0.1,0.2-0.1,0.4-0.1,0.6
		c-0.1-0.1-0.3-0.2-0.4-0.3c0-2.2,0-4.4,0-6.7c-2.3,0-4.6,0-6.9,0c0,15,0,29.9,0,44.9c2.5,0,4.9,0,7.4,0c0-0.6,0-1,0-1.5
		c0-8,0-16.1,0-24.1c0-1.1,0.1-2.2,0.3-3.2c1.3-7.7,8.4-12.3,16-10.2c3.9,1.1,6.1,4.2,6.1,8.8c0,9.6,0,19.2,0,28.8
		c0,0.5,0,0.9,0,1.5c2.5,0,4.9,0,7.4,0c0-0.5,0-1,0-1.5c0-9.2,0-18.3,0-27.5C878.1,133,878.1,131.5,877.9,129.9z"/>
	<path d="M763.2,148.6c-0.8,3.4-2.3,6.3-5.5,7.9c-5.3,2.8-14.4,2.5-18-6c-2.3-5.4-2.2-10.9-0.8-16.5c2.2-8.5,9.3-11.3,16.8-9.5
		c3.9,0.9,6,3.7,7.1,7.4c0.1,0.4,0.6,1,0.9,1c2.3,0.1,4.6,0,7.1,0c-0.7-5.9-3.3-10.3-8.4-13.1c-3.6-2-7.6-2.5-11.6-2.4
		c-9,0.1-16,4.9-18.9,13.4c-2.4,6.9-2.5,14-0.1,20.9c2.1,6,6.2,10,12.3,11.8c3.9,1.1,7.8,1.2,11.8,0.6c10.2-1.6,14.4-10.1,15-17
		c-2.5,0-4.9,0-7.4,0C763.4,147.7,763.3,148.2,763.2,148.6z"/>
	<path d="M915.3,154.6c-5.6,5.9-16.3,4.2-20.1-3.2c-1.4-2.7-2-5.6-2.1-8.6c-0.2-3.8,0.2-7.6,1.8-11.1c2.3-5.3,6.7-7.8,13.2-7.6
		c3.8,0.2,8.4,1.9,10,8.3c0.1,0.3,0.5,0.6,0.7,0.6c2.3,0,4.7,0,7.1,0c-0.6-5.6-3-9.9-7.8-12.8c-3.1-1.9-6.6-2.5-10.2-2.7
		c-10.1-0.7-18.2,4.7-21.2,14.2c-1.8,5.9-2,11.8-0.5,17.8c1.8,7,5.9,12,13,14.1c3.9,1.2,7.9,1.2,11.9,0.6c10.2-1.6,14.4-10,15-17
		c-2.5,0-4.9,0-7.5,0C918,150,917.2,152.6,915.3,154.6z"/>
	<path d="M569,157c-3.2-0.1-4-0.9-4-4.1c0-6.6,0-13.2,0-19.8c0-2.6,0-5.2,0-8c3,0,5.9,0,8.9,0c0-2.3,0-4.4,0-6.6c-3,0-5.9,0-8.9,0
		c0-4.6,0-9,0-13.4c-2.5,0-4.9,0-7.5,0c0,4.5,0,8.9,0,13.4c-2.6,0-5.1,0-7.5,0c0,2.2,0,4.3,0,6.5c2.5,0,5,0,7.5,0c0,0.6,0,1,0,1.4
		c0,8.8,0,17.7,0,26.5c0,1.4,0.1,2.7,0.3,4.1c0.4,2.8,1.6,5,4.5,5.8c3.8,1,7.7,0.6,11.6,0.7c0-2.2,0-4.3,0-6.6
		C572.3,157,570.6,157,569,157z"/>
	<path d="M638.1,119.9c-3,1.9-4.9,4.8-6.8,7.7c0-3,0-6,0-9.1c-2.3,0-4.6,0-6.9,0c0,15.1,0,30,0,44.9c2.5,0,4.9,0,7.4,0
		c0-0.5,0-0.9,0-1.4c0-6.3,0-12.6,0-18.8c0-1.9,0.2-3.8,0.5-5.6c1-6.6,4.7-10.6,10.9-11.8c1.6-0.3,3.2-0.4,4.9-0.6
		c0-2.6,0-5.1,0-7.7C644.4,117.4,641,118,638.1,119.9z"/>
	<path d="M778.1,163.5c2.5,0,4.9,0,7.2,0c0-15,0-29.9,0-44.9c-2.4,0-4.8,0-7.2,0C778.1,133.7,778.1,148.6,778.1,163.5z"/>
	<path d="M785.3,101.5c-2.5,0-4.8,0-7.2,0c0,3,0,5.9,0,8.9c2.4,0,4.8,0,7.2,0C785.3,107.4,785.3,104.4,785.3,101.5z"/>
	<path d="M257.2,155.1c-2.4,0-4.5,2-4.5,4.3c0,2.5,2,4.4,4.5,4.5c2.5,0,4.5-1.9,4.5-4.4C261.7,157.1,259.6,155.1,257.2,155.1z
		 M257.2,163c-1.9,0-3.4-1.6-3.3-3.5c0-1.9,1.5-3.4,3.3-3.4c1.8,0,3.4,1.6,3.3,3.5C260.5,161.5,259,163,257.2,163z"/>
	<path d="M259,158.8c0.1-0.1-0.5-1.2-0.9-1.3c-0.8-0.2-1.7-0.1-2.7-0.1c0,1.4,0,2.5,0,3.7c0,0.8,0.4,0.8,1,0.6c0-0.5,0.1-1,0.1-1.5
		c0.1-0.1,0.2-0.1,0.3-0.2c0.3,0.3,0.9,0.6,1,1c0.2,0.8,0.6,1,1.4,0.8c-0.1-0.3-0.1-0.6-0.2-0.9C258.8,160.1,258.3,159.5,259,158.8z
		 M256.9,159.5c-0.2-0.2-0.3-0.3-0.5-0.5c0.2-0.3,0.4-0.7,0.8-0.9c0.1-0.1,0.5,0.3,0.8,0.5C257.6,158.9,257.2,159.2,256.9,159.5z"/>
</g>
</svg>
