<?xml version="1.0" encoding="utf-8"?>
<!-- Generator: Adobe Illustrator 25.1.0, SVG Export Plug-In . SVG Version: 6.00 Build 0)  -->
<svg version="1.1" id="Layer_1" xmlns="http://www.w3.org/2000/svg" xmlns:xlink="http://www.w3.org/1999/xlink" x="0px" y="0px"
	 viewBox="0 0 520 174.6" style="enable-background:new 0 0 520 174.6;" xml:space="preserve">
<style type="text/css">
	.st0{fill-rule:evenodd;clip-rule:evenodd;}
</style>
<g>
	<g>
		<path class="st0" d="M274.2,142.6v-6.5c8-0.4,11.9-2.2,11.9-8.3V84.5c0-7.8-1.2-9.7-11.8-9.7l0.1-6.5c9.3-0.8,18.1-2.8,23-5.8
			v22.8h0.3c3.6-13,13.5-22.8,29.4-22.8l-2.7,14.3c-9.2-0.5-14.7,1.2-18,4.4c-5.4,5.2-7.3,14.7-7.3,35.7c0,16,0.8,19.4,14.3,19.2
			v6.5H274.2z M470.7,73.1v-6.6c9.7-1,16.7-7.5,17.5-23.1l7.7,0.1v21h13.8c4.5,0,7.8-0.7,10.2-1.7L517,73.1h-21.1v49.4
			c0,8.7,5.4,10.6,19.4,10.6c2.7,0,1.9-0.2,4.7-0.3l-1.7,9.2c-4.3,1-7.5,1.7-13.5,1.7c-10.9,0-21.8-5.8-21.8-16.7V73.1H470.7z
			 M411.7,114.6l7.5-0.1v4c0,13.7,6,17.3,18.9,17.3c10.6,0,15.5-4.5,15.5-11c0-21.2-42.3-15-42.3-41.7c0-10.4,7.7-19,25.8-19.9
			c8.6-0.4,18.7,1.8,25.2,0.9v21.4l-7.5,2.3c0-15-7.5-16-15.5-16.2c-9.3-0.2-16.1,1.7-16.1,9c0,16.9,42.3,13.1,42.3,40.2
			c0,11.1-6.8,23.2-26.2,23.2c-11.6,0-20.8-2.1-27.7-1.6v-27.8H411.7z M367.6,134.1c16.2,0,21-7.9,21-32.4
			c0-22.5-6.6-28.7-26.5-28.7c-15.3,0-23.3,2.8-23.3,32.5C338.8,124.2,346.9,134.1,367.6,134.1z M200.5,33.5h77.9v25.3l-7.5,2.4
			c-1-17.7-5-19.9-24.3-20.3c-12-0.3-18.1,2.5-18.1,14.7v28.1h14.8c9.9,0,11.5-6.4,11.5-14.4h7.5V106h-7.5
			c0.1-11.7-2.7-13.6-11.3-13.6h-15V112c0,20.1,3.2,24.8,16.3,24.2l-0.1,6.5h-44.1v-6.5c8.2,0,14.2-4.1,14.2-14V57.1
			c0-11.9-2.2-17.1-14.2-17.1L200.5,33.5L200.5,33.5z M366.4,62.5c26.3,0,35.1,16.4,35.1,37.3c0,26.4-13.6,44.9-40.7,44.9
			c-23.4,0-35-14.7-35-38.4C325.9,77.5,340.9,62.5,366.4,62.5z"/>
	</g>
	<g>
		<g>
			<path class="st0" d="M69.4,1.3c2.7-1.2,6-1.6,9.5-1.2c0.7,0.1,1.5,0.2,2.2,0.4C90,2.4,95.7,11.1,93.9,20l-7,35L69.4,1.3z"/>
		</g>
		<g>
			<path class="st0" d="M36.1,15.9c2-2.2,4.8-3.9,8.2-5c0.7-0.2,1.4-0.3,2.1-0.5c8.9-2,17.7,3.7,19.7,12.5L74,57.7L36.1,15.9z"/>
		</g>
		<g>
			<path class="st0" d="M11.6,42.7c0.9-2.7,2.8-5.5,5.5-7.8c0.6-0.5,1.1-0.9,1.7-1.3c7.3-5.4,17.6-3.9,23.1,3.5l21.3,28.6L11.6,42.7
				z"/>
		</g>
		<g>
			<path class="st0" d="M0.1,77.2c-0.3-2.9,0.3-6.2,1.8-9.4c0.3-0.7,0.7-1.3,1.1-1.9c4.5-7.9,14.5-10.7,22.5-6.2l31,17.3L0.1,77.2z"
				/>
		</g>
		<g>
			<path class="st0" d="M3.6,113.3c-1.4-2.5-2.2-5.8-2.1-9.3c0-0.7,0.1-1.5,0.2-2.2c0.9-9.1,8.9-15.7,18-14.8l35.5,3.3L3.6,113.3z"
				/>
		</g>
		<g>
			<path class="st0" d="M21.6,145c-2.3-1.7-4.4-4.3-5.8-7.7c-0.3-0.7-0.5-1.4-0.7-2.1c-2.9-8.6,1.8-18,10.4-20.9l33.8-11.5L21.6,145
				z"/>
		</g>
		<g>
			<path class="st0" d="M50.8,166.5c-2.9-0.6-5.8-2.2-8.4-4.7c-0.5-0.5-1-1-1.5-1.6c-6.1-6.7-5.7-17.2,1-23.3l26.2-24.2L50.8,166.5z
				"/>
		</g>
		<g>
			<path class="st0" d="M86.3,174.3c-2.8,0.6-6.2,0.4-9.5-0.8c-0.7-0.3-1.4-0.5-2-0.9c-8.4-3.6-12.2-13.3-8.5-21.7l14.1-32.8
				L86.3,174.3z"/>
		</g>
		<g>
			<path class="st0" d="M121.9,167c-2.4,1.7-5.5,2.8-9.1,3.1c-0.7,0.1-1.5,0.1-2.2,0c-9.1,0.1-16.6-7.2-16.6-16.3l-0.5-35.7
				L121.9,167z"/>
		</g>
		<g>
			<path class="st0" d="M151.5,145.9c-1.5,2.5-3.9,4.9-7,6.5c-0.7,0.4-1.3,0.7-2,1c-8.3,3.8-18.1,0.1-21.9-8.2l-14.9-32.4
				L151.5,145.9z"/>
		</g>
		<g>
			<path class="st0" d="M169.9,114.5c-0.3,2.9-1.6,6-3.7,8.8c-0.4,0.6-0.9,1.1-1.4,1.7c-6,6.8-16.4,7.5-23.3,1.4l-26.8-23.5
				L169.9,114.5z"/>
		</g>
		<g>
			<path class="st0" d="M173.9,78.4c0.8,2.8,1,6.1,0.1,9.6c-0.1,0.7-0.4,1.4-0.6,2.1c-2.8,8.7-12,13.5-20.7,10.8l-34-10.6
				L173.9,78.4z"/>
		</g>
		<g>
			<path class="st0" d="M162.9,43.8c1.9,2.2,3.4,5.2,4.1,8.7c0.1,0.7,0.2,1.5,0.3,2.2c1,9.1-5.5,17.2-14.5,18.3l-35.5,4L162.9,43.8z
				"/>
		</g>
		<g>
			<path class="st0" d="M138.8,16.6c2.7,1.2,5.2,3.4,7.2,6.3c0.4,0.6,0.8,1.2,1.1,1.9c4.6,7.8,2,17.9-5.8,22.6l-30.7,18.2
				L138.8,16.6z"/>
		</g>
		<g>
			<path class="st0" d="M105.7,1.6c2.9,0,6.1,1,9.2,2.8c0.6,0.4,1.2,0.8,1.8,1.2c7.4,5.3,9.1,15.6,3.8,23L99.9,57.7L105.7,1.6z"/>
		</g>
	</g>
</g>
</svg>
