<?xml version="1.0" encoding="utf-8"?>
<!-- Generator: Adobe Illustrator 26.1.0, SVG Export Plug-In . SVG Version: 6.00 Build 0)  -->
<svg version="1.1" id="Layer_1" xmlns="http://www.w3.org/2000/svg" xmlns:xlink="http://www.w3.org/1999/xlink" x="0px" y="0px"
	 viewBox="0 0 510.5 510.5" style="enable-background:new 0 0 510.5 510.5;" xml:space="preserve">
<style type="text/css">
	.st0{fill:#4285F4;}
	.st1{fill:#34A853;}
	.st2{fill:#FBBC05;}
	.st3{fill:#EA4335;}
	.st4{fill:none;}
</style>
<path class="st0" d="M471.6,259.5c0-15.9-1.4-31.2-4.1-45.9H256.1v86.9h120.7c-5.3,28-21.2,51.7-45.1,67.5v56.5h72.9
	C447.1,385.4,471.6,327.9,471.6,259.5z"/>
<path class="st1" d="M256.1,478.8c60.6,0,111.4-20,148.5-54.2l-72.8-56.5c-20,13.4-45.5,21.6-75.7,21.6
	c-58.4,0-107.9-39.4-125.7-92.4H55.8v57.9C92.7,428.5,168.4,478.8,256.1,478.8z"/>
<path class="st2" d="M130.4,297c-4.5-13.4-7.2-27.8-7.2-42.6s2.7-29.2,7.2-42.6v-57.9H55.8c-15.3,30.3-24.1,64.3-24.1,100.6
	s8.8,70.4,24.1,100.6l58.1-45.3C114,309.7,130.4,297,130.4,297z"/>
<path class="st3" d="M256.1,119.3c33.1,0,62.4,11.4,85.9,33.4l64.3-64.3C367.3,52.3,316.7,30,256.1,30
	C168.4,30,92.7,80.4,55.8,153.8l74.7,57.9C148.2,158.8,197.7,119.3,256.1,119.3z"/>
<path class="st4" d="M31.7,30h448.8v448.8H31.7V30z"/>
</svg>
