<?xml version="1.0" encoding="utf-8"?>
<!-- Generator: Adobe Illustrator 26.0.3, SVG Export Plug-In . SVG Version: 6.00 Build 0)  -->
<svg version="1.1" id="Layer_1" xmlns="http://www.w3.org/2000/svg" xmlns:xlink="http://www.w3.org/1999/xlink" x="0px" y="0px"
	 viewBox="0 0 510.5 510.5" style="enable-background:new 0 0 510.5 510.5;" xml:space="preserve">
<style type="text/css">
	.st0{fill:#4285F4;}
	.st1{fill:#34A853;}
	.st2{fill:#FBBC05;}
	.st3{fill:#EA4335;}
	.st4{fill:none;}
</style>
<path class="st0" d="M499.7,260.2c0-18-1.6-35.3-4.6-51.9H256.1v98.3h136.5c-6,31.6-24,58.4-51,76.3v63.9H424
	C472,402.5,499.7,337.5,499.7,260.2z"/>
<path class="st1" d="M256.1,508.1c68.5,0,125.9-22.6,167.9-61.3l-82.3-63.9c-22.6,15.2-51.4,24.4-85.6,24.4
	c-66,0-122-44.5-142.1-104.5H29.6v65.5C71.4,451.2,156.9,508.1,256.1,508.1z"/>
<path class="st2" d="M114,302.6c-5.1-15.2-8.1-31.4-8.1-48.2c0-16.8,3-33,8.1-48.2v-65.5H29.6C12.3,174.9,2.4,213.4,2.4,254.4
	s9.9,79.6,27.2,113.7l65.7-51.2C95.4,316.9,114,302.6,114,302.6z"/>
<path class="st3" d="M256.1,101.7c37.4,0,70.6,12.9,97.1,37.8l72.7-72.7C381.8,25.9,324.6,0.7,256.1,0.7c-99.2,0-184.7,57-226.5,140
	l84.4,65.5C134.1,146.3,190.1,101.7,256.1,101.7z"/>
<path class="st4" d="M2.4,0.7h507.4v507.4H2.4V0.7z"/>
</svg>
