<svg id="Layer_1" data-name="Layer 1" xmlns="http://www.w3.org/2000/svg" viewBox="0 0 209.89 97.24"><defs><style>.cls-1{fill:#fff;}.cls-2{fill:#ed1c29;}.cls-3{fill:#231f20;}</style></defs><path class="cls-1" d="M64.12,69.25c-14.85,0-26.93-12.33-26.93-27.49S49.27,14.22,64.12,14.21l113.21,0c14.85,0,26.92,12.38,26.91,27.56a27.63,27.63,0,0,1-7.88,19.42,26.46,26.46,0,0,1-19,8.06Z" transform="translate(-17.27 -13.56)"/><path class="cls-2" d="M177.33,13.56l-113.21,0c-15.18,0-27.56,12.63-27.56,28.18S48.94,69.88,64.12,69.88H177.33c15.21,0,27.55-12.65,27.55-28.12s-12.34-28.17-27.55-28.19m0,53.28H64.12c-13.5,0-24.46-11.26-24.46-25.08s11-25.06,24.46-25.07H177.33c13.49,0,24.43,11.25,24.42,25.07s-10.93,25.06-24.42,25.09" transform="translate(-17.27 -13.56)"/><path class="cls-2" d="M169.39,45.28h-4.27v4.58h3.44c1.78,0,3.41-.92,3.39-2.31a2.33,2.33,0,0,0-2.56-2.28m7.94-25.94H64.12c-12,0-21.81,10-21.8,22.41s9.79,22.35,21.8,22.35l113.21,0c12,0,21.79-10,21.81-22.34s-9.77-22.41-21.81-22.41M89.14,54.09H78.94l-.45-8.7H70.78L70.59,54H60.05L58.72,29H71.24L70.9,40.28h7.6l-.42-11.1H90.29Zm5.18-8.83-.1-4.67h7.66v4.67Zm42.71-9H118.38v4.26h13.35l-.12,4.93H118.2v4.22h18.16l-.14,4.64H107.31l-1.12-24.92h31.19Zm11.36,9.18H141V40.59h7.37Zm30.77-2.08c2.28.51,3.74,1.7,3.74,4.79,0,6-5.71,6.3-8.69,6.3l-20.32,0-1.11-25h23.53c4.55,0,8.1,2.71,8.09,7.14a6.3,6.3,0,0,1-5.25,6.63Zm-9.71-7.56h-4.26V41h3.9c1.79.08,3.72-1,3.72-2.51,0-1.79-1.62-2.76-3.36-2.76" transform="translate(-17.27 -13.56)"/><path class="cls-3" d="M82.82,87.11A6.6,6.6,0,0,0,77.23,90V87.44H72.15v23.29h5.08V103a6.9,6.9,0,0,0,5.59,2.68c4.25,0,8.17-3.28,8.17-9.27v-.07c0-6-4-9.27-8.17-9.27m3.08,9.34c0,3-2,5-4.38,5s-4.35-2-4.35-5v-.07c0-3,2-4.95,4.35-4.95s4.38,2,4.38,4.95Zm8.41,8.93H99.4V87.44H94.31Zm-32,0h5.09V81H62.27ZM49.51,87.11c-5.22,0-8.87,4.22-8.87,9.34v.06A9,9,0,0,0,50,105.78a9,9,0,0,0,7.33-3.34l-2.91-2.58a5.88,5.88,0,0,1-4.35,1.84,4.15,4.15,0,0,1-4.38-3.51H58.18c0-.47.06-.94.06-1.34,0-5.09-2.74-9.74-8.73-9.74M45.63,95c.4-2.31,1.77-3.82,3.88-3.82S53,92.73,53.29,95Zm-13.7-3.78h-9.5V82H17.27v23.42h5.16V96h9.5v9.4h5.15V82H31.93Zm131.9,0h-9.5V82h-5.16v23.42h5.16V96h9.5v9.4H169V82h-5.15ZM199,91.06V87.44h-5.08v17.94H199V98.75c0-4.28,2.08-6.32,5.46-6.32h.26V87.11c-3-.13-4.68,1.47-5.72,4m-17.61-4c-5.22,0-8.87,4.22-8.87,9.34v.06a9.48,9.48,0,0,0,16.7,5.93l-2.91-2.58A5.86,5.86,0,0,1,182,101.7a4.15,4.15,0,0,1-4.38-3.51h12.48c0-.47.07-.94.07-1.34,0-5.09-2.75-9.74-8.74-9.74M177.53,95c.4-2.31,1.77-3.82,3.88-3.82s3.48,1.54,3.78,3.82ZM216,101.7a4.15,4.15,0,0,1-4.38-3.51h12.48c0-.47.07-.94.07-1.34,0-5.09-2.74-9.74-8.73-9.74-5.22,0-8.87,4.22-8.87,9.34v.06a9.48,9.48,0,0,0,16.7,5.93l-2.92-2.58A5.84,5.84,0,0,1,216,101.7m-.56-10.51c2.14,0,3.48,1.54,3.78,3.82h-7.67c.41-2.31,1.78-3.82,3.89-3.82m-78.11-1.4a7.25,7.25,0,0,0-5.79-2.68c-4.11,0-8,3-8,8.37v.06c0,5.32,3.78,8.37,8,8.37a7,7,0,0,0,5.86-2.91v.87c0,3.21-1.64,4.88-5.12,4.88a11.68,11.68,0,0,1-6.06-1.64l-1.74,3.82a17.09,17.09,0,0,0,7.93,1.87c3.48,0,6.06-.74,7.73-2.41,1.51-1.5,2.28-3.85,2.28-7.06V87.44h-5.09Zm.07,5.75A4.14,4.14,0,0,1,133,99.69a4.09,4.09,0,0,1-4.35-4.15v-.06a4.37,4.37,0,0,1,8.73,0Zm-22.86-8.43A6.34,6.34,0,0,0,109.27,90V87.44h-5.08v17.94h5.08v-10c0-2.41,1.24-3.65,3.18-3.65s3.08,1.24,3.08,3.65v10h5.09V93.77c0-4.12-2.25-6.66-6.09-6.66m-14.21-6.9c0-.48-.11-.36-.45-.5-.12,0-2.82-.16-3-.2s-.38-.13-.39-.39l0-1.38a.12.12,0,0,0-.11-.12c-.33,0-1.25,0-1.5,0s-.35,0-.35.31,0,1.69,0,2.28-.64.53-1,.53l-1.24,0c-.24.08.25.71.34.75A11.91,11.91,0,0,1,93.9,83c.17.22.43.35.59.14s.13-.31.25-.43a.86.86,0,0,1,1.09.27,5.35,5.35,0,0,1,.45.77c.12.18.25.33.35.51s.17.38.26.56a1.65,1.65,0,0,0,.2.31,2.93,2.93,0,0,0,1,.4.15.15,0,0,0,.15-.07.19.19,0,0,0,0-.18,1.63,1.63,0,0,1,.24-1.52c.25-.34,1.73-.81,2-1.22.45-1.24-.28-1.18-.13-2.35m125.9,23.49c0-.39-.23-.56-.69-.56h-.75v2h.3v-.85h.34l.52.85h.33l-.56-.86a.51.51,0,0,0,.51-.54m-1.14.3v-.61h.4c.21,0,.43,0,.43.29s-.22.32-.48.32Zm.36-1.58a1.71,1.71,0,1,0,1.72,1.7,1.71,1.71,0,0,0-1.72-1.7m0,3.12a1.42,1.42,0,1,1,1.38-1.42,1.38,1.38,0,0,1-1.38,1.42" transform="translate(-17.27 -13.56)"/></svg>