<?xml version="1.0" encoding="utf-8"?>
<!-- Generator: Adobe Illustrator 26.0.3, SVG Export Plug-In . SVG Version: 6.00 Build 0)  -->
<svg version="1.1" id="Layer_1" xmlns="http://www.w3.org/2000/svg" xmlns:xlink="http://www.w3.org/1999/xlink" x="0px" y="0px"
	 viewBox="0 0 320.4 98" style="enable-background:new 0 0 320.4 98;" xml:space="preserve">
<style type="text/css">
	.st0{fill:#242425;}
	.st1{fill:#E73427;}
	.st2{fill:#1D539F;}
	.st3{fill:#F8B92A;}
</style>
<g id="Layer_2_00000062182962411788312330000011587933765282139814_">
	<g id="Layer_1-2">
		<g id="mlh-logo-color-dark">
			<g id="Major_League_Hacking">
				<path class="st0" d="M79.7,77.3c0.6,0.3,0.9,0.8,0.9,1.4v7.6c0,0.2-0.1,0.3-0.3,0.3h-1.9c-0.1,0-0.1,0-0.2-0.1
					c0-0.1-0.1-0.1-0.1-0.2v-6.9h-1.5v6.9c0,0.1,0,0.1-0.1,0.2c0,0.1-0.1,0.1-0.2,0.1h-1.7c-0.1,0-0.3-0.1-0.3-0.3l0,0l0,0v-6.9
					h-1.4v6.9c0,0.1-0.1,0.3-0.2,0.3h-1.8c-0.1,0-0.2-0.1-0.3-0.2v-9c0-0.1,0.1-0.3,0.2-0.3H79C79.3,77.2,79.5,77.2,79.7,77.3z"/>
				<path class="st0" d="M89.1,77.2c0.7,0,1.2,0.4,1.5,0.9c0.1,0.2,0.1,0.4,0.1,0.7v7.6c0,0.1-0.1,0.3-0.2,0.3l0,0h-1.9
					c-0.2,0-0.3-0.1-0.3-0.3l0,0V84c0-0.1,0-0.1-0.1-0.2c0-0.1-0.1-0.1-0.2-0.1h-2.7c-0.2,0-0.3,0.1-0.3,0.3l0,0v2.4
					c0,0.1-0.1,0.2-0.2,0.3l0,0h-2c-0.1,0-0.2-0.1-0.3-0.2l0,0v-7.7c0-0.2,0-0.4,0.1-0.7c0.1-0.2,0.2-0.4,0.4-0.6s0.4-0.3,0.6-0.4
					S84,77,84.3,77L89.1,77.2z M88.3,81.7v-2.3h-3.2v2.3H88.3z"/>
				<path class="st0" d="M99.2,77.3c0.1,0,0.1,0.1,0.1,0.2v7.7c0,0.2,0,0.4-0.1,0.7c-0.1,0.2-0.2,0.4-0.4,0.6
					c-0.2,0.2-0.3,0.3-0.6,0.4C98,87,97.8,87,97.5,87h-4c-0.2,0-0.4,0-0.7-0.1c-0.6-0.3-0.9-0.8-0.9-1.5v-2.9c0-0.1,0.1-0.3,0.2-0.3
					h2c0.1,0,0.3,0.1,0.3,0.2v2c0,0.1,0,0.1,0.1,0.2c0.1,0,0.1,0.1,0.2,0.1h2c0.1,0,0.1,0,0.2-0.1c0.1,0,0.1-0.1,0.1-0.2v-6.6
					c0-0.1,0-0.1,0.1-0.2c0-0.1,0.1-0.1,0.2-0.1h1.9C99.1,77.2,99.1,77.2,99.2,77.3z"/>
				<path class="st0" d="M107.8,77.2c0.2,0,0.4,0,0.7,0.1c0.4,0.2,0.7,0.5,0.8,0.8c0.1,0.2,0.1,0.4,0.1,0.7v6.3c0,0.2,0,0.5-0.1,0.7
					s-0.2,0.4-0.4,0.6c-0.2,0.2-0.3,0.3-0.6,0.4c-0.2,0.1-0.4,0.1-0.7,0.1h-4.7c-0.2,0-0.4,0-0.6-0.1c-0.6-0.3-0.9-0.8-0.9-1.4v-6.3
					c0-0.2,0-0.4,0.1-0.7c0.1-0.2,0.2-0.4,0.4-0.6c0.2-0.2,0.4-0.3,0.6-0.4s0.4-0.1,0.7-0.1L107.8,77.2z M106.9,79.5h-3.2v4.9h3.2
					V79.5z"/>
				<path class="st0" d="M119.7,86.4c0,0,0,0.1,0,0.2c0,0-0.1,0.1-0.2,0.1h-2.2c-0.1,0-0.2,0-0.2-0.1c-0.1,0-0.1-0.1-0.2-0.2
					l-1.4-2.5l-0.1-0.1h-1.5h-0.1l0,0l0,0v2.6c0,0.1-0.1,0.2-0.2,0.3l0,0h-1.9c-0.1,0-0.2-0.1-0.3-0.2c0,0,0,0,0-0.1v-8.9
					c0-0.1,0.1-0.2,0.2-0.3l0,0h6.2c0.2,0,0.4,0,0.7,0.1c0.4,0.2,0.7,0.5,0.8,0.8c0.1,0.2,0.1,0.4,0.1,0.7v3.6
					c0,0.4-0.1,0.7-0.3,0.9c-0.2,0.3-0.5,0.5-0.7,0.6l0,0c-0.1,0-0.1,0,0,0.1l0,0L119.7,86.4z M117,79.4h-3.3v2.3h3.3V79.4z"/>
				<path class="st0" d="M132.4,84.4c0.1,0,0.1,0,0.2,0.1c0,0.1,0.1,0.1,0.1,0.2v1.7c0,0.1,0,0.1-0.1,0.2c0,0.1-0.1,0.1-0.2,0.1
					h-5.8c-0.1,0-0.3-0.1-0.3-0.2v-9c0-0.1,0.1-0.3,0.2-0.3h2c0.1,0,0.3,0.1,0.3,0.2c0,0,0,0,0,0.1v6.6c0,0.1,0,0.1,0.1,0.2
					c0.1,0,0.1,0.1,0.2,0.1L132.4,84.4z"/>
				<path class="st0" d="M141.2,77.3c0.1,0,0.1,0.1,0.1,0.2v1.7c0,0.1,0,0.1-0.1,0.2c-0.1,0-0.1,0.1-0.2,0.1h-4.5h-0.1l0,0l0,0V81
					c0,0,0,0.1,0.1,0.1h3.8c0.1,0,0.1,0,0.2,0.1c0,0.1,0.1,0.1,0.1,0.2v1.3c0,0.1,0,0.1-0.1,0.2c0,0.1-0.1,0.1-0.2,0.1h-3.8h-0.1
					l0,0v1.4v0.1l0,0h4.6c0.1,0,0.3,0.1,0.3,0.3v1.6c0,0.1-0.1,0.3-0.3,0.3l0,0h-6.7c-0.1,0-0.3-0.1-0.3-0.2v-9
					c0-0.2,0.1-0.3,0.3-0.3h6.7C141.1,77.2,141.1,77.2,141.2,77.3z"/>
				<path class="st0" d="M149.7,77.2c0.2,0,0.5,0,0.7,0.1c0.4,0.2,0.7,0.5,0.8,0.8c0.1,0.2,0.1,0.4,0.1,0.7v7.6
					c0,0.1-0.1,0.3-0.2,0.3l0,0h-1.9c-0.1,0-0.3-0.1-0.3-0.3l0,0l0,0V84c0-0.1,0-0.1-0.1-0.2c0-0.1-0.1-0.1-0.2-0.1H146
					c-0.2,0-0.3,0.1-0.3,0.3l0,0v2.4c0,0.1-0.1,0.3-0.2,0.3h-2c-0.1,0-0.2-0.1-0.3-0.2l0,0c0,0,0,0,0-0.1v-7.6c0-0.2,0-0.4,0.1-0.7
					c0.1-0.2,0.2-0.4,0.4-0.6s0.4-0.3,0.6-0.4s0.4-0.1,0.7-0.1L149.7,77.2z M149,81.7v-2.3h-3.2v2.3H149z"/>
				<path class="st0" d="M161.3,81.6c0.1,0.1,0.1,0.1,0.1,0.2v3.4c0,0.2,0,0.4-0.1,0.7c-0.1,0.2-0.2,0.4-0.4,0.6s-0.4,0.3-0.6,0.4
					c-0.2,0.1-0.4,0.1-0.7,0.1h-4.8c-0.8,0-1.6-0.7-1.6-1.6l0,0v-6.3c0-0.2,0-0.4,0.1-0.7c0.1-0.2,0.2-0.4,0.4-0.6s0.3-0.3,0.6-0.4
					c0.2-0.1,0.4-0.1,0.7-0.1h5.6c0.2,0,0.3,0.1,0.3,0.3l0,0v1.8c0,0.2-0.1,0.3-0.3,0.3h-4.5c-0.1,0-0.1,0-0.2,0.1
					c-0.1,0.1-0.1,0.1-0.1,0.2v4.4c0,0.1,0,0.1,0.1,0.2s0.1,0.1,0.2,0.1h2.7c0.1,0,0.3-0.1,0.3-0.2l0,0v-2.3c0-0.1,0.1-0.3,0.2-0.3
					l0,0h1.9C161.1,81.5,161.2,81.5,161.3,81.6z"/>
				<path class="st0" d="M171.2,77.3c0.1,0.1,0.1,0.1,0.1,0.2v7.7c0,0.2,0,0.4-0.1,0.7c-0.1,0.2-0.2,0.4-0.4,0.6s-0.4,0.3-0.6,0.4
					c-0.2,0.1-0.4,0.1-0.7,0.1h-4.6c-0.2,0-0.4,0-0.7-0.1c-0.4-0.2-0.7-0.5-0.8-0.8c-0.1-0.2-0.1-0.4-0.1-0.7v-7.7
					c0-0.1,0.1-0.3,0.2-0.3h2c0.1,0,0.3,0.1,0.3,0.2c0,0,0,0,0,0.1v6.6c0,0.1,0,0.1,0.1,0.2c0.1,0,0.1,0.1,0.2,0.1h2.7
					c0.1,0,0.1,0,0.2-0.1c0.1,0,0.1-0.1,0.1-0.2v-6.6c0-0.2,0.1-0.3,0.3-0.3L171.2,77.3C171.2,77.2,171.2,77.2,171.2,77.3z"/>
				<path class="st0" d="M180.6,77.3c0.1,0.1,0.1,0.1,0.1,0.2v1.7c0,0.1,0,0.1-0.1,0.2c-0.1,0-0.1,0.1-0.2,0.1h-4.5h-0.1l0,0V81
					c0,0,0,0.1,0.1,0.1h3.8c0.1,0,0.1,0,0.2,0.1c0,0.1,0.1,0.1,0.1,0.2v1.3c0,0.1,0,0.1-0.1,0.2c0,0.1-0.1,0.1-0.2,0.1h-3.8h-0.1
					v1.4v0.1l0,0h4.6c0.1,0,0.3,0.1,0.3,0.3v1.6c0,0.1-0.1,0.3-0.3,0.3h-6.7c-0.1,0-0.3-0.1-0.3-0.2l0,0c0,0,0,0,0-0.1v-9
					c0-0.2,0.1-0.3,0.3-0.3h6.7C180.5,77.2,180.6,77.2,180.6,77.3z"/>
				<path class="st0" d="M195.1,77.2c0.1,0,0.3,0.1,0.3,0.2l0,0v9c0,0.1-0.1,0.3-0.3,0.3l0,0h-1.9c-0.2,0-0.3-0.1-0.3-0.3l0,0v-3.1
					c0-0.1-0.1-0.3-0.2-0.3l0,0H190c-0.1,0-0.1,0-0.2,0.1c-0.1,0-0.1,0.1-0.1,0.2v3.1c0,0.1-0.1,0.3-0.2,0.3c0,0,0,0-0.1,0h-1.9
					c-0.1,0-0.3-0.1-0.3-0.2c0,0,0,0,0-0.1v-9c0-0.1,0.1-0.3,0.2-0.3h2c0.1,0,0.3,0.1,0.3,0.2c0,0,0,0,0,0.1v3
					c0,0.1,0.1,0.3,0.2,0.3h2.7c0.1,0,0.1,0,0.2-0.1c0-0.1,0.1-0.1,0.1-0.2v-3c0-0.2,0.1-0.3,0.3-0.3L195.1,77.2L195.1,77.2z"/>
				<path class="st0" d="M203.8,77.2c0.2,0,0.5,0,0.7,0.1c0.4,0.2,0.7,0.5,0.8,0.8c0.1,0.2,0.1,0.4,0.1,0.7v7.6
					c0,0.1-0.1,0.3-0.2,0.3l0,0h-1.9c-0.1,0-0.3-0.1-0.3-0.3l0,0V84c0-0.1,0-0.1-0.1-0.2c0-0.1-0.1-0.1-0.2-0.1H200
					c-0.1,0-0.3,0.1-0.3,0.3l0,0l0,0v2.4c0,0.1-0.1,0.3-0.2,0.3h-2c-0.1,0-0.3-0.1-0.3-0.2l0,0v-7.7c0-0.2,0-0.4,0.1-0.7
					c0.1-0.2,0.2-0.4,0.4-0.6s0.4-0.3,0.6-0.4c0.2-0.1,0.4-0.1,0.7-0.1L203.8,77.2z M203.1,81.7v-2.3h-3.2v2.3H203.1z"/>
				<path class="st0" d="M210,79.5c-0.1,0-0.1,0.1-0.1,0.2v4.4c0,0.1,0,0.1,0.1,0.2c0.1,0,0.1,0.1,0.2,0.1h4.3
					c0.1,0,0.3,0.1,0.3,0.2l0,0v1.8c0,0.1-0.1,0.3-0.2,0.3l0,0h-5.4c-0.2,0-0.4,0-0.7-0.1c-0.2-0.1-0.4-0.2-0.6-0.4
					c-0.3-0.3-0.5-0.7-0.5-1.1v-6.3c0-0.2,0-0.4,0.1-0.7c0.1-0.2,0.2-0.4,0.4-0.6s0.4-0.3,0.6-0.4c0.2-0.1,0.4-0.1,0.7-0.1h5.4
					c0.1,0,0.3,0.1,0.3,0.3v1.8c0,0.1-0.1,0.3-0.3,0.3h-4.3C210.1,79.4,210,79.5,210,79.5z"/>
				<path class="st0" d="M222.3,81.2L222.3,81.2l3.1,5.2c0,0,0,0.1,0,0.2c0,0-0.1,0.1-0.2,0.1h-2.3c-0.1,0-0.2,0-0.2-0.1
					c-0.1,0-0.1-0.1-0.2-0.2l-2.1-3.7c0-0.1-0.1-0.1-0.1,0l-1.1,1.2c-0.1,0.1-0.1,0.1-0.1,0.2s0,0.2,0,0.2v2c0,0.1-0.1,0.3-0.2,0.3
					H217c-0.1,0-0.3-0.1-0.3-0.2c0,0,0,0,0-0.1v-9c0-0.1,0.1-0.3,0.2-0.3h2c0.1,0,0.3,0.1,0.3,0.2c0,0,0,0,0,0.1v4l3.5-4.1
					c0-0.1,0.1-0.1,0.2-0.2c0.1,0,0.2-0.1,0.2-0.1h2.2c0.1,0,0.1,0,0.1,0.1s0,0.1,0,0.1L222.3,81.2z"/>
				<path class="st0" d="M229.6,86.4c0,0.1-0.1,0.2-0.2,0.3l0,0h-1.9c-0.1,0-0.3-0.1-0.3-0.2l0,0v-9c0-0.1,0.1-0.3,0.2-0.3h2
					c0.1,0,0.3,0.1,0.3,0.2c0,0,0,0,0,0.1L229.6,86.4z"/>
				<path class="st0" d="M238.7,77.3c0.4,0.2,0.7,0.5,0.8,0.8c0.1,0.2,0.1,0.4,0.1,0.7v7.6c0,0.1-0.1,0.3-0.2,0.3l0,0h-1.9
					c-0.1,0-0.1,0-0.2-0.1c0-0.1-0.1-0.1-0.1-0.2v-6.6c0-0.1,0-0.1-0.1-0.2c-0.1,0-0.1-0.1-0.2-0.1h-2.7c-0.1,0-0.1,0-0.2,0.1
					c-0.1,0-0.1,0.1-0.1,0.2v6.6c0,0.1-0.1,0.3-0.2,0.3h-2c-0.1,0-0.2-0.1-0.3-0.2c0,0,0,0,0-0.1v-9c0-0.1,0.1-0.3,0.2-0.3h6.2
					C238.3,77.2,238.5,77.3,238.7,77.3z"/>
				<path class="st0" d="M249.6,81.6c0.1,0.1,0.1,0.1,0.1,0.2v3.4c0,0.2,0,0.4-0.1,0.7c-0.1,0.2-0.2,0.4-0.4,0.6s-0.3,0.3-0.6,0.4
					c-0.2,0.1-0.4,0.1-0.7,0.1h-4.8c-0.2,0-0.4,0-0.7-0.1c-0.6-0.3-0.9-0.8-0.9-1.5v-6.3c0-0.2,0.1-0.5,0.1-0.7
					c0.1-0.2,0.2-0.4,0.4-0.6s0.4-0.3,0.6-0.4c0.2-0.1,0.4-0.1,0.7-0.1h5.6c0.1,0,0.3,0.1,0.3,0.3l0,0v1.8c0,0.1-0.1,0.3-0.3,0.3
					l0,0h-4.5c-0.1,0-0.1,0-0.2,0.1c-0.1,0-0.1,0.1-0.1,0.2v4.4c0,0.1,0,0.1,0.1,0.2c0.1,0,0.1,0.1,0.2,0.1h2.6
					c0.1,0,0.3-0.1,0.3-0.2l0,0v-2.3c0-0.1,0.1-0.3,0.2-0.3l0,0h1.9C249.5,81.5,249.5,81.5,249.6,81.6z"/>
			</g>
			<g id="M">
				<path class="st1" d="M127.6,12.1c2.3,1,4.3,2.9,5.2,5.2c0.6,1.2,0.8,2.5,0.8,3.8v49.6c0,0.8-0.7,1.6-1.6,1.6h-11.9
					c-0.4,0-0.8-0.2-1.1-0.5c-0.3-0.3-0.5-0.7-0.5-1.1v-45h-9.6v45.1c0,0.5-0.2,0.8-0.5,1.1c-0.3,0.3-0.7,0.5-1.1,0.5H96.9
					c-0.8,0-1.6-0.7-1.6-1.6l0,0v-45h-9.6v45.1c0.1,0.7-0.5,1.5-1.2,1.6c-0.1,0-0.3,0-0.4,0H72.3c-0.7,0.1-1.5-0.5-1.6-1.2
					c0-0.1,0-0.3,0-0.4v-58c-0.1-0.7,0.5-1.5,1.2-1.6c0.1,0,0.3,0,0.4,0h51.5C125.1,11.3,126.4,11.5,127.6,12.1z"/>
			</g>
			<g id="L">
				<path class="st2" d="M185.5,57.6c0.5,0,0.8,0.2,1.1,0.5s0.5,0.7,0.5,1.2v11.5c0,0.5-0.2,0.8-0.5,1.1c-0.3,0.3-0.7,0.5-1.1,0.5
					h-40.6c-1.1,0-1.7-0.6-1.7-1.7V12.9c0-1.1,0.6-1.7,1.7-1.7h12.5c1.1,0,1.7,0.6,1.7,1.7V56c0,0.5,0.2,0.8,0.6,1.1
					c0.4,0.3,0.7,0.5,1.2,0.5C160.9,57.6,185.5,57.6,185.5,57.6z"/>
			</g>
			<g id="H">
				<path class="st3" d="M247.9,11.3c0.5,0,0.9,0.2,1.2,0.5c0.4,0.3,0.6,0.7,0.6,1.2v58.1c0,0.5-0.2,0.8-0.6,1.2
					c-0.4,0.3-0.7,0.5-1.2,0.5h-12.6c-0.5,0-0.9-0.2-1.2-0.5c-0.4-0.3-0.6-0.7-0.6-1.2V50.8c0-0.5-0.2-0.8-0.5-1.1s-0.7-0.5-1.2-0.5
					h-17.6c-0.5,0-0.8,0.2-1.2,0.5s-0.6,0.7-0.6,1.1V71c0,1.1-0.6,1.7-1.7,1.7h-12.5c-1.1,0-1.7-0.6-1.7-1.7V12.9
					c0-1.1,0.6-1.7,1.7-1.7h12.5c1.1,0,1.7,0.6,1.7,1.7v19.7c0,1.1,0.6,1.7,1.7,1.7h17.8c0.5,0,0.8-0.2,1.2-0.5
					c0.3-0.3,0.5-0.7,0.5-1.1V13c0-0.5,0.2-0.8,0.6-1.2c0.3-0.3,0.7-0.5,1.2-0.5L247.9,11.3L247.9,11.3z"/>
			</g>
		</g>
	</g>
</g>
</svg>
