<?xml version="1.0" encoding="utf-8"?>
<!-- Generator: Adobe Illustrator 26.0.3, SVG Export Plug-In . SVG Version: 6.00 Build 0)  -->
<svg version="1.1" id="Layer_1" xmlns="http://www.w3.org/2000/svg" xmlns:xlink="http://www.w3.org/1999/xlink" x="0px" y="0px"
	 viewBox="0 0 1322 524" style="enable-background:new 0 0 1322 524;" xml:space="preserve">
<style type="text/css">
	
		.st0{clip-path:url(#SVGID_00000050620598797690889090000004746032669671702166_);fill:url(#SVGID_00000009561850246318169090000007127672370777583010_);}
	.st1{clip-path:url(#SVGID_00000173137597109248652940000005916930913851572904_);}
	.st2{clip-path:url(#SVGID_00000173149676813152632330000003974944745227041190_);}
	.st3{clip-path:url(#SVGID_00000101076153981666524960000010409655811228776589_);}
	.st4{clip-path:url(#SVGID_00000094594513545983367530000007946209999515081654_);}
	.st5{clip-path:url(#SVGID_00000142174482235630568500000007056637591287617430_);}
	.st6{clip-path:url(#SVGID_00000092436674464409486070000003972695496191013511_);}
	.st7{clip-path:url(#SVGID_00000170240712050279140150000009003689583340723845_);}
</style>
<g>
	<g>
		<g>
			<g>
				<g>
					<g>
						<defs>
							<path id="SVGID_1_" d="M131.6,130.9c-8.6,0-15.5,6.9-15.5,15.5v31.2v16v16.1v147.2c0,8.6,6.9,15.5,15.5,15.5h32.5
								c8.6,0,15.5-6.9,15.5-15.5V209.7c0-8.6,6.9-15.5,15.4-15.5h83.9c8.6,0,15.5,6.9,15.5,15.5v83.7c0,8.6-6.9,15.4-15.5,15.4
								h-48.3c-8.6,0-15.5,6.9-15.5,15.5v32.4c0,8.6,6.9,15.5,15.5,15.5h48.3c8.6,0,15.5,0,15.5,0h15.5h32.5
								c8.6,0,15.5-6.9,15.5-15.4V146.4c0-8.6-6.9-15.5-15.5-15.5h-27.6c-8.6,0-15.5,0-15.5,0s-6.9,0-15.5,0H131.6L131.6,130.9z"/>
						</defs>
						<clipPath id="SVGID_00000162323656549385101270000011647942873304733585_">
							<use xlink:href="#SVGID_1_"  style="overflow:visible;"/>
						</clipPath>
						
							<linearGradient id="SVGID_00000136404285007559751210000014898201978522515854_" gradientUnits="userSpaceOnUse" x1="2287.2158" y1="854.6605" x2="2291.0723" y2="854.6605" gradientTransform="matrix(51.9091 45.5959 45.5959 -51.9091 -157567.2812 -59766.1484)">
							<stop  offset="0" style="stop-color:#AECC50"/>
							<stop  offset="4.900000e-03" style="stop-color:#AECC50"/>
							<stop  offset="0.6995" style="stop-color:#00853D"/>
							<stop  offset="0.9951" style="stop-color:#00603E"/>
							<stop  offset="1" style="stop-color:#00603E"/>
						</linearGradient>
						
							<polygon style="clip-path:url(#SVGID_00000162323656549385101270000011647942873304733585_);fill:url(#SVGID_00000136404285007559751210000014898201978522515854_);" points="
							221.3,11.1 477.4,236 252.4,492 -3.6,267.2 						"/>
					</g>
				</g>
			</g>
		</g>
	</g>
	<g>
		<g>
			<g>
				<g>
					<g>
						<defs>
							<rect id="SVGID_00000119099075370741053670000008689953723852300691_" x="103.5" y="119" width="1127.4" height="265.3"/>
						</defs>
						<clipPath id="SVGID_00000121258182516581120410000009325092662466847672_">
							<use xlink:href="#SVGID_00000119099075370741053670000008689953723852300691_"  style="overflow:visible;"/>
						</clipPath>
						<path style="clip-path:url(#SVGID_00000121258182516581120410000009325092662466847672_);" d="M411.4,233.4h20.9v13.4h0.5
							c5.8-7,19.3-15.6,40.2-15.6c34.4,0,51.1,22.5,51.1,48c0,26-15.2,51.3-50.8,51.3c-20.9,0-32.7-6.5-39.6-15.2h-0.5v52h-21.8
							L411.4,233.4L411.4,233.4z M468.4,245.3c-23.7,0-35.1,18-35.1,35.7c0,15.8,10.3,35.3,34.8,35.3c23.5,0,33.3-21,32.7-35.9
							C501.2,263.3,492,245.3,468.4,245.3"/>
					</g>
				</g>
			</g>
		</g>
		<g>
			<g>
				<g>
					<g>
						<defs>
							<rect id="SVGID_00000143609955827061888940000009809125394452659630_" x="103.5" y="119" width="1127.4" height="265.3"/>
						</defs>
						<clipPath id="SVGID_00000081623126087793379120000000824694168645394862_">
							<use xlink:href="#SVGID_00000143609955827061888940000009809125394452659630_"  style="overflow:visible;"/>
						</clipPath>
						<path style="clip-path:url(#SVGID_00000081623126087793379120000000824694168645394862_);" d="M551.3,240.1
							c10.9-5.2,23.9-8.9,39-8.9c33.9,0,47.6,13.4,47.6,39.2v39.2c0,10.7,0.5,15.8,0.9,18.6h-20.4V316H618
							c-5.1,5.8-16.7,14.5-36.7,14.5c-25.6,0-43.5-8.9-43.5-29.5c0-23.8,32.5-31.2,55.1-31.2c8.6,0,14.6,0,23.2,0.3
							c0-16.4-7.5-24.7-29.3-24.7c-12.4,0-25.6,3.7-34.4,9.6L551.3,240.1z M616.1,283c-4.7,0-9.3-0.3-14-0.3
							c-11.8,0-41.1,1.5-41.1,18.2c0,10,12,15.4,22.1,15.4c21.6,0,33-10.7,33-24.9V283L616.1,283z"/>
					</g>
				</g>
			</g>
		</g>
		<g>
			<g>
				<g>
					<g>
						<defs>
							<rect id="SVGID_00000047056255482555347600000017193625818044387228_" x="103.5" y="119" width="1127.4" height="265.3"/>
						</defs>
						<clipPath id="SVGID_00000152240958652978515330000014235667763518063283_">
							<use xlink:href="#SVGID_00000047056255482555347600000017193625818044387228_"  style="overflow:visible;"/>
						</clipPath>
						<path style="clip-path:url(#SVGID_00000152240958652978515330000014235667763518063283_);" d="M658.3,353.8
							c2.8,0.8,6.5,1.5,10.3,1.5c19.5,0,26-21.6,26-23.4c0-2.1-2.8-6.8-4.1-10l-40.2-88.5h23.9l31.9,78.4h0.5l32.6-78.4h22.1
							l-43.6,96.9c-8.1,18.2-16.7,39.2-45.5,39.2c-6.9,0-10.9-0.8-14.8-1.3L658.3,353.8z"/>
					</g>
				</g>
			</g>
		</g>
		<g>
			<g>
				<g>
					<g>
						<defs>
							<rect id="SVGID_00000157307672837136611500000006303497637388439701_" x="103.5" y="119" width="1127.4" height="265.3"/>
						</defs>
						<clipPath id="SVGID_00000078767717741564590580000010768238314568806580_">
							<use xlink:href="#SVGID_00000157307672837136611500000006303497637388439701_"  style="overflow:visible;"/>
						</clipPath>
						<path style="clip-path:url(#SVGID_00000078767717741564590580000010768238314568806580_);" d="M851,249.4
							c-8.3-2.8-16.7-4-23.7-4c-24.4,0-38,17.4-38,35.4c0,16.9,11.3,35.4,39.6,35.4c7.5,0,16.7-1.8,23.5-5.4l1.6,15.6
							c-9,3.3-19.5,3.9-27.4,3.9c-35.8,0-60.4-22.5-60.4-49.6c0-28.8,24.2-49.6,60.4-49.6c8.9,0,20.2,1.6,26.4,3.7L851,249.4z"/>
					</g>
				</g>
			</g>
		</g>
		<g>
			<g>
				<g>
					<g>
						<defs>
							<rect id="SVGID_00000129913250764210104620000003706529288327908244_" x="103.5" y="119" width="1127.4" height="265.3"/>
						</defs>
						<clipPath id="SVGID_00000173842948155258327940000018093033508171203007_">
							<use xlink:href="#SVGID_00000129913250764210104620000003706529288327908244_"  style="overflow:visible;"/>
						</clipPath>
						<path style="clip-path:url(#SVGID_00000173842948155258327940000018093033508171203007_);" d="M923.6,231.2
							c36.1,0,60.2,20.8,60.2,49.6c0,27.1-24.6,49.6-60.2,49.6c-35.8,0-60.4-22.5-60.4-49.6C863.2,252,887.4,231.2,923.6,231.2
							 M923.6,316.3c25.6,0,37-18.6,37-35.4c0-18-13.8-35.4-37-35.4c-23.5,0-37.2,17.4-37.2,35.4
							C886.5,297.8,897.8,316.3,923.6,316.3"/>
					</g>
				</g>
			</g>
		</g>
		<g>
			<g>
				<g>
					<g>
						<defs>
							<rect id="SVGID_00000155125209263724872280000007430847996824938909_" x="103.5" y="119" width="1127.4" height="265.3"/>
						</defs>
						<clipPath id="SVGID_00000088833674141718950610000014516070646232807074_">
							<use xlink:href="#SVGID_00000155125209263724872280000007430847996824938909_"  style="overflow:visible;"/>
						</clipPath>
						<path style="clip-path:url(#SVGID_00000088833674141718950610000014516070646232807074_);" d="M1005.2,233.4h20.4v13.8h0.5
							c8.3-11,20.2-15.9,37.6-15.9c13.8,0,27.4,5.5,33.7,18.4c8.1-13.5,26-18.4,36.7-18.4c30.2,0,41.1,15.6,41.1,36.2v60.8h-21.8
							v-56.5c0-11.7-3.5-26.4-21.1-26.4c-22.3,0-31.1,17.4-31.1,35.1v47.7h-21.8v-56.5c0-11.7-3.5-26.4-21.1-26.4
							c-22.3,0-31.2,17.4-31.2,35.1v47.7h-21.8L1005.2,233.4L1005.2,233.4z"/>
					</g>
				</g>
			</g>
		</g>
		<g>
			<g>
				<g>
					<g>
						<defs>
							<rect id="SVGID_00000061433214293746916040000011560962309399687051_" x="103.5" y="119" width="1127.4" height="265.3"/>
						</defs>
						<clipPath id="SVGID_00000172426959017128079870000012138903501340511881_">
							<use xlink:href="#SVGID_00000061433214293746916040000011560962309399687051_"  style="overflow:visible;"/>
						</clipPath>
						<path style="clip-path:url(#SVGID_00000172426959017128079870000012138903501340511881_);" d="M1187.5,249.9
							c0-8.9,7.2-16,16-16c8.9,0,16.1,7.2,16.1,16c0,8.9-7.2,16-16.1,16C1194.6,266,1187.5,258.8,1187.5,249.9 M1215.6,249.9
							c0-7.5-5.4-13-12.1-13s-12.1,5.4-12.1,13s5.4,13,12.1,13S1215.6,257.4,1215.6,249.9 M1197.3,240.7h6.8c4.4,0,6.7,1.5,6.7,5.4
							c0,3.1-1.7,4.7-4.8,4.9l4.9,7.9h-3.5l-4.7-7.9h-2v7.9h-3.4V240.7L1197.3,240.7z M1200.8,248.6h3c2,0,3.7-0.2,3.7-2.7
							c0-2.2-2-2.5-3.7-2.5h-3V248.6L1200.8,248.6z"/>
					</g>
				</g>
			</g>
		</g>
	</g>
</g>
</svg>
