<?xml version="1.0" encoding="utf-8"?>
<!-- Generator: Adobe Illustrator 26.0.3, SVG Export Plug-In . SVG Version: 6.00 Build 0)  -->
<svg version="1.1" id="Layer_1" xmlns="http://www.w3.org/2000/svg" xmlns:xlink="http://www.w3.org/1999/xlink" x="0px" y="0px"
	 viewBox="0 0 1493.6 473" style="enable-background:new 0 0 1493.6 473;" xml:space="preserve">
<style type="text/css">
	.st0{fill:#4E2817;}
	.st1{fill-rule:evenodd;clip-rule:evenodd;fill:#4E2817;}
	.st2{fill:#F26922;}
</style>
<desc>Created with Sketch.</desc>
<g id="Page-1">
	<g id="_x30_2-sticker-mule-logo-light-bg">
		<path id="Shape" class="st0" d="M307.3,323.6c-20.6,0-39.3-2.2-56-18.9l21.4-21.4c11,11,24.9,12.2,35.1,12.2
			c11.4,0,23.2-3.7,23.2-13.7c0-6.5-3.5-11.2-14-12l-20.6-2c-23.6-2.2-38.3-12.5-38.3-36.8c0-27.1,23.9-42.1,50.8-42.1
			c20.6,0,37.6,3.5,50.3,15.5l-20.2,20.6c-7.7-6.9-19.2-9-30.6-9c-13.2,0-18.7,6-18.7,12.5c0,5,2,10.2,13.7,11.4l20.6,2
			c25.8,2.5,39.1,16.2,39.1,38.5C363.3,309.9,338.5,323.6,307.3,323.6z"/>
		<path id="Shape_00000034083350714716721970000001663093339038054034_" class="st0" d="M420.6,322.1c-26.9,0-38.1-18.9-38.1-37.6
			v-65.2h-14v-24.9h14v-38.8h32.9v38.9h23.2v24.9h-23.2v63.2c0,7.5,3.5,12,11.4,12h12v27.7h-18.1V322.1z"/>
		<path id="Shape_00000178893566391552882650000000130061487755872387_" class="st0" d="M453.2,168.4v-26.9h33.6v26.9H453.2z
			 M453.6,322.1V190.7h32.9v131.4H453.6z"/>
		<path id="Shape_00000091702067187393577680000010864015597468200871_" class="st0" d="M560.4,323.6c-26.4,0-58.7-14-58.7-67.5
			c0-53.1,32.6-67.2,58.7-67.2c18.1,0,31.6,5.4,43.3,17.7l-22.4,22.4c-6.9-7.5-12.5-10.2-21.1-10.2c-7.7,0-14,2.8-18.7,8.4
			c-5.2,6.2-7.5,15.2-7.5,29.1c0,14,2.2,22.8,7.5,29.4c5,5.8,11,8.4,18.7,8.4c8.4,0,14.2-3.2,21.1-10.2l22.4,21.9
			C592,318,578.6,323.6,560.4,323.6z"/>
		<polygon id="Shape_00000123403689122687959630000017346713111556537741_" class="st0" points="694.3,322.1 662.3,267.4 648.1,283 
			648.1,322.1 615.2,322.1 615.2,142.4 648.1,142.4 648.1,244.5 691.8,190.7 731.4,190.7 684.7,244 735.2,322.4 694.3,322.4 		"/>
		<path id="Shape_00000025411429567717802440000008960243136506888326_" class="st0" d="M762.3,266.4c0,17,10.2,29.1,28.8,29.1
			c14.2,0,21.4-4,29.6-12.2l19.9,19.4c-13.5,13.5-26.4,20.6-50.1,20.6c-31.1,0-60.7-14-60.7-67.5c0-42.8,23.2-67.2,57.5-67.2
			c36.6,0,57.5,26.9,57.5,62.7v14.7L762.3,266.4L762.3,266.4z M809.6,230.1c-3.5-7.7-11-13.7-21.9-13.7c-11.2,0-18.7,5.8-21.9,13.7
			c-2,5-2.8,8.2-3.2,14h50.1C812,238.3,811.5,234.8,809.6,230.1z"/>
		<path id="Shape_00000134944360058303488920000015032991797537501112_" class="st0" d="M931.7,226.6c-5.2-5.2-9.5-7.7-17.4-7.7
			c-9.9,0-21.1,7.7-21.1,24.3v78.9h-32.9V190.7h32.1v12.5c6.2-7.7,18.9-14,33.1-14c12.9,0,21.9,3.2,31.1,12.2L931.7,226.6z"/>
		<path id="Shape_00000130626707779317279170000013464829201216646838_" class="st1" d="M150.2,336.9c-2,0.7-4.5,0.5-7.3,0.7
			c-2.2,0-5.4,0-6.9-1.3c-0.7-0.5-0.7-2-0.7-2.8c0-0.7,0.2-2.2,0.2-3.2c0.2-1.3,0.5-2.8,0-3.7c-0.5-0.7-2.5-0.5-3.7-1.3
			c-1.3-0.5-1.5-2.2-1.7-4c0-0.5-0.5-1.3-0.5-1.5c-0.2-2.5,0.5-6.2,1.3-9c0.5-2.8,1.5-5.4,2-8.2c0.7-4,0.7-8.4,0.5-12.9
			c0-2.2-0.5-4,0-5.8c0.2-1.7,1.3-3.2,1.5-5c0-0.5,0-1.3,0-1.7s0.2-0.7,0.2-1.5c0-1.3-0.2-2.5-0.2-4c-0.2-3.7,0-9.2,0.2-12.2
			c0-1.3,0.5-2.2-0.2-2.8c-4,0-7.5,0.5-11.2,1.3c-9.7,1.3-22.4,1.5-31.6-0.5c-0.7-0.2-1.7-0.2-2.5-0.2c-6.9-1.5-12.9-4.5-17.7-8.2
			c-0.7-0.5-1.7-1.3-2.5-2c-0.7-0.5-1.7-1.5-2.5-2c-3.7-1.7-9,0.2-10.5,2.8c-0.5,0.7-1.3,2.2-1.7,3.5c-0.5,1.3-1.3,2.2-1.5,3.5
			c-2.5,5.8-5.4,11.4-8,17.2c-1.5,3.5-3.2,7.3-4.3,11c-2.2,8-0.2,18.7,1.7,26.4c0.2,0.5,0.5,1.5,0.7,2.2c0.5,1.7,1.7,4.3,3.2,5.4
			c0.7,0.5,2,1.3,2.8,1.7c1.3,0.7,1.7,2.5,2.5,4.3c0.2,0.5,0.7,1.5,1.3,2.2c0.7,1.7,1.5,3.2-0.5,4.3c-1.5,0.7-3.7,0.7-5.8,1.3
			c-0.7,0.2-0.5,1.5-1.3,2c-0.2,0.2-1.7,0.7-2.2,1.3c-2.5,0.7-7.3,0.7-9.2,0c-1.3-0.2-2.2-1.3-2.5-2c-0.5-1.7,0.7-3.7-0.2-5
			c-0.5-0.5-1.7-0.5-2.5-0.7c-1.5-0.5-2.5-2-3.5-3.5C24,319,25,313,24.8,308c0-1.5-0.2-2.8-0.2-4.5c0-2.8-0.7-5.8-1.3-8.4
			c-0.2-1.5-0.5-2.5-0.7-3.7c-0.5-2-0.7-4.3-1.5-6.2c-0.5-2.2-0.5-4.5,0-6.2c0.2-0.5,0.7-1.3,1.3-1.7c0.5-1.3,0.5-2.2,0.5-3.5
			c-0.2-0.5-1.7,0-2-0.5c-0.7-6.2-1.7-12.2-2.2-18.9c-0.2-2.2-0.2-4.3-0.2-6.5c-0.2-4.3,0-9-0.5-13.2c-0.2-2-0.5-4-0.7-6
			c-0.7-5.8-2.2-12.9-1.3-18.9c0.7-3.7,2-6.9,4.3-9.7c1.5-2,3.2-3.7,5-5.8c1.7-1.7,3.7-3.5,5.8-5c1.5-0.7,2.8-2,4.3-2.8
			c3.2-1.5,7.5-2.8,12-3.2c4.5-0.2,9.7-0.2,14,0.5c4.3,0.7,8.4,1.5,12.9,2.2c4,0.7,8,2,12,2.8c0.5,0,0.7,0.5,1.5,0.5
			c1.3,0.2,2.5,0.2,4,0.7c3.7,0.7,8.2,1.5,12.9,1.5c5,0,9.2,0,13.2-1.3c0.5-0.2,1.3-0.5,1.7-0.5c0.5-0.2,1.5-0.2,2-0.2
			c0.2,0,0.7-0.5,1.3-0.7c2.2-1.3,4.3-2.2,6.2-3.7c1.7-1.3,2.8-2,5.2-2.8c0.7-0.2,2-0.7,2.8-1.3c2-0.5,4.3-1.3,5.8-2.2
			c2.5-1.5,4.3-3.7,6.2-5.8c2-1.7,4.3-3.7,6.5-5.4c4.5-3.7,9.2-6.9,13.5-10.2c2.2-1.7,4.5-3.5,7.3-5c5-2.8,9.9-6,17.2-6.5
			c2.8-0.2,5.8-0.2,8.4,0c0.7,0,1.7,0.5,2.5,0.2c0.7-0.3,1.5-1.5,1.7-2.2c1.3-2,1.7-3.2,2.8-5.4c0.5-1.5,0.2-2.8,1.7-2.8
			s1.3,3.7,1.3,5.2c0,1.7-0.2,4,0,5.2c0.2,0.7,1.5,2,2.5,2c0.7,0,1.5-0.5,2-1.3c0.7-0.5,1.5-0.5,2-1.3c1.3-0.7,2.5-2.2,3.7-3.5
			c0.7-0.7,2.5-3.5,4-3.2c2.8,0.2,0,4.5-0.5,5.8c-1.5,3.2-2.8,5.8-4.5,8.4c-0.5,1.3-2.2,2.8-2.2,4.3c0,0.7,0.7,1.5,1.3,2.5
			c0.2,0.5,0.2,0.7,0.5,1.5c0.7,2.2,1.7,5.4,2.5,8c0.5,2.2,1.3,4.5,2,6.5s2,4,2.8,6.2c0.2,0.5,0.2,1.3,0.5,1.7
			c1.7,4.5,3.5,9.7,5.8,14.2c0.7,1.7,2,4,2,6.5c0,2.8-1.5,4.3-2.8,6.5c-0.5,1.3-1.7,2.8-2.8,3.2c-0.7,0.2-1.7,0-2.5,0
			c-1.3,0.2-2,0.7-2.8,0.7c-2.5,0.2-5.2-1.7-5.8-3.7c-0.2-0.5,0-1.5-0.2-2.2c-0.5-3.2-2.2-4.5-4.3-6.9c-1.5-1.5-2.5-2.2-4.3-3.2
			c-2.5-1.5-5.2-2-8-3.5c-0.7-0.5-2.2-1.3-3.2-0.7c-1.5,0.2-2.8,2.5-4,4c-6.9,9.2-13.2,18.7-19.6,27.3c-4.5,6-9.2,12-12.9,18.7
			c-0.7,1.7-1.5,3.7-2.2,5.8c-0.5,2-1.3,4-1.7,6.2c-2.5,7.5-3.5,16.7-5.8,24.3c-0.2,0.7-0.2,1.7-0.5,2.5c-1.3,4-2.2,8.4-3.5,12.9
			c-0.7,3.2-1.3,7.5-1.5,11.4c0,4-0.2,9.5,1.3,11.7c0.7,1.5,3.5,1.7,4.3,3.2c0.5,0.7,1.3,2.8,2,4c0.5,0.7,2,2.5,1.7,4
			c0,0.7-0.7,1.7-1.7,2c-0.7,0.2-2,0.2-2.8,0.5C150.8,335,151,336.1,150.2,336.9z"/>
		<path id="Shape_00000103247470565862476710000001989564821720683960_" class="st2" d="M1104,189c-16.2,0-28.4,5.2-39.3,16.7
			c-8.2-11.4-20.2-16.7-34.8-16.7c-12,0-24.3,5-32.9,13.7v-12h-32.1v131.4h32.9v-79.4c0-17.9,11.7-23.9,21.9-23.9s21.7,6,21.7,23.9
			v79.4h33.1v-80.2c0-17.2,12-23.2,21.9-23.2c10.2,0,21.7,6,21.7,23.9v79.4h32.9v-83.9c0-14.2-3.7-26.9-14.2-37.4
			C1128.9,193.5,1117.2,189,1104,189z"/>
		<path id="Shape_00000009570716707716225690000003909873021124373172_" class="st2" d="M1246.6,270.1c0,17.9-11.7,23.9-21.9,23.9
			c-10.2,0-21.7-6-21.7-23.9v-79.6h-32.9v84.3c0,14.2,2.8,26.9,13.5,37.4c7.5,7.5,17.9,11.7,31.1,11.7c12,0,24.3-4.5,32.9-13.7v12
			h32.1V190.7h-32.9v79.4H1246.6z"/>
		<path id="Shape_00000168116482644688007180000016935238504694175405_" class="st2" d="M1332.9,282.6V142.4h-32.9v141.9
			c0,18.7,11.4,37.6,38.3,37.6h18.7v-27.3h-12.5C1336.2,294.6,1332.9,290.5,1332.9,282.6z"/>
		<path id="Shape_00000152262038276710926420000006786927489075197586_" class="st2" d="M1477.6,252c0-36.1-20.6-62.7-57.5-62.7
			c-34.1,0-57.5,24.3-57.5,67.2c0,53.1,29.6,67.5,60.7,67.5c23.6,0,36.6-7.5,50.1-20.6l-19.9-19.4c-8.2,8.2-15.5,12.2-29.6,12.2
			c-18.7,0-28.8-12.2-28.8-29.1h82.4V252H1477.6z M1395.2,244.3c0.2-5.8,1.3-9.5,3.2-14c3.5-7.7,11-13.7,21.9-13.7
			c11,0,18.1,5.8,21.9,13.7c2,5,2.8,8.2,3.2,14H1395.2z"/>
	</g>
</g>
</svg>
