<?xml version="1.0" encoding="utf-8"?>
<!-- Generator: Adobe Illustrator 26.0.3, SVG Export Plug-In . SVG Version: 6.00 Build 0)  -->
<svg version="1.1" id="Layer_1" xmlns="http://www.w3.org/2000/svg" xmlns:xlink="http://www.w3.org/1999/xlink" x="0px" y="0px"
	 viewBox="0 0 709.83 251.17" style="enable-background:new 0 0 709.83 251.17;" xml:space="preserve">
<style type="text/css">
	.st0{fill-rule:evenodd;clip-rule:evenodd;fill:#000222;}
	.st1{fill-rule:evenodd;clip-rule:evenodd;fill:#DD1100;}
	.st2{fill-rule:evenodd;clip-rule:evenodd;fill:#FFFFFF;}
	.st3{fill-rule:evenodd;clip-rule:evenodd;}
</style>
<g>
	<g>
		<g>
			<path class="st0" d="M143.25,96.36c-4.81-4.83-14.45-10.94-14.45-10.94s-1.92-11.24-3.21-15.4c8.67-8.37,9.97-9.64,18.31-17.67
				C144.55,68.4,144.22,76.75,143.25,96.36z"/>
			<path class="st0" d="M150,130.07c-5.78,1.59-6.43,1.92-12.21,3.54c-6.1-3.54-11.56-5.46-16.69-4.83
				c0.65-3.19,1.59-5.46,2.57-8.35C134.58,118.83,142.6,124.61,150,130.07z"/>
			<path class="st0" d="M238.63,125.58c0,29.98-11.91,58.73-33.09,79.94c-6.08,6.08-12.76,11.39-19.93,15.87
				c0,0-0.02,0.02-0.05,0.02l-38.77-48.31l32.12,3.54c0,0,15.42,1.59,18.94,0c3.21-1.27,20.56-25.69,20.56-25.69
				s-49.78-31.47-66.8-48.81c1.94-29.23-2.24-68.1-2.24-67.78c-12.53,12.51-14.13,14.45-26.66,26.01
				c-5.46-17.67-8.02-23.77-13.48-41.44c-16.4,13.48-28.9,36.3-37.9,62.97c-1.97,2.17-3.86,4.46-5.73,6.9
				c-1.22,1.62-2.44,3.26-3.61,4.96c-2.42,3.44-4.73,7.05-6.95,10.84c-1.57,2.67-3.11,5.41-4.61,8.2
				c-10.44,19.61-19.01,42.09-26.44,62.32c-0.05-0.07-0.1-0.17-0.12-0.25c-7.38-15.22-11.31-32.04-11.31-49.29
				c0-30,11.91-58.76,33.12-79.96s49.96-33.12,79.94-33.12c30,0,58.76,11.91,79.96,33.12C226.72,66.83,238.63,95.58,238.63,125.58z"
				/>
			<path class="st1" d="M143.25,96.36c-4.81-4.83-14.45-10.94-14.45-10.94s-1.92-11.24-3.21-15.4c8.67-8.37,9.97-9.64,18.31-17.67
				C144.55,68.4,144.22,76.75,143.25,96.36z"/>
			<path class="st1" d="M150,130.07c-5.78,1.59-6.43,1.92-12.21,3.54c-6.1-3.54-11.56-5.46-16.69-4.83
				c0.65-3.19,1.59-5.46,2.57-8.35C134.58,118.83,142.6,124.61,150,130.07z"/>
			<path class="st1" d="M238.63,125.58c0,29.98-11.91,58.73-33.09,79.94c-6.08,6.08-12.76,11.39-19.93,15.87
				c0,0-0.02,0.02-0.05,0.02l-38.77-48.31l32.12,3.54c0,0,15.42,1.59,18.94,0c3.21-1.27,20.56-25.69,20.56-25.69
				s-49.78-31.47-66.8-48.81c1.94-29.23-2.24-68.1-2.24-67.78c-12.53,12.51-14.13,14.45-26.66,26.01
				c-5.46-17.67-8.02-23.77-13.48-41.44c-16.4,13.48-28.9,36.3-37.9,62.97c-1.97,2.17-3.86,4.46-5.73,6.9
				c-1.22,1.62-2.44,3.26-3.61,4.96c-2.42,3.44-4.73,7.05-6.95,10.84c-1.57,2.67-3.11,5.41-4.61,8.2
				c-10.44,19.61-19.01,42.09-26.44,62.32c-0.05-0.07-0.1-0.17-0.12-0.25c-7.38-15.22-11.31-32.04-11.31-49.29
				c0-30,11.91-58.76,33.12-79.96s49.96-33.12,79.94-33.12c30,0,58.76,11.91,79.96,33.12C226.72,66.83,238.63,95.58,238.63,125.58z"
				/>
			<path class="st2" d="M143.25,96.36c-4.81-4.83-14.45-10.94-14.45-10.94s-1.92-11.24-3.21-15.4c8.67-8.37,9.97-9.64,18.31-17.67
				C144.55,68.4,144.22,76.75,143.25,96.36z"/>
			<path class="st2" d="M150,130.07c-5.78,1.59-6.43,1.92-12.21,3.54c-6.1-3.54-11.56-5.46-16.69-4.83
				c0.65-3.19,1.59-5.46,2.57-8.35C134.58,118.83,142.6,124.61,150,130.07z"/>
			<path class="st3" d="M150,130.07c-5.78,1.59-6.43,1.92-12.21,3.54c-6.1-3.54-11.56-5.46-16.69-4.83
				c0.65-3.19,1.59-5.46,2.57-8.35C134.58,118.83,142.6,124.61,150,130.07z"/>
			<path class="st0" d="M23.85,174.87c0.02,0.07,0.07,0.17,0.12,0.25c7.43-20.23,16-42.71,26.44-62.32
				C39.89,132.34,31.25,154.74,23.85,174.87z M146.79,173.1l38.77,48.31c0.02,0,0.05-0.02,0.05-0.02L146.79,173.1z"/>
			<path class="st3" d="M214.39,36.78C190.84,13.23,158.9,0,125.58,0C92.29,0,60.35,13.23,36.78,36.78C13.23,60.33,0,92.27,0,125.58
				c0,33.29,13.23,65.23,36.78,88.78c23.57,23.57,55.52,36.8,88.81,36.8c33.31,0,65.26-13.23,88.81-36.8
				c23.55-23.55,36.78-55.49,36.78-88.78C251.17,92.27,237.94,60.33,214.39,36.78z M165.73,231.88
				C96.46,256.92,46.4,210.83,35.71,194.7c0.05-0.15,0.07-0.27,0.1-0.42c9.62-40.67,21.48-89.33,40.64-103.71
				c9.97-17.37,12.86-43.06,30.82-56.54c4.51,13.48,11.59,41.44,16.4,54.92c21.2,21.2,53.32,47.54,74.83,58.46
				c2.24,1.3,5.13,10.29,5.13,10.29l-8.67,10.91l-92.49-9.32c-2.07-0.17-4.14-0.25-6.2-0.25c-5.93,0-12.01,0.67-19.16,1.84
				c4.49-11.24,14.13-20.23,14.13-20.23s-9-5.46-15.75-6.4c1.94-4.51,7.08-10.29,8.37-11.89c-2.59,0.95-21.2,9.29-23.15,16.37
				c9,2.24,15.42,5.13,15.42,5.13s-9.94,9.97-11.89,27.31c0,0,29.55-4.51,51.73-1.62c0.62,0.32,0.95,0.32,1.27,0.32l11.56,0.32
				l36.73,61.15l0.3,0.47C165.78,231.86,165.75,231.88,165.73,231.88z M125.58,70.02c8.67-8.37,9.97-9.64,18.31-17.67
				c0.65,16.05,0.32,24.39-0.65,44c-4.81-4.83-14.45-10.94-14.45-10.94S126.88,74.18,125.58,70.02z M205.54,205.52
				c-6.08,6.08-12.76,11.39-19.93,15.87c0,0-0.02,0.02-0.05,0.02l-38.77-48.31l32.12,3.54c0,0,15.42,1.59,18.94,0
				c3.21-1.27,20.56-25.69,20.56-25.69s-49.78-31.47-66.8-48.81c1.94-29.23-2.24-68.1-2.24-67.78
				c-12.53,12.51-14.13,14.45-26.66,26.01c-5.46-17.67-8.02-23.77-13.48-41.44c-16.4,13.48-28.9,36.3-37.9,62.97
				c-1.97,2.17-3.86,4.46-5.73,6.9c-1.22,1.62-2.44,3.26-3.61,4.96c-2.42,3.44-4.73,7.05-6.95,10.84c-1.57,2.67-3.11,5.41-4.61,8.2
				c-0.65,1.22-1.3,2.47-1.94,3.71c-9.57,18.69-17.54,39.64-24.49,58.61c-0.05-0.07-0.1-0.17-0.12-0.25
				c-7.38-15.22-11.31-32.04-11.31-49.29c0-30,11.91-58.76,33.12-79.96s49.96-33.12,79.94-33.12c30,0,58.76,11.91,79.96,33.12
				c21.18,21.2,33.09,49.96,33.09,79.96C238.63,155.56,226.72,184.31,205.54,205.52z"/>
			<path class="st2" d="M77.09,160.89c7.15-1.17,13.23-1.84,19.16-1.84c2.07,0,4.14,0.07,6.2,0.25l92.49,9.32l8.67-10.91
				c0,0-2.89-9-5.13-10.29c-21.5-10.91-53.62-37.25-74.83-58.46c-4.81-13.48-11.89-41.44-16.4-54.92
				C89.3,47.52,86.41,73.21,76.45,90.57c-19.16,14.38-31.02,63.04-40.64,103.71c-0.02,0.15-0.05,0.27-0.1,0.42
				c10.69,16.12,60.75,62.22,130.02,37.18c0.02,0,0.05-0.02,0.1-0.05l-0.3-0.47l-36.73-61.15l-11.56-0.32c-0.32,0-0.65,0-1.27-0.32
				c-22.18-2.89-51.73,1.62-51.73,1.62c1.94-17.34,11.89-27.31,11.89-27.31s-6.43-2.89-15.42-5.13
				c1.94-7.08,20.56-15.42,23.15-16.37c-1.3,1.59-6.43,7.38-8.37,11.89c6.75,0.95,15.75,6.4,15.75,6.4S81.58,149.65,77.09,160.89z
				 M123.67,120.43c10.91-1.59,18.94,4.19,26.34,9.64c-5.78,1.59-6.43,1.92-12.21,3.54c-6.1-3.54-11.56-5.46-16.69-4.83
				C121.75,125.58,122.69,123.32,123.67,120.43z"/>
		</g>
	</g>
	<g>
		<g>
			<polygon points="312.06,21.36 326.65,21.36 339.89,82.95 350.1,21.36 362.5,21.36 347.81,100.46 333.53,100.46 319.35,35.32 
				305.18,100.46 290.9,100.46 276.2,21.36 288.61,21.36 298.82,82.95 			"/>
			<path d="M400.02,73.47c0-11.15-1.46-17.51-11.36-17.51c-9.9,0-11.36,6.36-11.36,17.51c0,11.15,1.46,17.51,11.36,17.51
				C398.56,90.98,400.02,84.62,400.02,73.47 M365.52,73.47c0-16.05,4.59-27.31,23.14-27.31c18.55,0,23.14,11.26,23.14,27.31
				c0,16.05-4.58,27.31-23.14,27.31C370.11,100.78,365.52,89.52,365.52,73.47"/>
			<path d="M420.75,86.71V21.36h11.67V86.6c0,2.92,1.04,3.96,4.38,3.96v9.49c0,0-1.04,0.21-2.29,0.21
				C425.03,100.26,420.75,95.67,420.75,86.71"/>
			<path d="M480.57,31.26c-1.88-0.63-4.07-1.04-7.71-1.04c-5.21,0-9.38,1.98-9.38,7.92v9.28h14.7v9.9h-14.7v42.21h-11.67V57.32
				h-9.49v-7.19l9.49-2.71V37.1c0-11.15,6.25-16.99,20.22-16.99c3.44,0,6.57,0.52,8.55,1.25V31.26z"/>
			<path d="M514.97,56.79c-1.25-0.42-3.34-0.63-5.73-0.63c-6.15,0-10.74,1.46-13.34,3.13v40.23h-11.67V47.42h6.88l1.88,4.17
				c3.86-3.13,9.69-5.42,16.47-5.42c2.19,0,4.07,0.31,5.52,0.63V56.79z"/>
			<path d="M538.21,75.45c-5.21,0.63-8.23,2.6-8.23,8.02c0,3.96,1.67,7.71,8.02,7.71c4.69,0,7.92-1.35,11.15-3.44V74.2L538.21,75.45
				z M538.93,56.17c-6.77,0-12.3,1.56-16.26,3.13V49.19c4.06-1.77,10.94-3.02,17.09-3.02c17.09,0,21.05,7.5,21.05,18.55v34.81h-6.88
				l-1.88-4.17c-4.17,3.44-10,5.42-15.74,5.42c-13.44,0-17.93-8.34-17.93-16.67c0-11.26,7.3-16.05,19.07-16.99l11.67-0.94v-2.61
				C549.15,58.25,546.65,56.17,538.93,56.17"/>
			<path d="M632,62.74c0-4.9-2.82-6.67-7.4-6.67c-5.11,0-8.55,1.56-11.26,3.23c0.21,1.88,0.31,3.65,0.31,5.73v34.5h-11.67V62.74
				c0-4.9-2.71-6.67-7.4-6.67c-4.8,0-8.23,1.46-10.94,3.02v40.44h-11.67V47.42h6.88l1.88,4.17c4.38-3.44,10.63-5.42,15.74-5.42
				c6.98,0,11.15,1.98,13.34,5.21c4.69-3.33,10.94-5.21,16.68-5.21c12.3,0,17.2,6.67,17.2,16.57v36.79H632V62.74z"/>
		</g>
		<g>
			<polygon points="287.84,193.02 321.82,193.02 321.82,203.75 276.17,203.75 276.17,125.59 287.84,125.59 			"/>
			<path d="M343.91,179.68c-5.21,0.63-8.23,2.6-8.23,8.02c0,3.96,1.67,7.71,8.02,7.71c4.69,0,7.92-1.35,11.15-3.44v-13.55
				L343.91,179.68z M344.64,160.4c-6.77,0-12.3,1.56-16.26,3.13v-10.11c4.06-1.77,10.94-3.02,17.09-3.02
				c17.09,0,21.05,7.5,21.05,18.55v34.81h-6.88l-1.88-4.17c-4.17,3.44-10,5.42-15.74,5.42c-13.44,0-17.93-8.34-17.93-16.67
				c0-11.26,7.3-16.05,19.07-16.99l11.67-0.94v-2.61C354.85,162.48,352.35,160.4,344.64,160.4"/>
			<path d="M409.57,203.75v-35.75c0-5.32-2.71-7.71-8.23-7.71c-5.42,0-9.17,1.46-11.98,3.02v40.44h-11.67v-52.11h6.88l1.88,4.17
				c5.32-3.65,11.26-5.42,16.89-5.42c13.24,0,17.93,6.57,17.93,16.57v36.79H409.57z"/>
			<path d="M452.08,180.72c8.75,0,10.74-4.59,10.74-10.53s-1.98-10.53-10.74-10.53c-8.75,0-10.74,4.59-10.74,10.53
				S443.33,180.72,452.08,180.72 M448.43,205.32c-5.31,0.94-10.11,3.33-10.11,8.34c0,5.84,4.17,8.13,13.76,8.13
				c9.17,0,17.2-2.71,17.2-8.96c0-3.54-1.77-5.11-6.05-5.63L448.43,205.32z M452.08,190c-2.19,0-4.27-0.1-6.05-0.42
				c-0.83,0.83-1.46,1.98-1.46,3.02c0,1.77,0.94,2.71,3.13,3.02l18.86,2.29c10.32,1.25,13.97,5.94,13.97,14.59
				c0,13.44-14.17,18.55-29.29,18.55c-13.97,0-24.08-4.48-24.08-15.22c0-7.09,5.32-11.26,10.84-12.92v-0.1
				c-2.6-1.46-4.06-4.38-4.06-7.19c0-3.86,2.29-6.57,4.69-8.44c-5.94-3.33-8.34-9.38-8.34-16.99c0-11.88,5.84-19.8,21.78-19.8
				c3.75,0,6.88,0.42,9.59,1.25h18.03v7.4l-7.4,2.08c1.04,2.71,1.56,5.73,1.56,9.07C473.87,182.07,468.03,190,452.08,190"/>
			<path d="M498.15,151.64v35.75c0,5.32,2.71,7.71,8.23,7.71c5.42,0,9.17-1.46,11.98-3.02v-40.44h11.68v52.11h-6.88l-1.88-4.17
				c-5.32,3.65-11.26,5.42-16.88,5.42c-13.24,0-17.93-6.56-17.93-16.57v-36.79H498.15z"/>
			<path d="M557.34,179.68c-5.21,0.63-8.23,2.6-8.23,8.02c0,3.96,1.67,7.71,8.02,7.71c4.69,0,7.92-1.35,11.15-3.44v-13.55
				L557.34,179.68z M558.07,160.4c-6.77,0-12.3,1.56-16.26,3.13v-10.11c4.06-1.77,10.94-3.02,17.09-3.02
				c17.09,0,21.05,7.5,21.05,18.55v34.81h-6.88l-1.88-4.17c-4.17,3.44-10,5.42-15.74,5.42c-13.44,0-17.93-8.34-17.93-16.67
				c0-11.26,7.3-16.05,19.07-16.99l11.67-0.94v-2.61C568.28,162.48,565.78,160.4,558.07,160.4"/>
			<path d="M610.91,180.72c8.75,0,10.74-4.59,10.74-10.53s-1.98-10.53-10.74-10.53c-8.75,0-10.74,4.59-10.74,10.53
				S602.15,180.72,610.91,180.72 M607.26,205.32c-5.31,0.94-10.11,3.33-10.11,8.34c0,5.84,4.17,8.13,13.76,8.13
				c9.17,0,17.2-2.71,17.2-8.96c0-3.54-1.77-5.11-6.04-5.63L607.26,205.32z M610.91,190c-2.19,0-4.27-0.1-6.05-0.42
				c-0.83,0.83-1.46,1.98-1.46,3.02c0,1.77,0.94,2.71,3.13,3.02l18.86,2.29c10.32,1.25,13.97,5.94,13.97,14.59
				c0,13.44-14.17,18.55-29.29,18.55c-13.97,0-24.08-4.48-24.08-15.22c0-7.09,5.32-11.26,10.84-12.92v-0.1
				c-2.61-1.46-4.06-4.38-4.06-7.19c0-3.86,2.29-6.57,4.69-8.44c-5.94-3.33-8.34-9.38-8.34-16.99c0-11.88,5.84-19.8,21.78-19.8
				c3.75,0,6.88,0.42,9.59,1.25h18.03v7.4l-7.4,2.08c1.04,2.71,1.56,5.73,1.56,9.07C632.69,182.07,626.85,190,610.91,190"/>
			<path d="M656.03,173.84h20.84c0-7.09-0.42-13.34-9.48-13.34C658.84,160.5,656.45,166.02,656.03,173.84 M667.39,150.39
				c18.34,0,21.26,12.09,21.26,26.47c0,1.77-0.11,3.44-0.21,5.11h-32.41c0.21,7.82,3.02,12.92,13.65,12.92
				c6.57,0,11.99-1.14,16.57-3.13v10c-5.94,2.5-12.72,3.23-18.34,3.23c-17.41,0-23.66-10.42-23.66-27.31
				C644.25,160.92,650.4,150.39,667.39,150.39"/>
			<g>
				<path d="M689.03,142.23h-3.53v-1.93h9.16v1.93h-3.53v9.54h-2.1V142.23z M697.36,140.3h3.25l3.01,7.75l2.95-7.75h3.25v11.47h-2.1
					v-8.77h-0.05l-3.23,8.77h-1.71l-3.23-8.77h-0.05v8.77h-2.1V140.3z"/>
			</g>
		</g>
	</g>
</g>
</svg>
