<?xml version="1.0" encoding="utf-8"?>
<!-- Generator: Adobe Illustrator 26.0.3, SVG Export Plug-In . SVG Version: 6.00 Build 0)  -->
<svg version="1.1" id="Layer_1" xmlns="http://www.w3.org/2000/svg" xmlns:xlink="http://www.w3.org/1999/xlink" x="0px" y="0px"
	 viewBox="0 0 1280 568" style="enable-background:new 0 0 1280 568;" xml:space="preserve">
<style type="text/css">
	.st0{fill:#FFFFFF;stroke:#179AD4;stroke-miterlimit:10;}
	.st1{fill:none;stroke:#179AD4;stroke-width:2;stroke-miterlimit:10;}
	.st2{fill:#179AD4;}
	.st3{fill:#179BD5;}
	.st4{fill:#189BD5;}
	.st5{fill:#FFFFFF;}
</style>
<g>
	<circle class="st0" cx="640.1" cy="284.1" r="235.7"/>
	<circle class="st1" cx="640.1" cy="284.1" r="253.7"/>
	<path class="st2" d="M869.1,339.3c-0.5,0.2-0.9-0.2-1.4-0.3c-16.3-5.5-32.9-10-49.7-13.3c-0.9-0.2-1.2-0.3-1.3-1.3
		c-0.2-3-2.3-5.4-5.1-6.1c-2.9-0.7-5.8,0.5-7.4,3c-0.2,0.3-0.3,0.6-0.6,1c-0.6-0.1-1-0.4-1.5-0.7c-23.8-13.9-49-24.6-75.7-31.9
		c-0.2,0-0.3-0.1-0.4-0.2c-1.2-0.3-1.2-0.3-1.2-1.7c0-2.2-1.5-4.2-3.6-4.8c-2.2-0.6-4.4,0.4-5.5,2.5c-0.7,1.2-0.7,1.2-2.1,0.9
		c-9.6-2.2-19.3-3.9-29-5.2c-14.2-1.8-28.3-2.7-42.6-2.5c-8,0.1-16.1,0.4-24.1,1.1c-0.7,0.1-1.5,0.2-2.2,0.3c-1.2,0.2-2.2,0.2-3.2-1
		c-1-1.4-3.2-0.8-4,0.9c-0.3,0.8-0.7,1.1-1.6,1.2c-8.5,0.9-17,2.4-25.4,4.1c-7,1.5-13.9,3.2-20.8,5.1c-1.3,0.3-1.3,0.3-2-0.8
		c-1.3-2.2-4-3.3-6.4-2.5c-2.4,0.8-4,3.2-3.7,5.8c0.1,1.1,0.1,1.1-0.9,1.5c-9,2.9-17.8,6.3-26.4,10.1c-0.7,0.3-1.3,0.3-2,0.3
		c-6-0.3-11.9-0.4-17.9-0.2c-10,0.3-20,0.9-30,2.3c-5.3,0.7-10.5,1.5-15.8,2.5c-0.3,0.1-0.5,0-0.8,0.1c-0.6,0.2-0.9,0-1.1-0.6
		c-0.5-1.4-1.6-2.2-3-2.2c-2.2-0.2-3.7,1.3-3.8,3.5c0,0.8-0.3,1-1,1.2c-12.6,2.8-25,6.6-37.1,11.1c-0.3,0.1-0.6,0.3-0.9,0.2
		C394.8,248,419.6,148.3,510.7,87.8c84.8-56.5,197.7-51.5,277.5,13.2C871.4,168.6,887.2,268.1,869.1,339.3z"/>
	<path class="st3" d="M802.6,323c-1.9-0.3-3.8-0.5-5.7-0.8c-5.4-0.8-10.8-1.4-16.1-1.9c-7.3-0.7-14.7-1.2-22-1.5
		c-7.4-0.3-14.8-0.4-22.2-0.2c-7.9,0.2-15.7,0.5-23.6,1.2c-7.7,0.6-15.4,1.5-23,2.6c-0.7,0.1-1.1-0.1-1.6-0.6
		c-2.1-2.2-5.1-2.2-7.1,0c-0.5,0.6-0.9,0.8-1.7,0.6c-7.6-1.7-15.2-3.2-22.9-4.5c-5.5-0.9-11-1.6-16.6-2.3
		c-5.8-0.7-11.7-1.2-17.4-1.7c-3.6-0.3-7.3-0.5-10.9-0.7c-9.8-0.5-19.6-0.5-29.4-0.3c-0.9,0-1.6-0.1-2-1.1c-1.5-3.4-5.9-4.1-8.4-1.3
		c-0.7,0.8-1.3,0.9-2.2,0.7c-8.5-2-17.3-3.5-26-4.6c-6.6-0.9-13.4-1.6-20.1-1.8c-0.3,0-0.6,0.1-0.9-0.3c0.2-0.4,0.6-0.4,0.9-0.6
		c7.9-3.4,15.9-6.4,23.9-9.1c0.9-0.3,1.5-0.3,2.2,0.6c1.5,1.8,3.5,2.3,5.7,1.6c2.2-0.7,3.6-2.5,3.7-4.8c0-1,0.5-1.2,1.3-1.4
		c7.7-2.2,15.5-4.1,23.4-5.6c6.6-1.3,13.3-2.4,20-3.4c1-0.2,2.2-0.3,3.2-0.3c0.5-0.1,0.9,0,1.3,0.6c1,2,4.1,1.6,4.7-0.4
		c0.3-0.8,0.8-0.9,1.4-0.9c2.6-0.3,5.2-0.5,7.8-0.7c11-0.8,22-0.9,33.1-0.6c9.2,0.3,18.2,1,27.2,2.2c10.4,1.3,20.9,3.1,31.2,5.5
		c0.8,0.2,1.2,0.4,1.3,1.4c0.3,1.9,1.4,3.2,3.3,3.8c1.8,0.6,3.5,0.2,4.8-1.1c0.2-0.2,0.4-0.3,0.5-0.6c0.3-0.8,0.9-0.7,1.6-0.5
		c2,0.6,4,1.1,6,1.7c24.5,7.2,47.8,17.3,69.9,30.1c0.4,0.3,0.9,0.5,1.3,0.8C802.6,322.8,802.6,322.9,802.6,323z"/>
	<path class="st3" d="M820.5,360.2c0.8,0.7,1.5,0.9,2.2,0.9c5.3,0.8,10.5,1.6,15.7,2.8c6.7,1.4,13.5,2.9,20,4.8
		c0.3,0.1,0.5,0.2,0.8,0.2c0.4,0.1,0.5,0.4,0.3,0.8c-1,2.5-2.1,5.1-3.1,7.6c-0.3,0.5-0.5,0.5-0.9,0.3c-1.4-0.8-2.8-1.5-4.2-2.2
		c-9.8-5.1-20-9.8-30.3-14c-1.8-0.8-3.6-0.9-5.4-1.1c-3.7-0.4-7.4-0.8-11.1-1c-7.5-0.6-15.1-0.9-22.6-0.9c-1.1,0-2.2,0-3.5,0.1
		c-0.5,0-1.1-0.1-1.8,0.3c23.7,12.9,45.6,28.1,65.7,46c-0.1,0.7-0.7,0.9-1.2,1.1c-6.8,3.5-13.5,7.3-20,11.3c-4.7,2.8-9.2,5.9-13.6,9
		c-0.7,0.5-1,0.9-0.7,1.9c0.6,1.6-0.1,3.2-1.3,4.1c-1.3,0.9-3.2,1.1-4.5,0.1c-0.8-0.6-1.3-0.5-2,0c-11.3,8.7-22.1,18.3-32.2,28.7
		c-0.6,0.6-0.8,0.9-0.3,1.8c2,3,1.4,6.5-1.5,8.7c-0.7,0.5-0.8,0.9-0.4,1.6c1,2.4,2.1,4.8,3,7.3c0.2,0.4,0.5,0.9,0.3,1.5
		c-0.7,0.1-0.6-0.5-0.8-0.9c-1-2.5-2-5-3-7.5c-0.4-1.1-0.5-1.1-1.7-0.9c-1.5,0.3-2.8,0-4.2-0.6c-1-0.5-1-0.5-1.8,0.4
		c-3.9,4.5-7.6,9.2-11.2,13.9c-1.5,2-2.8,4-4.3,5.9c-0.4,0.5-0.4,0.9,0.1,1.4c0.8,0.6,1.4,1.4,1.7,2.3c-0.3,0.4-0.9,0.6-1.3,0.8
		c-4.3,2.1-8.7,4-13.2,5.8c-1.4,0.5-1.4,0.5-1.6-0.9c-0.3-1.3-0.3-2.6,0.1-3.8c0.4-1.6,0.4-1.6-1-2.3c-5.4-3.1-10.7-6-16.2-8.8
		c-3.2-1.6-6.5-3.2-9.8-4.8c-0.7-0.3-1.1-0.3-1.8,0.1c-2.3,1.6-5.2,0.3-5.4-2.5c-0.1-1.1-0.8-1.3-1.6-1.6
		c-10.9-4.8-21.9-9.2-33.2-12.9c-16.5-5.5-33.2-9.8-50.2-13.1c-7.5-1.4-15.1-2.6-22.7-3.6c-1.2-0.2-1.2-0.2-1.7,0.9
		c-2.2,4.4-7.2,5.9-11.2,3.1c-0.9-0.6-0.9-0.8-1.9,0.3c-11.8,12.2-22.8,25.1-32.8,38.9c-0.5,0.7-1,1.5-1.6,2.2
		c-0.3,0.3-0.4,1.2-1,0.8c-0.4-0.3,0.2-0.8,0.4-1.1c2.2-2.9,4.2-5.9,6.5-8.7c8.7-11.3,18-22.2,28-32.5c0.9-0.9,0.9-0.9,0.2-2.2
		c-0.5-0.9-0.9-1.9-1-2.9c-0.1-0.7-0.3-0.9-0.9-0.9c-1.9-0.2-3.8-0.3-5.7-0.5c-13-0.9-26.1-0.9-39.1-0.6c-4.7,0.2-9.5,0.4-14.2,0.8
		c-0.8,0.1-1,0.3-1.2,1.1c-0.4,2.1-2,3.5-3.9,3.6c-2.1,0.3-3.9-0.8-4.8-2.7c-0.5-1.1-0.5-1.1-1.8-1c-3.7,0.4-7.5,0.9-11.2,1.3
		c-3.7,0.5-7.4,1.1-11.2,1.7c-0.5,0.1-1,0.3-1.5-0.3c1.3-0.4,2.5-0.5,3.8-0.7c6.7-1,13.5-2,20.3-2.6c0.8-0.1,1.2-0.3,1.4-1.2
		c0.4-2.1,2.1-3.4,4.1-3.6c1.9-0.2,3.7,0.9,4.6,2.8c0.3,0.8,0.7,1,1.6,0.9c2.4-0.3,4.8-0.3,7.3-0.4c8.5-0.4,17-0.7,25.5-0.5
		c7.3,0.2,14.7,0.4,22,0.9c1.3,0.1,2.6,0.2,3.9,0.3c1.1,0.1,1.2,0.1,1.5-1c0.4-1.8,1.4-3.4,2.9-4.4c2.6-1.9,6-2,8.7-0.2
		c0.7,0.4,1,0.6,1.8-0.1c8.5-7.9,17.4-15.3,26.6-22.2c0.5-0.4,0.8-0.8,0.8-1.6c0-1.7,1.3-2.7,2.9-2.2c0.7,0.2,1.1,0.2,1.7-0.3
		c8-5.8,16.4-11.2,25-16.2c0.6-0.3,0.8-0.6,0.6-1.4c-0.3-1.5,0.3-2.8,1.6-3.5c1.3-0.8,2.8-0.8,3.9,0.3c0.8,0.8,1.4,0.4,2.1,0.1
		c5.5-3,11.1-5.8,16.7-8.5c7.2-3.4,14.5-6.4,21.9-9.1c0.8-0.3,1.4-0.6,1.2-1.6c-0.1-0.4,0.1-0.9,0.3-1.4c0.3-1.3,0.3-1.3-0.7-2.2
		c-4.1-3.5-8.4-6.8-12.7-10c-11.3-8.5-23.2-16-35.7-22.6c-0.9-0.4-1.4-0.5-2.1,0.3c-1.3,1.3-3.4,1.1-4.6-0.3
		c-0.7-0.9-1.2-0.8-2.1-0.5c-10.2,3.2-20.3,6.9-30.2,11c-17.7,7.3-34.7,15.9-51.1,25.7c-0.5,0.3-1,0.6-1.6,0.9
		c-0.1,0.6,0.3,0.9,0.4,1.3c1,2.8,0.1,5.8-2.3,7.3c-2.5,1.6-5.7,1.1-7.8-1l-0.1-0.1c-0.8-0.9-0.8-0.9-1.8-0.2
		c-1.8,1.2-3.6,2.4-5.4,3.6c-21.1,14.5-40.6,30.9-58.4,49.3c-1.8,1.9-3.5,3.8-5.4,5.6c-0.3,0.3-0.5,0.5-0.8,0.8
		c-0.1,0.1-0.3,0.2-0.4,0.1c-0.3-0.2-0.2-0.3,0-0.5c0.3-0.3,0.5-0.5,0.7-0.8c9.2-9.9,19-19.4,29.3-28.3c12.7-11,26-21.1,40.1-30.4
		c0.8-0.5,1-0.9,0.9-2c-0.5-2.7,0.4-4.8,2.8-6.3c2.2-1.4,4.7-1.2,6.9,0.5c0.8,0.6,1.2,0.3,1.7-0.1c4.7-2.8,9.6-5.6,14.4-8.3
		c20-11,41-20,62.7-27.3c1.9-0.6,3.8-1.3,5.8-1.8c1-0.3,0.7-1.1,0.9-1.7c0.3-0.7-0.3-0.8-0.7-0.9c-1.6-0.8-3.4-1.6-5.2-2.5
		c0.7-0.3,1.2-0.2,1.7,0.1c1.3,0.6,2.6,1.2,3.9,1.9c0.6,0.3,0.9,0.1,1.5-0.3c1.6-1.1,3.3-0.9,4.6,0.5c0.5,0.6,0.9,0.6,1.6,0.4
		c4.5-1.2,9-2.4,13.5-3.6c0.8-0.3,1.6-0.3,2.7-0.1c-1,0.5-2,0.6-2.9,0.9c-4.3,1.2-8.6,2.3-12.9,3.5c-1.1,0.3-1.1,0.4-1.2,1.5
		c0,0.6,0.3,0.8,0.8,1c1.6,0.9,3.3,1.8,4.9,2.7c15.7,8.6,30.4,18.8,44.1,30.3c1,0.9,1,0.9,2.2,0.2c2-1,4.2-0.7,5.5,1.1
		c0.6,0.8,1.1,0.8,1.9,0.5c9.8-3.2,19.8-5.8,29.9-7.9c6.6-1.4,13.2-2.5,19.9-3.4c6.5-0.9,12.9-1.6,19.4-1.9c0.7,0,1.4-0.2,2-0.2
		c1.5,0,1.2-0.3,1.5-1.2c0.3-1.1-0.4-1.2-1-1.6c-8.4-4.3-16.9-8.3-25.6-11.9c-7.4-3.1-15-6-22.6-8.6c-0.4-0.2-0.9-0.3-1.6-0.6
		c1.4-0.1,2.3,0.2,3.4,0.5c16.1,5.6,31.8,12.3,46.9,20.1c0.9,0.4,1.3,0.3,2-0.3c2.8-2.7,7.3-1.6,8.4,2.1c0.3,0.9,0.7,1.2,1.6,1.1
		c5.8-0.1,11.5,0,17.3,0.3c5.4,0.3,11,0.7,16.4,1.4c1.2,0.2,2.5,0.3,3.9,0.4c-0.3-0.5-0.8-0.6-1.1-0.7
		c-14.2-5.7-28.6-10.4-43.2-14.5c-12-3.3-24.2-6-36.4-8.4c-6-1.1-12.1-2.2-18.2-2.9c-2.5-0.3-4.7-1.3-7.2-2.1
		c-7-2.2-14.1-4.3-21.1-6c-0.3-0.1-0.7-0.2-1-0.3c-0.7-0.2-0.6-0.8-0.7-1.2c-0.1-0.7,0.4-0.6,0.9-0.6c2.8-0.4,5.7-0.9,8.6-1.1
		c4.7-0.5,9.5-1,14.2-1.5c3.3-0.3,6.5-0.5,9.8-0.7c9.1-0.4,18.2-0.8,27.4-0.5c8.9,0.2,17.7,0.6,26.5,1.4c8.3,0.7,16.6,1.7,24.8,2.9
		c0.2,0,0.3,0,0.4,0.1c1.2,0.2,1.2,0.2,1.3,1.5c0.4,5.4,5.9,8.4,10.4,5.6c0.8-0.5,1.2-0.3,1.9,0.1c9.8,6.4,19.2,13.3,28.2,20.6
		c5.5,4.5,11,9.2,16.2,14.1c0.5,0.4,1.2,0.8,0.8,1.8c-0.5,1.3-0.4,1.3-1.9,0.9c-10.4-2.8-20.8-5.1-31.3-6.8
		C825.3,360.8,822.9,360.6,820.5,360.2z"/>
	<path class="st3" d="M622.8,330c-0.8,0.1-1.5,0.3-2.2,0.3c-5.6,0.3-11.1,0.9-16.7,1.6c-5.5,0.6-11,1.4-16.6,2.2
		c-9.6,1.4-19.1,3.2-28.5,5.3c-20.2,4.4-40,10.2-59.3,17.5c-23.6,8.9-46,19.9-67.3,33.3c-0.5,0.3-1,0.6-1.7,1
		c-0.9-1.9-1.9-3.7-2.8-5.6c-1.9-4-3.7-7.9-5.4-12.1c-0.3-0.8-0.3-1.4,0.3-2.1c10.4-12.4,22.4-23,35.9-31.8c0.8-0.5,1.2-0.5,2,0.1
		c2.5,2.2,6,2.5,8.8,0.9c3-1.6,4.3-4.3,4.1-7.8c-0.1-1.1-0.1-1.1,1.1-1.6c10.1-3.2,20.4-6,30.7-8.3c9.8-2.2,19.8-4.1,29.7-5.5
		c6.5-0.9,13-1.7,19.6-2.3c4.6-0.4,9.2-0.8,13.8-1.1c0.4,0,0.9,0,1.2-0.1c0.8-0.1,1,0.2,1.3,0.9c0.6,2.3,2.3,3.8,4.6,4
		c2.3,0.2,4.3-1,5.2-3.4c0.3-0.8,0.5-1,1.4-0.8c13.8,3.8,27.3,8.7,40.4,14.6C622.6,329.7,622.7,329.8,622.8,330z"/>
	<path class="st3" d="M518.6,305.3c-15.9,7.3-31.1,15.5-45.6,25c-0.4-0.3-0.6-0.6-0.8-0.9c-2.2-3.4-6.4-4.6-10-2.9s-5.4,5.6-4.3,9.4
		c0.3,1.2,0.3,1.2-0.9,1.7c-13.4,5.7-26.8,11.3-40.1,17c-0.3,0.1-0.4,0.2-0.7,0.3c-0.3,0.2-0.6,0.1-0.7-0.3
		c-0.1-0.3-0.2-0.6-0.3-0.9c-3-9.7-5.3-19.4-7.1-29.4c-0.2-1.2-0.2-1.2,1-1.6c12.1-4.6,24.4-8.2,36.9-11.1c0.7-0.2,1.2-0.1,1.8,0.5
		c2.1,2.1,4.9,1.5,6-1.3c0.3-0.7,0.7-0.9,1.3-1.1c4.6-0.9,9.2-1.6,13.8-2.2c5.3-0.7,10.4-1.3,15.7-1.7c5.7-0.4,11.5-0.7,17.2-0.9
		C507.5,304.9,513,305.1,518.6,305.3z"/>
	<path class="st3" d="M581.4,313.6c1.1,0,2.2,0,3.4,0c8.6-0.1,17.3-0.1,25.9,0.3c7.7,0.3,15.3,0.9,22.9,1.7
		c14.1,1.5,28,3.6,41.8,6.6c1.4,0.3,2.8,0.6,4.1,0.9c0.3,0.1,0.7,0,0.7,0.4c0,0.5-0.4,0.4-0.8,0.5c-2.2,0.4-4.5,0.8-6.7,1.2
		c-5.3,0.9-10.4,2.1-15.6,3.3c-0.8,0.2-1.6,0.3-2.3,0.3c-7.3,0.2-14.7,0.2-22,0.6c-2.3,0.1-4.7,0.3-7,0.4c-0.7,0.1-1.3-0.2-1.9-0.4
		c-10.8-4.9-21.8-9.2-33.1-12.6c-2.9-0.9-6-1.7-8.9-2.7c-0.2-0.1-0.3-0.2-0.6-0.2C581.3,313.9,581.3,313.8,581.4,313.6z"/>
	<path class="st3" d="M861.3,365.6c-14.4-13.4-29.7-25.4-46.1-36c0.4-0.8,0.9-1.5,1.2-2.2c0.6-1.2,0.5-1.2,1.9-0.9
		c1.8,0.3,3.6,0.7,5.4,1.1c14.8,3.2,29.5,7.3,43.9,12.2c0.2,0.1,0.3,0.1,0.4,0.2c0.8,0.2,0.9,0.5,0.7,1.4c-0.8,3.1-1.6,6.2-2.5,9.2
		c-1.3,4.5-2.8,9-4.4,13.4C861.7,364.4,861.5,364.8,861.3,365.6z"/>
	<path class="st3" d="M473.8,330.9c0.4-0.5,0.9-0.8,1.5-1.1c14.2-9.2,28.9-17.1,44.4-23.9c0.8-0.3,1.6-0.4,2.4-0.4
		c5.9,0.3,11.7,0.8,17.4,1.4c10.2,1.2,20.4,2.8,30.4,5.2c0.9,0.3,1.2,0.5,0.9,1.1c-0.2,0.4-0.5,0.4-0.9,0.4
		c-1.5,0.1-2.8,0.2-4.3,0.3c-9.9,0.6-19.8,1.7-29.6,3.1c-20.6,2.9-40.8,7.5-60.8,13.7c-0.4,0.1-0.8,0.2-1.2,0.3
		C474,331,473.9,330.9,473.8,330.9z"/>
	<path class="st3" d="M421.5,371.6c-1.8-4.3-3.3-8.5-4.7-12.7c-0.3-0.6-0.4-1.3-0.6-1.9c-0.3-0.7-0.2-1.1,0.6-1.4
		c2.2-0.9,4.4-1.8,6.6-2.8c11.2-4.7,22.4-9.5,33.8-14.3c0.4-0.2,0.9-0.3,1.3-0.5c0.3-0.1,0.4,0.1,0.5,0.3c0.2,0.2,0.1,0.4-0.1,0.5
		c-0.3,0.2-0.5,0.3-0.8,0.5c-13.5,8.6-25.4,19.1-35.7,31.4C422.1,370.9,422,371.2,421.5,371.6z"/>
	<path class="st4" d="M712.7,332.4c-17.6-2-35.1-3.2-52.8-3.4c0.1-0.4,0.4-0.4,0.7-0.5c6.1-1.4,12.3-2.6,18.4-3.7
		c0.8-0.2,1.1,0,1.3,0.9c0.5,2.3,2,3.6,4.1,3.9c2.2,0.2,4-0.9,4.8-3c0.3-0.7,0.5-0.9,1.2-0.7c7.3,1.9,14.6,4,21.8,6.3
		C712.4,332.1,712.5,332.3,712.7,332.4z"/>
	<path class="st5" d="M700.9,154.4c-0.6,2.8-1.3,5.4-1.9,8.2c-2.8,12.1-5.4,24.1-8.1,36.2c-0.3,1.2-0.3,1.2-1.4,1.2
		c-5.7,0-11.4,0-17.1,0c-0.2,0-0.3,0-0.5-0.1c-0.2-0.9,0.3-1.8,0.4-2.7c4.6-20.1,9.2-40.2,13.8-60.3c0.2-0.8,0.4-1.5,0.7-2.2
		c1.2-3.4,3.7-5.1,7.2-5.3c3.5-0.2,7.1-0.2,10.5,0s5.8,2.1,7.2,5.2c0.8,1.8,1.2,3.7,1.8,5.6c3.6,12,7.3,24.1,11,36.1
		c0.2,0.5,0.2,1.1,0.8,1.7c0.7-2.3,1.4-4.6,2.1-6.7c3.5-11.5,6.9-23,10.4-34.4c0.3-0.9,0.5-1.7,0.9-2.5c1.5-3.1,4-4.8,7.5-4.9
		c3-0.1,6.1,0,9.2,0c4.2,0,7.1,2.1,8.4,6.1c0.6,2.1,1.1,4.2,1.6,6.3c4,17.4,8,34.6,12,52c0.4,2,0.9,4,1.4,6c-0.5,0.3-1,0.2-1.5,0.2
		c-5.4,0-10.7,0-16,0c-1.5,0-1.5,0-1.8-1.5c-3.2-14-6.4-27.9-9.6-41.9c-0.1-0.5-0.3-0.9-0.3-1.5c-0.4,0.3-0.4,0.8-0.6,1.1
		c-3.9,12.3-7.8,24.5-11.7,36.8c-0.3,0.8-0.5,1.5-0.8,2.2c-1.5,3-4,4.6-7.3,4.7c-2.5,0.1-5,0.1-7.4,0c-3.5-0.1-6-1.7-7.5-4.9
		c-0.9-1.8-1.3-3.8-1.9-5.7c-3.5-11.2-7-22.4-10.4-33.6C701.4,155.2,701.4,154.8,700.9,154.4z"/>
	<path class="st5" d="M536.7,189.1c1.3-2.5,2.5-4.7,3.7-7c1.3-2.4,2.6-4.7,3.8-7.2c0.4-0.8,0.9-1.1,1.8-1.1c4.7,0,9.3,0,14,0
		c0.5,0,1,0.1,1.7-0.2c-3.9-7.4-7.9-14.7-11.7-22.1c-0.6,0.3-0.8,0.9-0.9,1.3c-6.6,12.3-13.1,24.7-19.7,37c-1.6,3-3.2,6-4.8,9.1
		c-0.3,0.7-0.7,1-1.6,1c-6.4,0-12.9,0-19.3,0c-0.2,0-0.4,0-0.6-0.3c0.6-1,1.2-2.2,1.8-3.3c8.7-15.8,17.4-31.5,26.1-47.3
		c2.7-4.8,5.4-9.7,8-14.5c1.4-2.4,3.3-4.2,6-5c0.7-0.2,1.5-0.3,2.2-0.3c1.6,0,3.2,0,4.8,0c3.5-0.1,6,1.5,7.8,4.3
		c0.9,1.6,1.8,3.1,2.7,4.7c11,19.9,22,39.9,33,59.8c0.3,0.5,0.5,1,0.9,1.6c-0.5,0.3-1,0.2-1.5,0.2c-5.9,0-11.8,0-17.7,0
		c-1.1,0-1.6-0.4-2.2-1.3c-1.5-2.8-3.1-5.6-4.6-8.5c-0.4-0.9-0.9-1.1-1.9-1.1c-9.9,0-19.9,0-29.9,0
		C538.1,189.1,537.5,189.1,536.7,189.1z"/>
	<path class="st5" d="M645.6,129.3c6,0,11.9,0,17.9,0c0.3,0,0.7,0,1.1,0c0.6,0,1,0.2,0.9,0.9c0,0.3,0,0.5,0,0.8c0,5,0,9.9,0,14.9
		c0,1.7,0.1,1.6-1.6,1.6c-11.3,0-22.6,0-33.8,0c-3,0-6,0.5-8.7,2c-5.2,2.8-8,7.2-8.7,12.9c-0.4,3.5,0,6.9,1.6,10.1
		c2.8,5.6,7.5,8.4,13.6,9.1c0.9,0.1,1.7,0.1,2.7,0.1c11.1,0,22.3,0,33.4,0c1.7,0,1.7,0,1.7,1.6c0,5.1,0,10.2,0,15.2
		c0,1.4,0,1.4-1.5,1.4c-11.6,0-23.1,0.1-34.6,0c-8.9-0.1-16.9-2.7-23.8-8.4c-6.6-5.5-10.5-12.7-11.7-21.2c-0.9-6.5-0.5-12.9,2-19.1
		c4.4-10.9,12.5-17.5,23.7-20.5c3.4-0.9,6.8-1.4,10.3-1.3C635.2,129.3,640.4,129.3,645.6,129.3z"/>
	<path class="st5" d="M652.9,252.2c-4.2,0-8.4,0-12.6,0c-1.4,0-1.4,0-1.4-1.5c0-2,0-4,0-5.9c0-1.3,0-1.3,1.4-1.3c7.5,0,15,0,22.5,0
		c0.4,0,0.9,0,1.4,0c1.2-0.1,2-0.9,2.1-2.1c0.1-1.2-0.6-2.2-1.8-2.3c-0.5-0.1-1-0.1-1.6-0.1c-4.6,0-9.2,0-13.6,0
		c-2.1,0-4-0.4-5.8-1.4c-3.6-2-5.4-5.9-4.8-10.1c0.6-4.4,3.4-7.5,7.5-8.5c0.9-0.3,1.9-0.3,2.9-0.3c8.1,0,16.2,0,24.4,0
		c1.4,0,1.4,0,1.4,1.5c0,2,0,4,0,5.9c0,1.3,0,1.3-1.3,1.3c-2.7,0-5.3,0-7.9,0c-4.9,0-9.8,0-14.8,0c-0.3,0-0.7,0-1.1,0
		c-1.6,0.1-2.2,0.8-2.2,2.2c0,1.5,0.7,2.2,2.2,2.2c4,0,7.9,0,11.8,0c1.7,0,3.5-0.1,5.3,0.3c5.4,0.9,8.8,5.4,8.5,10.9
		c-0.3,5.3-4.6,9.2-10,9.3C661.2,252.2,657,252.2,652.9,252.2L652.9,252.2z"/>
	<path class="st5" d="M560.9,229.4c0-3.2,0-6.4,0-9.7c0-1.2,0-1.2,1.2-1.2c2.2,0,4.3,0,6.6,0c1.4,0,1.4,0,1.4,1.4
		c0,5.4,0,10.9,0,16.3c0,0.9,0.1,1.6,0.3,2.5c0.6,2.7,2.7,4.7,5.4,4.7c2.9,0.1,5.8,0.2,8.7,0c3.3-0.2,5.5-2.7,5.5-6.1
		c0-5.5,0-11,0-16.5c0-0.4,0-0.9,0-1.2c-0.1-0.7,0.2-1,0.9-1c2.5,0,5,0,7.4,0c0.6,0,0.9,0.2,0.9,0.8c0,0.2,0,0.3,0,0.4
		c0,6,0,12.1,0,18.1c0,4.2-1.6,7.8-4.7,10.5c-2.7,2.2-5.8,3.5-9.2,3.5s-6.8,0.2-10.3,0c-7.4-0.3-14-5.8-14-14.3
		C560.9,235,560.9,232.1,560.9,229.4z"/>
	<path class="st5" d="M719.8,252.2c-3,0-6,0-8.9,0c-0.5,0-0.9-0.3-1-0.7c-0.6-1.1-1.3-2.2-1.8-3.5c-0.3-0.8-0.9-1-1.7-1
		c-4.5,0-8.9,0-13.4,0c-0.3,0-0.6,0-0.9-0.1c-0.3-0.4,0-0.7,0.1-1c0.9-1.7,1.8-3.4,2.7-5.1c0.4-0.9,0.9-1.2,1.9-1.2
		c1.6,0.1,3.3,0,5,0c0.5,0,1,0.1,1.7-0.2c-1.8-3.5-3.6-6.8-5.4-10.3c-0.5,0.3-0.7,0.7-0.9,1.1c-3.6,6.8-7.3,13.6-10.8,20.5
		c-0.5,0.9-1,1.4-2.2,1.3c-2.8-0.1-5.5,0-8.3,0c-0.2-0.5,0.2-0.8,0.3-1.1c5.4-9.8,10.9-19.7,16.2-29.5c1.1-2.1,2.7-3.3,5.1-3
		c0.3,0,0.7,0,1.1,0c2-0.1,3.4,0.8,4.3,2.5c1.4,2.4,2.7,4.8,4,7.2c4.1,7.4,8.2,14.8,12.3,22.3C719.4,251,719.8,251.3,719.8,252.2z"
		/>
	<path class="st5" d="M619.6,218.5c5.1,0,10.2,0,15.2,0c1.9,0,1.7-0.2,1.7,1.8c0,1.9,0,3.7,0,5.6c0,1.3,0,1.3-1.3,1.3
		c-3.2,0-6.3,0-9.5,0c-1.6,0-1.6-0.2-1.6,1.5c0,7.3,0,14.5,0,21.8c0,1.8,0.2,1.7-1.6,1.7c-2.1,0-4.1,0-6.2,0c-1.3,0-1.3,0-1.3-1.3
		c0-4.2,0-8.5,0-12.7c0-3.3,0-6.6,0-9.8c0-1.1,0-1.1-1.1-1.1c-3.3,0-6.6,0-9.9,0c-1.3,0-1.3,0-1.3-1.3c0-2.1,0-4.1,0-6.2
		c0-1.2,0-1.2,1.2-1.2C609.2,218.5,614.5,218.5,619.6,218.5z"/>
	<path class="st5" d="M699.2,479.5c0.1-1.6-0.6-2.7-2-3.4c-1.3-0.7-2.8-0.4-3.8,0.7c-0.6,0.7-1.1,0.6-1.8,0.3
		c-10-4.5-20.1-8.5-30.5-12c-17.3-6-34.8-10.6-52.7-14.1c-7.9-1.5-15.7-2.7-23.6-3.8c-1.1-0.2-1.1-0.2-1.1-1.3c0-1.5-0.4-2.8-1.2-4
		c-0.7-1.1-0.7-1.1,0.3-2.1c3.5-3.1,6.9-6.2,10.4-9.2c5.1-4.3,10.3-8.5,15.5-12.4c0.7-0.5,1.1-0.7,2-0.3c1.6,0.9,3.5-0.6,3.1-2.4
		c-0.2-0.9,0.1-1.2,0.7-1.6c7.9-5.7,16.1-11,24.6-16c0.7-0.4,1.1-0.4,1.7,0.1c1.2,0.9,2.6,1,3.9,0.3c1.3-0.8,1.9-2,1.6-3.5
		c-0.2-0.9,0.3-1.2,0.9-1.5c9.3-5.1,18.9-9.7,28.7-13.6c3.4-1.4,6.8-2.7,10.3-4.1c0.7-0.3,1.1-0.3,1.6,0.4c1.4,1.8,3.5,2.4,5.5,1.3
		c0.9-0.5,1.4-0.3,2,0.3c10.7,9.8,20.5,20.3,29.7,31.5c8.8,10.9,16.7,22.4,23.7,34.5c0.2,0.3,0.3,0.6,0.5,0.9
		c0.3,0.4,0.3,0.8-0.1,1.2c-1.4,1.7-0.3,4.7,2.4,4.3c0.6-0.1,0.9,0.2,1.2,0.7c1.6,3,3.1,6,4.7,9c0.3,0.5,0.3,0.9-0.3,1.3
		c-3.2,2.2-3.4,6.8-1.2,9.2c0.6,0.7,0.1,1-0.3,1.4c-3.1,3.6-6.2,7.3-9.2,11.2c-2.2,2.8-4.3,5.8-6.5,8.7c-0.4,0.6-0.8,0.9-1.6,0.4
		c-3.9-1.7-7.8-0.9-10.5,2.4c-0.8,0.9-0.8,0.9-1.7,0.3c-8.5-5-17.4-9.5-26.2-13.8C699.2,480.6,699.2,480.6,699.2,479.5z"/>
	<path class="st5" d="M841.2,405c-3.4,1.8-6.6,3.5-9.9,5.4c-8.2,4.6-16.2,9.6-23.9,15c-0.9,0.6-1.5,0.9-2.5,0.3
		c-1.3-0.9-2.8-0.6-4.1,0.4c-1.2,0.9-1.8,2.3-1.4,3.9c0.3,0.9,0,1.3-0.7,1.8c-11.7,8.8-22.4,18.5-32.5,28.9
		c-0.6,0.6-0.9,0.8-1.8,0.3c-1.5-0.9-3.1-1.2-4.7-0.7c-0.7,0.3-1,0.1-1.5-0.6c-1.5-2.9-3-5.8-4.5-8.6c-0.3-0.6-0.4-1.1,0-1.8
		c1.2-1.9,0-4.1-2.2-4.1c-0.9,0-1.3-0.3-1.6-1c-11.7-20.3-25.8-38.8-42.3-55.6c-3.7-3.8-7.6-7.5-11.5-11.1c-0.9-0.9-0.9-0.9-0.4-2.1
		c0.2-0.5,0.3-1,0.3-1.5c0.1-1.4,0.1-1.4,1.5-1.8c4-1.3,7.9-2.5,11.9-3.5c11.3-3.1,22.8-5.5,34.4-7.2c8.1-1.2,16.3-1.9,24.5-2.4
		c0.7,0,1,0.1,1.3,0.9c1.5,4.1,5.8,5,8.8,1.9c0.8-0.8,1.1-0.3,1.7,0c8.5,4.7,16.8,9.9,25,15.4c12.3,8.2,23.9,17.2,35,26.9
		c0.3,0.3,0.6,0.5,0.9,0.9C841.2,404.7,841.2,404.8,841.2,405z"/>
</g>
</svg>
