<?xml version="1.0" encoding="utf-8"?>
<!-- Generator: Adobe Illustrator 26.0.3, SVG Export Plug-In . SVG Version: 6.00 Build 0)  -->
<svg version="1.1" id="Layer_1" xmlns="http://www.w3.org/2000/svg" xmlns:xlink="http://www.w3.org/1999/xlink" x="0px" y="0px"
	 viewBox="0 0 878.9 260" style="enable-background:new 0 0 878.9 260;" xml:space="preserve">
<style type="text/css">
	.st0{fill:none;}
	.st1{fill:#4486F3;}
	.st2{fill:#777777;}
	.st3{fill:#E94538;}
	.st4{fill:#F9BC09;}
	.st5{fill:#36A755;}
</style>
<g>
	<path class="st0" d="M597.2,72.7c0.1,14.5,0,28.9,0,43.4c0,7.2,0,14.5,0,21.7c0-7.2,0-14.5,0-21.7
		C597.3,101.7,597.3,87.2,597.2,72.7z"/>
	<path class="st1" d="M159.6,106.7c-7.3,0.1-14.6,0-21.8,0c-7.4,0-14.7,0.1-22.1,0c-1.8,0-2.4,0.5-2.3,2.3c0.1,2.8,0,5.6,0,8.4
		c0.1,4.2-0.8,4,4,4c9.4,0,18.7,0,28.1,0c1.8,0,2.2,0.4,1.8,2.2c-0.7,3.6-1.6,7.2-3.5,10.4c-7.4,12.3-21.3,17.7-36.4,15.2
		c-18.2-2.9-30.6-17.5-31.4-35.9c-0.5-13.7,4.7-24.9,15.9-32.8c14.2-10.1,32.5-9,45.9,2.3c1.2,1,1.9,1,2.9-0.1
		c2.4-2.6,4.9-5.1,7.4-7.5c1.2-1.1,1-1.9-0.1-2.9c-12.7-11.2-27.6-15.1-44.1-12.2c-23.1,4.1-40.7,23-43.3,45
		c-1.6,13.1,1.1,25.1,8.7,35.9c10,14.2,23.8,22,41.1,23.2c10,0.7,19.6-0.9,28.5-5.9c19-10.6,25.4-29.2,23.3-49.2
		C161.9,107.1,161.3,106.6,159.6,106.7z"/>
	<path class="st1" d="M380.4,100.3c0-1.6-0.6-1.8-2-1.8c-2.9,0.1-5.8,0-8.6,0c-3.6,0-3.6,0-3.7,3.7c0,0.4,0.2,1-0.4,1.3
		c-0.2-0.1-0.4-0.1-0.6-0.3c-8.4-7.8-18.2-8.7-28.3-4.6c-20.7,8.3-27.8,33.2-15,51.6c7.4,10.7,20.7,16,32.9,13
		c4.3-1,7.9-3.3,11.2-6.8c0,3.3,0.3,6.2-0.1,8.9c-0.7,5.8-3.1,10.8-8.6,13.6c-9.4,4.8-20.1,1.3-25.1-8.2c-0.8-1.5-1.4-1.7-2.9-1
		c-3,1.4-6,2.7-9.1,3.7c-2,0.7-1.9,1.6-1,3.1c5.7,10.6,14.4,16.8,26.4,17.8c8.3,0.7,16.3-0.9,23.1-6.2c8.4-6.5,11.5-15.7,11.7-25.7
		C380.6,141.7,380.4,121,380.4,100.3z M362.5,144.3c-7.3,8.7-20.1,8.5-27.3-0.4c-9.1-11.2-4.5-28.7,8.6-33.2
		c1.8-0.6,3.6-0.8,5.1-0.8c9-0.1,16.7,6.9,18,16.1C367.9,132.7,366.9,139,362.5,144.3z"/>
	<path class="st2" d="M819.4,73c0-0.4,0-0.8,0-1.2c0.1-1.1-0.4-1.6-1.5-1.5c-2.8,0.1-5.6,0.1-8.4,0c-1.6-0.1-2,0.5-2,2.1
		c0.1,9,0,17.9,0,26.9c0,2.8,0.2,5.5,0.4,8.2c-0.6,0.2-0.7-0.1-0.9-0.4c-7.6-10.6-25.3-13.7-37.8-3.9c-16.5,12.9-17.5,39.6-1.8,53.7
		c13.4,12.1,32.1,8.1,39.6-2.6c0.2-0.3,0.4-0.5,0.9-0.1c0,2,0.1,4.2,0,6.3c-0.1,1.4,0.5,1.8,1.8,1.8c2.2-0.1,4.5-0.2,6.7,0
		s3-0.5,3-2.9C819.3,130.5,819.4,101.7,819.4,73z M806,140.9c-3.2,8-10.3,12.5-18.8,12.3c-7.7-0.2-14.7-5.6-17.5-13.5
		c-1.1-3-1.6-6-1.5-9.2c0.1-6.2,1.7-11.8,6.1-16.4c9.2-9.7,24.8-7.4,30.9,4.5C808.8,125.9,809,133.4,806,140.9z"/>
	<path class="st3" d="M201.3,96.5c-19.2,0-33.8,14.5-33.9,33.8c-0.1,19.1,14.9,33.9,34.2,33.9c18.9,0,33.8-14.9,33.8-33.8
		C235.5,111,220.9,96.5,201.3,96.5z M213.6,146c-5.4,4.7-11.7,6.1-18.5,3.5c-7.4-2.8-11.3-8.5-12.4-16.2c-0.2-1.1-0.2-2.2-0.2-3.1
		c0.3-7.6,3.1-13.7,9.6-17.6c8.5-5.2,19.6-2.5,25,6C222.7,127.3,221.3,139.3,213.6,146z"/>
	<path class="st4" d="M274.7,96.4c-18.8,0.4-33.4,15.1-33.3,34.2c0.1,18.6,15.2,33.6,33.9,33.5c19.6-0.1,34.2-14.7,34.1-34
		C309.7,111.2,294,96,274.7,96.4z M289.4,144.2c-4.8,5.5-11,7.7-18.1,6c-7.6-1.8-12.1-7-14.2-14.4c-0.5-1.8-0.7-3.6-0.6-5.1
		c0-9.7,5.2-17.3,13.3-19.9c10.7-3.3,21.5,2.8,24.1,14.6C295.5,132.2,294.2,138.7,289.4,144.2z"/>
	<path class="st3" d="M444.4,96.5c-14.9,0-26.8,9.4-30.8,24.4c-5.2,19.9,6.4,39.1,26.3,42.7c13.5,2.4,24.7-2.1,33.3-12.8
		c1-1.2,0.9-2-0.4-2.8c-2.1-1.3-4.1-2.7-6.2-4.1c-3.7-2.4-3.7-2.4-6.6,0.7c-8.3,9-22.5,8-29-1.9c-1-1.6-1-2.3,0.9-3
		c12.3-5,24.5-10.1,36.7-15.2c2-0.9,5.2-1.1,5.8-2.9c0.7-1.9-1.2-4.3-2.2-6.4C466.6,103.7,457.8,96.6,444.4,96.5z M455.8,117.4
		c-8.8,3.6-17.7,7.3-26.5,11c-1.6,0.7-1.9,0.2-1.9-1.3c0.1-9.1,8.7-17.5,18.7-17.5c3.6,0.3,7.6,1.6,10.4,5.4
		C457.4,116.2,457.2,116.8,455.8,117.4z"/>
	<path class="st2" d="M586.9,146.3c-1.4-1.2-2.6-2.6-3.9-3.9c-3-3.1-3-3.1-6.2,0c-14.2,13.9-37.4,13.7-50.9-0.5
		c-9.4-9.9-11.5-22.1-8.6-35.1c2.9-13.1,10.9-22,23.9-25.6c13.1-3.6,25.2-1.7,34.9,8.9c1,1.1,1.5,0.9,2.4,0c1.8-1.9,3.7-3.8,5.7-5.5
		c1.3-1.1,1.1-1.7,0-2.8c-8.9-9.2-19.8-13.4-34.5-13.6c-18.2,0.9-33.8,9.4-41.7,28.4c-7.8,18.7-5.4,36.8,8.2,52.1
		c12.2,13.8,28.2,17.7,46,14.2c9.7-1.9,17.9-6.6,24.6-13.9C587.9,148,588,147.3,586.9,146.3z"/>
	<path class="st2" d="M661.6,99.2c-11.6-4.1-22.8-2.6-32.4,5.5c-8.9,7.5-11.9,17.6-11.2,29c1.2,20,18.8,33.7,38.4,30
		c15.8-3,26.1-15.9,26.1-33.3c0.1-2-0.1-4.5-0.6-6.9C679.3,111.7,672.9,103.1,661.6,99.2z M657.4,151.8
		c-12.5,4.8-25.8-3.4-27.4-16.8c-0.8-6.7-0.1-13.2,4.1-18.7c5-6.5,11.7-9.4,19.8-7.7c8.7,1.8,13.7,7.6,15.9,16
		c0.5,2,0.6,4.1,0.6,5.9C670.4,140.6,665.4,148.8,657.4,151.8z"/>
	<path class="st2" d="M744.6,99.1c-2.5,0.2-5,0.2-7.4,0c-1.9-0.1-2.3,0.6-2.2,2.3c0.1,11,0.1,21.9,0,32.9c-0.1,5.6-2,10.7-6.1,14.7
		c-4.5,4.4-9.9,5.1-15.8,3.5c-5.4-1.4-8.1-5.3-9.3-10.5c-0.5-2.1-0.6-4.3-0.6-6.4c0-11.4,0-22.7,0-34.1c0-1.7-0.4-2.5-2.2-2.4
		c-2.7,0.1-5.4,0.1-8.2,0c-1.1,0-1.6,0.4-1.5,1.5c0.1,13.8-0.4,27.7,0.2,41.5c0.8,16,14.8,25.5,30.1,21.1c5.5-1.6,10-4.8,13.9-9.3
		c0,2.1,0.1,4.1,0,6.2c-0.1,1.8,0.6,2.2,2.2,2.1c2.4-0.1,4.8-0.1,7.2,0c1.7,0.1,2.2-0.5,2.2-2.2c-0.1-6.8,0-13.6,0-20.4
		c0-12.7,0-25.4,0-38.1C747.1,99.6,746.5,99,744.6,99.1z"/>
	<path class="st5" d="M405.4,91.2c0-8.8-0.1-17.6,0-26.4c0-1.8-0.5-2.3-2.3-2.3c-3.4,0.1-6.7,0.2-10.1,0c-2.1-0.1-2.7,0.5-2.7,2.6
		c0.1,15.7,0.1,31.5,0.1,47.2s0,31.5,0,47.2c0,2,0.5,2.6,2.5,2.5c3.3-0.2,6.6-0.2,9.8,0c2.1,0.1,2.7-0.5,2.7-2.6
		C405.4,136.7,405.4,114,405.4,91.2z"/>
	<path class="st5" d="M390.5,112.4c0-15.7,0-31.5-0.1-47.2C390.5,80.9,390.5,96.7,390.5,112.4s0,31.5,0,47.2
		C390.5,143.9,390.5,128.2,390.5,112.4z"/>
	<path class="st2" d="M609.2,105.9c0-10.9-0.1-21.8,0-32.6c0-2.3-0.4-3.4-3-3.1c-2.1,0.2-4.3,0.2-6.5,0c-2-0.2-2.6,0.5-2.5,2.5
		c0.1,14.5,0,28.9,0,43.4c0,7.2,0,14.5,0,21.7s0,14.5-0.1,21.7c0,2.2,0.6,2.8,2.7,2.6c2.1-0.2,4.3-0.2,6.5,0s2.9-0.5,2.8-2.7
		C609.1,141.6,609.2,123.8,609.2,105.9z"/>
</g>
</svg>
