<?xml version="1.0" encoding="utf-8"?>
<!-- Generator: Adobe Illustrator 26.0.3, SVG Export Plug-In . SVG Version: 6.00 Build 0)  -->
<svg version="1.1" id="Layer_1" xmlns="http://www.w3.org/2000/svg" xmlns:xlink="http://www.w3.org/1999/xlink" x="0px" y="0px"
	 viewBox="0 0 1200 460" style="enable-background:new 0 0 1200 460;" xml:space="preserve">
<style type="text/css">
	.st0{fill:none;}
	.st1{fill:#EE2824;}
</style>
<g>
	<path class="st0" d="M1050,357.1c0-2.1-2-2.7-3.9-2.7h-3.8v5.6h3.4C1048,359.9,1050,359.9,1050,357.1z"/>
	<path class="st0" d="M1045.7,348c-7.1,0-12.7,5.7-12.7,13.1c0,7.6,5.6,13.1,12.7,13.1c7.1,0,12.7-5.6,12.7-13.1
		C1058.4,353.7,1052.8,348,1045.7,348z M1050.2,370.2l-4.8-7.8h-3.1l0,7.8h-2.7v-18.1h6.9c4.3,0,6.4,1.6,6.4,5.1c0,3.2-2,4.6-4.6,5
		l5,7.9H1050.2z"/>
	<path class="st1" d="M1014.4,124.2L1014.4,124.2C986.2,96,948.7,80.5,908.7,80.5H288.1c-82.5,0-149.6,67-149.6,149.5
		c0,39.9,15.6,77.5,43.9,105.7c28.2,28.3,65.7,43.9,105.7,43.9h620.6c40,0,77.5-15.6,105.8-43.9c28.3-28.2,43.8-65.8,43.8-105.7
		C1058.2,189.9,1042.7,152.4,1014.4,124.2z M1009.8,330.2c-25.7,27-60,41.7-96.2,41.7H282.7c-36.3,0-70.5-14.8-96.3-41.7
		c-25.6-26.9-39.8-62.7-39.8-100.8c0-78.6,61.1-142.5,136.1-142.5h630.9c36.2,0,70.5,14.8,96.2,41.8c25.6,26.8,39.8,62.7,39.8,100.7
		C1049.6,267.5,1035.4,303.3,1009.8,330.2z"/>
	<path class="st1" d="M1009.8,128.6c-25.7-27-60-41.8-96.2-41.8H282.7c-75,0-136.1,64-136.1,142.5c0,38.1,14.1,73.9,39.8,100.8
		c25.8,27,60.1,41.7,96.3,41.7h630.9c36.2,0,70.5-14.8,96.2-41.7c25.6-26.9,39.8-62.7,39.8-100.8
		C1049.6,191.4,1035.4,155.5,1009.8,128.6z M1003.4,324.7L1003.4,324.7c-25.3,25.3-59,39.2-94.7,39.2H288.1
		c-35.8,0-69.4-14-94.7-39.2c-25.3-25.4-39.3-59-39.3-94.8c0-73.9,60.1-133.9,134-133.9h620.6c35.7,0,69.4,13.8,94.7,39.1
		c25.2,25.4,39.3,59,39.3,94.8C1042.7,265.8,1028.6,299.4,1003.4,324.7z"/>
	<path class="st1" d="M908.7,109.4L908.7,109.4l-620.6,0c-66.5,0-120.4,54-120.4,120.5c0,66.5,53.9,120.5,120.4,120.5h620.6
		c66.5,0,120.4-54,120.4-120.5C1029.1,163.4,975.2,109.4,908.7,109.4z M429.5,299.8h-56l-1.8-47.4h-42.3l-0.8,46.6h-57.9l-7-136H332
		l-1.8,61.4h41.6l-2.6-60.6h66.5L429.5,299.8z M499,251.6h-41.1l-0.8-25.3H499V251.6z M690.8,202.2H589v23.2h73l-0.9,27.1l-73.1-0.1
		v23.2h99.3l-0.9,25.2H528.6l-6.2-136h170.1L690.8,202.2z M752.8,252.4h-40.2v-26.1h40.2V252.4z M920.7,241.1
		c12.6,2.8,20.3,9.3,20.3,25.9c0,32.8-31,34.7-47.6,34.7l-110.6-0.1l0,0l-6.1-136.9h128.4c25.1,0,44.2,14.9,44.2,39.1
		c0,26.6-21.2,35.7-28.7,36.2L920.7,241.1z"/>
	<path class="st1" d="M1045.7,345.5c-8.6,0-15.9,6.6-15.9,15.5c0,9.1,7.3,15.7,15.9,15.7c8.6,0,15.9-6.6,15.9-15.7
		C1061.5,352.1,1054.3,345.5,1045.7,345.5z M1045.7,374.2c-7.1,0-12.7-5.5-12.7-13.1c0-7.3,5.6-13.1,12.7-13.1
		c7.1,0,12.7,5.7,12.7,13.1C1058.4,368.6,1052.8,374.2,1045.7,374.2z"/>
	<path class="st1" d="M1052.9,357.2c0-3.5-2.1-5.1-6.4-5.1h-6.9v18.1h2.7l0-7.8h3.1l4.8,7.8h3.1l-5-7.9
		C1050.9,361.8,1052.9,360.4,1052.9,357.2z M1042.3,359.9v-5.6h3.8c1.8,0,3.9,0.6,3.9,2.7c0,2.8-2,2.9-4.4,2.9H1042.3z"/>
	<path class="st1" d="M867.2,251.9h-23.3v25h18.9c9.5,0,18.3-4.8,18.3-12.8C881.1,255.9,874.2,251.9,867.2,251.9z"/>
	<path class="st1" d="M867.6,199.9h-23.2v28.8c0,0,13.3-0.2,21.3,0c9.6,0.2,20.4-5.9,20.4-13.9C886.1,205.2,876.9,199.9,867.6,199.9
		z"/>
</g>
</svg>
