<?xml version="1.0" encoding="utf-8"?>
<!-- Generator: Adobe Illustrator 26.0.3, SVG Export Plug-In . SVG Version: 6.00 Build 0)  -->
<svg version="1.1" id="Layer_1" xmlns="http://www.w3.org/2000/svg" xmlns:xlink="http://www.w3.org/1999/xlink" x="0px" y="0px"
	 viewBox="0 0 2435.3 821.3" style="enable-background:new 0 0 2435.3 821.3;" xml:space="preserve">
<style type="text/css">
	.st0{fill:#0049B1;}
</style>
<g>
	<path class="st0" d="M1793.6,468.3c73.9,92.7,147,184.4,221,277.3c0-3.3,0-5.2,0-7.2c0-217.3,0-434.5-0.1-651.8
		c0-5.2,1.5-6.1,6.3-6.1c124.2,0.1,248.3,0.1,372.5,0c4.8,0,6.4,0.8,6.4,6.1c-0.3,32.2-0.2,64.3,0,96.5c0,4.4-0.9,5.8-5.6,5.8
		c-82.8-0.2-165.7-0.1-248.5-0.3c-5.2,0-6.1,1.5-6.1,6.3c0.2,52.7,0.2,105.3,0,158c0,4.4,0.9,5.8,5.6,5.8
		c82.2-0.2,164.3-0.1,246.5-0.2c4.5,0,5.8,1,5.8,5.7c-0.2,32.5-0.2,65,0,97.5c0,4.2-1,5.2-5.2,5.2c-82.3-0.1-164.6-0.1-247-0.2
		c-4.4,0-5.8,0.9-5.7,5.6c0.2,53.5,0.2,107,0,160.5c0,4.2,1.1,5.1,5.2,5.1c83-0.1,166-0.1,249-0.2c4.7,0,6.1,1,6,5.9
		c-0.3,32.2-0.3,64.3,0,96.5c0,5-1.5,6.4-6.1,5.8c-2.1-0.3-4.3-0.1-6.5-0.1c-122.2,0.1-244.3,0.1-366.5,0.2c-50.3,0-100.6,0-151,0.1
		c-3.5,0-5.7-0.9-7.9-3.8c-65.2-88.4-130.5-176.8-195.8-265.1c-2.9-4-4.2-7.8-4.1-12.8c0.2-35.8,0.2-71.6,0-107.5
		c0-4.2,0.7-5.7,5.3-5.7c42,0,84-0.3,126-0.5c37.8-0.2,72.8-29.2,78.1-66.3c6.4-45.2-18.6-81.2-63.9-89.5c-8.7-1.6-17.5-2-26.4-2
		c-44.8,0-89.7,0.1-134.5-0.1c-4.8,0-6,1-6,5.9c0.1,180.3,0.1,360.6,0.3,540.8c0,5.4-1.6,6.4-6.6,6.4c-37.7-0.2-75.3-0.2-113,0
		c-4.1,0-5.5-0.6-5.5-5.3c0.1-218.3,0.1-436.5,0-654.8c0-4.3,1.2-5.1,5.2-5.1c95.7,0.1,191.3-0.9,287,0.5
		c51.9,0.7,97.7,19.5,136.4,55.5c31.5,29.2,46.5,65.3,50.5,106.9c3,31.2,1.7,62.1-6.5,92.6c-8.3,30.8-25.9,55.1-49.6,76.1
		c-30.6,27.1-66,43-105.7,50.6C1820.2,465.1,1807.7,467.6,1793.6,468.3z"/>
	<path class="st0" d="M643.7,330.8c-2.9,7.8-5.6,15-8.2,22.2c-47.8,129.3-95.6,258.6-143.3,388c-1.3,3.6-3,4.6-6.7,4.6
		c-30.2-0.2-60.3-0.2-90.5,0c-3.5,0-5.1-0.9-6.4-4.3c-28.9-78.6-57.9-157.1-86.9-235.6c-21-56.9-42-113.8-63-170.6
		c-0.4-1.1-0.9-2.1-1.3-3.2c-1.6,0.5-1.4,1.8-1.6,2.8c-17.9,94.4-35.9,188.8-53.8,283.3c-7.8,41.2-15.6,82.3-23.2,123.5
		c-0.6,3.3-1.9,4.2-5.2,4.2c-41.5-0.1-83-0.1-124.5,0c-4.2,0-4.3-1-3.6-4.7c17.6-93.5,35-187,52.5-280.5
		c18.6-99.5,37.3-199,56-298.6c4.8-25.8,9.9-51.6,14.5-77.5c0.6-3.3,1.9-3.9,4.8-3.9c40.3,0.1,80.7,0.1,121,0c3.2,0,4.4,1,5.6,4
		c49.3,125.9,98.6,251.8,148,377.7c4.3,11,8.7,21.9,13.2,33.5c10-25.8,19.8-50.8,29.5-75.9c43.3-111.6,86.7-223.3,130-335
		c1.3-3.4,2.9-4.4,6.4-4.4c39.8,0.1,79.7,0.2,119.5,0c4.1,0,5.3,1.3,6,5c18.7,97.5,37.5,195,56.4,292.4
		c16.3,84.2,32.6,168.5,48.9,252.7c7.1,36.9,14.3,73.8,21.6,110.6c0.7,3.7-0.2,4.4-3.7,4.4c-43-0.1-86-0.1-129,0
		c-3.2,0-4.2-1.2-4.7-4c-8.7-46.4-17.5-92.8-26.3-139.2c-9.5-50.2-19-100.3-28.5-150.4c-7.6-39.9-15.1-79.7-22.6-119.6
		C644.5,332.1,644.3,331.9,643.7,330.8z"/>
	<path class="st0" d="M1204.8,466.8c0-90.8,0-181.6,0.1-272.4c0-4.9-1.3-5.9-6-5.9c-45.2,0.2-90.3,0.1-135.5,0.2
		c-3.9,0-4.9-0.9-4.9-4.9c0.2-32.8,0.2-65.6,0-98.5c0-3.7,0.7-5,4.8-5c135.6,0.1,271.3,0.1,406.9,0c3.9,0,5,1,5,4.9
		c-0.2,32.8-0.2,65.6,0,98.5c0,3.9-1,4.9-5,4.9c-45.3-0.1-90.6,0-136-0.2c-4.7,0-5.6,1.3-5.6,5.8c0.1,181.6,0.1,363.2,0.1,544.8
		c0,6.4,0,6.4-6.7,6.4c-37.3,0-74.6-0.1-112,0.1c-4.4,0-5.5-1-5.5-5.4C1204.9,649.1,1204.8,558,1204.8,466.8z"/>
	<path class="st0" d="M1017.7,413.6c0,108.8,0,217.6,0.1,326.4c0,4.6-1.2,5.6-5.7,5.6c-38-0.2-76-0.2-114,0c-3.9,0-5.4-0.5-5.4-5
		c0.1-218.4,0.1-436.9,0-655.3c0-4,1.2-4.9,5-4.9c38.3,0.1,76.7,0.2,115,0c4.4,0,5,1.4,5,5.3C1017.7,195,1017.7,304.3,1017.7,413.6z
		"/>
</g>
</svg>
