<?xml version="1.0" encoding="utf-8"?>
<!-- Generator: Adobe Illustrator 26.0.3, SVG Export Plug-In . SVG Version: 6.00 Build 0)  -->
<svg version="1.1" id="Layer_1" xmlns="http://www.w3.org/2000/svg" xmlns:xlink="http://www.w3.org/1999/xlink" x="0px" y="0px"
	 viewBox="0 0 1198 494" style="enable-background:new 0 0 1198 494;" xml:space="preserve">
<style type="text/css">
	.st0{fill:none;}
	.st1{fill:#393437;}
	.st2{fill:#3A3538;}
	.st3{fill:#3B3639;}
	.st4{fill:#02B0EF;}
</style>
<g>
	<path class="st0" d="M149.2,394.4c0.1-1.5,0.3-3,0.4-4.5C149.5,391.4,149.3,392.9,149.2,394.4c0,0,0,0.2-0.1,0.3L149.2,394.4z"/>
	<path class="st0" d="M382,392.4c0,0.5-0.1,0.9-0.1,1.4c0.1,0.3,0.1,0.7,0.2,1c-0.1-0.3-0.1-0.7-0.2-1
		C381.9,393.3,381.9,392.8,382,392.4z"/>
	<path class="st1" d="M266.3,282.4c0.3-15.1,7.5-27.1,22.6-32.8c13.9-5.2,29.6-1.6,39,8.7c8,8.8,9.9,19.7,10,31.1
		c0.1,33,0,65.9,0,98.9c0,1.8,0.2,3.6,0.3,5.4c14.6,0,29.1,0,43.7,0c0-0.5,0.1-0.9,0.1-1.4c0.1-1.4,0.2-2.7,0.2-4.1
		c0-31.3,0-62.6,0-93.8c0-6.7-0.1-13.3-1.1-19.9c-3.8-25.3-15.2-45.9-38-58.9c-28.4-16.2-72.8-14.2-97.8,10.1
		c-1.5,1.4-2.3,2.2-4.4,0.3c-19.2-17.6-42.2-22.7-67.5-20.2c-33,3.3-57.9,25-65.5,57.3c-0.9,3.6-0.5,7.5-2.7,10.8c0,1.7,0,3.3,0,5
		c1.7,1.6,1,3.8,1,5.7c0,36.4,0,72.8,0,109.2c10.5,1.1,21.1,0.2,31.7,0.5c3.8,0.1,7.6,0.1,11.4,0.2c0.1-1.5,0.3-3,0.4-4.4
		c0-0.5,0-1,0-1.5c0-33.6,0-67.2,0-100.8c0-5.2,0.5-10.3,2-15.2c5.5-17.9,20.8-27.3,40.3-24.6c17,2.4,29.2,17.2,29.3,36.2
		c0.2,24,0.1,47.9,0,71.9c0,13-0.1,25.9-0.2,38.9c15,0,30,0,45,0C266.1,357.3,265.6,319.8,266.3,282.4z"/>
	<path class="st1" d="M928.1,340c1.8-4.3,0.6-4.9-3.5-4.9c-12.3,0.2-24.7,0.3-37,0c-4.5-0.1-7.7,1.1-10.8,4.4
		c-18.2,19.4-64.9,19.5-77.9-17.3c-2.2-6.3-2.2-6.3,4.2-6.3c42.1,0,84.3,0,126.4,0.1c3.7,0,5.1-0.7,5.4-4.8c0.8-9.8,1-19.6-0.2-29.4
		c-3.4-28.9-15.3-52.9-40.7-68.7c-21-13.1-44.3-16-68.3-12.1c-29.9,4.9-52.3,20.6-65.1,48.5c-10.2,22.2-11.5,45.5-7.8,69.3
		c5.8,38,31.7,65.5,69.1,73.4c3.3,0.7,6.8,0.4,9.8,2.4c7,0,14,0,21,0c3-1.9,6.6-1.3,9.9-2C893.9,386.6,915.9,369.4,928.1,340z
		 M798.1,274.6c6.6-22.2,28.3-35.8,52-32.3c19.9,2.9,33,13.6,39,32.9c1.1,3.5,0.3,4.2-3.2,4.2c-7.2-0.1-14.3-0.1-21.5-0.1
		s-14.3,0-21.5,0c-3.5,0-6.9,0-10.4,0c-10.4,0-20.7-0.1-31.1,0.1C797.1,279.5,797,278.1,798.1,274.6z"/>
	<path class="st2" d="M594.9,388.3c-0.2-10.3-0.2-20.6,0-30.9c0.1-3.3-1.1-3.9-4-3.8c-6,0.2-12,0.2-18,0
		c-7.6-0.2-11.8-4.4-11.9-11.8c-0.1-31.1,0-62.2-0.1-93.4c0-3.4,1.3-3.7,4.1-3.7c8.7,0.1,17.3-0.1,26,0.1c3.1,0.1,4-0.8,3.9-3.9
		c-0.2-10.1-0.2-20.3,0-30.4c0.1-3.5-1.2-4.1-4.3-4.1c-8.3,0.2-16.7-0.1-25,0.1c-3.6,0.1-4.8-0.7-4.7-4.6c0.2-16.5,0-32.9,0.2-49.4
		c0-3.5-0.6-4.9-4.5-4.8c-11.8,0.3-23.7,0.3-35.5,0c-3.8-0.1-4.8,1-4.7,4.7c0.2,16.3-0.1,32.6,0.2,48.9c0.1,4.3-1.3,5.4-5.3,5.1
		c-4.3-0.3-8.7,0-13-0.1c-2.7-0.1-3.9,0.6-3.8,3.6c0.2,10.5,0.1,21,0,31.4c0,2.6,0.8,3.5,3.4,3.4c4.7-0.2,9.3,0.2,14-0.1
		c3.7-0.3,4.8,0.8,4.7,4.6c-0.2,27-0.1,53.9-0.1,80.9c0,10.3,0.1,20.6,0.4,30.9c0.4,18.3,9.7,28.8,27.7,32c2.1,0.4,4.7-0.4,6.4,1.6
		c3,0,6,0,9,0c3.7-1.6,7.3-1.6,11,0c2.7,0,5.3,0,8,0c3.9-1.8,8.3-1.4,12.3-2.3C593.8,391.9,595,391.2,594.9,388.3z"/>
	<path class="st3" d="M460.6,389.9c0-50.6,0-101.2,0-151.8c0-8.5-0.1-17,0.1-25.5c0-2.7-0.6-3.7-3.6-3.7c-12.7,0.2-25.3,0.1-38,0
		c-2.4,0-3,0.6-3,3.1c0.1,37.1,0.1,74.2,0.1,111.4c0,23.8-0.1,47.6-0.1,71.4c15,0,30,0,45,0C460.1,393.2,460.6,391.5,460.6,389.9z"
		/>
	<path class="st3" d="M1076.9,101.5c0.5,11.6,9.3,21.6,20.9,23.4c11.9,1.9,22.7-4.6,27.6-16.5c0.3-0.8,0.3-2.1,1.6-2.3
		c0-3.3,0-6.7,0-10c-2.8-8.1-6.6-15.3-15.2-18.8c-1.9-0.8-4.2-0.6-5.8-2.2c-2.7,0-5.3,0-8,0c-0.4,0.3-0.7,0.7-1.1,0.8
		C1083.8,79.4,1076.4,88.8,1076.9,101.5z M1101.6,79.7c11.2-0.1,20.6,9.1,20.8,20.5c0.1,11.2-9.4,20.7-20.6,20.7
		c-10.9,0-20.3-9.3-20.6-20.3C1080.8,89.6,1090.4,79.8,1101.6,79.7z"/>
	<path class="st3" d="M106.1,284.5c0-1.9,0.8-4-1-5.7c0,38.3,0,76.6,0,114.9c0.3,0,0.7,0,1,0C106.1,357.3,106.1,320.9,106.1,284.5z"
		/>
	<path class="st3" d="M338.2,393.7c-0.1,0.3-0.1,0.7-0.2,1c14.7,0,29.3,0,44,0c-0.1-0.3-0.1-0.7-0.2-1
		C367.3,393.7,352.8,393.7,338.2,393.7z"/>
	<path class="st3" d="M629.2,393.7c-0.1,0.3-0.2,0.7-0.3,1c14.7,0,29.3,0,44,0c-0.1-0.3-0.1-0.7-0.2-1
		C658.3,393.7,643.8,393.7,629.2,393.7z"/>
	<path class="st3" d="M629.2,393.7c-0.1,0.3-0.2,0.7-0.3,1C629.1,394.4,629.2,394.1,629.2,393.7L629.2,393.7z"/>
	<path class="st3" d="M560,394.7c3.7,0,7.3,0,11,0C567.3,393.1,563.7,393.1,560,394.7z"/>
	<path class="st4" d="M993.7,83.7c-51.8,13.6-103.4,27.6-155.1,41.5c-14.1,3.8-28.1,7.6-42.2,11.4c0,0.3,0,0.6,0,1
		c1.3,0.4,2.5,0.8,3.8,1.2c58,15.4,116,30.9,174,46.1c10.6,2.8,20.9,7.1,32,7.1c23.3,0,40.9-10.3,51-31.2
		c9.9-20.5,7.6-40.8-6.8-58.5C1035.8,84.3,1016.4,77.8,993.7,83.7z M997.4,158.9c-4.5,1.8-9,3.4-13.4,5.4c-3,1.4-3.6,0.4-3.8-2.6
		c-0.6-14.2-0.6-14.2,12.4-19.5c3-1.2,6-2.4,10.2-4.1c-7.1-2.9-12.9-5.5-18.9-7.7c-2.8-1-4-2.4-3.7-5.4c0.3-3.5,0.2-7,0-10.5
		c-0.2-3.4,0.9-3.9,4-2.6c18.6,7.6,37.3,15.1,55.9,22.6c2.5,1,4.9,2,8.6,3.6C1030.9,145.3,1014.2,152.1,997.4,158.9z"/>
	<path class="st1" d="M673.1,388.3c0-28.1,0-56.2,0-84.3c0-4.8,0.3-9.6,0.8-14.4c2.5-21.1,16.6-37,37-41.2c5.6-1.2,11.3-1,16.9-0.8
		c2.8,0.1,3.8-0.9,3.7-3.7c-0.2-8.6-0.1-17.3-0.1-25.9c0-12.9,0-12.9-13-12.7c-47.6,0.5-83.6,33.4-88.6,80.4
		c-1.5,14.1-1,28.2-1,42.4c0,21.9,0.2,43.9,0.4,65.8c14.5,0,29,0,43.6,0C672.9,391.9,673.1,390.1,673.1,388.3z"/>
	<path class="st3" d="M1090.9,111.9c0,1.3,0.1,2.3,1.8,2.2c1.4-0.1,2.8,0.1,2.7-1.9c0-0.8-0.1-1.7,0-2.5c0.5-2.2-1.6-5.5,1.4-6.6
		c3.7-1.3,5.6,1.7,7.3,4.5c0.6,1,1.2,2,1.8,3c2.2,3.8,2.2,3.8,7,2.7c-2-3.9-4.3-7.5-7.5-11c4.2-2.1,7.2-4.8,6-9.5
		c-1.3-5-5.5-5.7-9.9-5.7c-2.7,0-5.3,0.1-8,0c-1.8-0.1-2.8,0.2-2.7,2.4C1091,96.9,1090.9,104.4,1090.9,111.9z M1100,90.9
		c3.2,0.2,7.1,0,6.6,4.1c-0.5,4.5-4.7,3.5-7.9,3.9c-4.2,0.5-3.2-2.5-3.4-4.8C1094.9,89.8,1098,91,1100,90.9z"/>
</g>
</svg>
