<?xml version="1.0" encoding="utf-8"?>
<!-- Generator: Adobe Illustrator 26.0.3, SVG Export Plug-In . SVG Version: 6.00 Build 0)  -->
<svg version="1.1" id="Layer_1" xmlns="http://www.w3.org/2000/svg" xmlns:xlink="http://www.w3.org/1999/xlink" x="0px" y="0px"
	 viewBox="0 0 1500 704" style="enable-background:new 0 0 1500 704;" xml:space="preserve">
<style type="text/css">
	
		.st0{clip-path:url(#SVGID_00000096020232716882082150000014318708433676758929_);fill:url(#SVGID_00000029749656548247793860000007912615397894148242_);}
	.st1{clip-path:url(#SVGID_00000158001882075815757210000003931715194774252168_);}
	.st2{clip-path:url(#SVGID_00000111166710870704217890000007420678712492063147_);}
	.st3{clip-path:url(#SVGID_00000180348909304544916130000000300865147958892687_);}
	.st4{clip-path:url(#SVGID_00000047018330856413880770000007797965493315422641_);}
	.st5{clip-path:url(#SVGID_00000131346100739025569530000010825003477605695903_);}
	.st6{clip-path:url(#SVGID_00000005266423737567562410000001969252134522979994_);}
	.st7{clip-path:url(#SVGID_00000072253407522208886510000018319144029940866216_);}
</style>
<g>
	<g>
		<g>
			<g>
				<defs>
					<path id="SVGID_1_" d="M67.2,186.3c-11,0-19.9,8.9-19.9,19.9v40.1v20.6v20.7V477c0,11,8.9,19.9,19.9,19.9H109
						c11,0,19.9-8.9,19.9-19.9V287.7c0-11,8.9-19.9,19.8-19.9h107.9c11,0,19.9,8.9,19.9,19.9v107.7c0,11-8.9,19.8-19.9,19.8h-62.1
						c-11,0-19.9,8.9-19.9,19.9v41.7c0,11,8.9,19.9,19.9,19.9h62.1c11,0,19.9,0,19.9,0h19.9h41.8c11,0,19.9-8.9,19.9-19.8V206.2
						c0-11-8.9-19.9-19.9-19.9h-35.5c-11,0-19.9,0-19.9,0s-8.9,0-19.9,0H67.2L67.2,186.3z"/>
				</defs>
				<clipPath id="SVGID_00000134966464498044541360000006730247355574742444_">
					<use xlink:href="#SVGID_1_"  style="overflow:visible;"/>
				</clipPath>
				
					<linearGradient id="SVGID_00000108297756812023183140000018198488387143302808_" gradientUnits="userSpaceOnUse" x1="1484.2101" y1="860.917" x2="1489.1713" y2="860.917" gradientTransform="matrix(51.9091 45.5959 45.5959 -51.9091 -116234.4062 -22764.7832)">
					<stop  offset="0" style="stop-color:#AECC50"/>
					<stop  offset="4.900000e-03" style="stop-color:#AECC50"/>
					<stop  offset="0.6995" style="stop-color:#00853D"/>
					<stop  offset="0.9951" style="stop-color:#00603E"/>
					<stop  offset="1" style="stop-color:#00603E"/>
				</linearGradient>
				
					<polygon style="clip-path:url(#SVGID_00000134966464498044541360000006730247355574742444_);fill:url(#SVGID_00000108297756812023183140000018198488387143302808_);" points="
					182.6,32.2 512,321.5 222.6,650.9 -106.7,361.6 				"/>
			</g>
		</g>
	</g>
	<g>
		<g>
			<g>
				<defs>
					<rect id="SVGID_00000097495895110119452860000016557158534476774293_" x="31" y="171" width="1450.4" height="341.3"/>
				</defs>
				<clipPath id="SVGID_00000148658066882537639500000003540248916580828093_">
					<use xlink:href="#SVGID_00000097495895110119452860000016557158534476774293_"  style="overflow:visible;"/>
				</clipPath>
				<path style="clip-path:url(#SVGID_00000148658066882537639500000003540248916580828093_);" d="M427.1,318.2H454v17.2h0.6
					c7.4-9,24.8-20.1,51.7-20.1c44.3,0,65.7,28.9,65.7,61.7c0,33.4-19.5,66-65.4,66c-26.9,0-42.1-8.4-50.9-19.6h-0.6v66.9h-28.1
					V318.2L427.1,318.2z M500.4,333.5c-30.5,0-45.1,23.2-45.1,45.9c0,20.3,13.2,45.4,44.8,45.4c30.2,0,42.8-27,42.1-46.2
					C542.7,356.7,530.8,333.5,500.4,333.5"/>
			</g>
		</g>
		<g>
			<g>
				<defs>
					<rect id="SVGID_00000067196296370876000330000003456820947352119737_" x="31" y="171" width="1450.4" height="341.3"/>
				</defs>
				<clipPath id="SVGID_00000060012707465066539520000011361441404017274011_">
					<use xlink:href="#SVGID_00000067196296370876000330000003456820947352119737_"  style="overflow:visible;"/>
				</clipPath>
				<path style="clip-path:url(#SVGID_00000060012707465066539520000011361441404017274011_);" d="M607.1,326.8
					c14-6.7,30.7-11.5,50.2-11.5c43.6,0,61.3,17.2,61.3,50.4v50.4c0,13.8,0.6,20.3,1.2,23.9h-26.3v-15.7h-0.6
					c-6.6,7.4-21.5,18.6-47.2,18.6c-32.9,0-55.9-11.5-55.9-38c0-30.6,41.8-40.2,70.9-40.2c11.1,0,18.8,0,29.9,0.4
					c0-21.1-9.6-31.8-37.7-31.8c-15.9,0-32.9,4.8-44.3,12.4L607.1,326.8z M690.4,382c-6,0-11.9-0.4-18-0.4
					c-15.2,0-52.9,1.9-52.9,23.4c0,12.9,15.5,19.8,28.4,19.8c27.8,0,42.4-13.8,42.4-32V382z"/>
			</g>
		</g>
		<g>
			<g>
				<defs>
					<rect id="SVGID_00000101809526450820448390000007208453405648622011_" x="31" y="171" width="1450.4" height="341.3"/>
				</defs>
				<clipPath id="SVGID_00000152231970162295251770000003157991209251105715_">
					<use xlink:href="#SVGID_00000101809526450820448390000007208453405648622011_"  style="overflow:visible;"/>
				</clipPath>
				<path style="clip-path:url(#SVGID_00000152231970162295251770000003157991209251105715_);" d="M744.8,473.1
					c3.6,1,8.4,1.9,13.2,1.9c25.1,0,33.5-27.8,33.5-30.1c0-2.7-3.6-8.8-5.3-12.9l-51.7-113.8h30.7l41,100.9h0.6l41.9-100.9h28.4
					L821,442.8c-10.4,23.4-21.5,50.4-58.5,50.4c-8.9,0-14-1-19.1-1.7L744.8,473.1z"/>
			</g>
		</g>
		<g>
			<g>
				<defs>
					<rect id="SVGID_00000106840876769259116350000003124645506023499659_" x="31" y="171" width="1450.4" height="341.3"/>
				</defs>
				<clipPath id="SVGID_00000170246027912925718690000008803297839287222699_">
					<use xlink:href="#SVGID_00000106840876769259116350000003124645506023499659_"  style="overflow:visible;"/>
				</clipPath>
				<path style="clip-path:url(#SVGID_00000170246027912925718690000008803297839287222699_);" d="M992.6,338.7
					c-10.7-3.6-21.5-5.2-30.5-5.2c-31.4,0-48.9,22.4-48.9,45.6c0,21.7,14.6,45.6,50.9,45.6c9.6,0,21.5-2.3,30.2-6.9l2,20.1
					c-11.6,4.3-25.1,5-35.2,5c-46.1,0-77.7-28.9-77.7-63.8c0-37,31.1-63.8,77.7-63.8c11.4,0,26,2.1,34,4.8L992.6,338.7z"/>
			</g>
		</g>
		<g>
			<g>
				<defs>
					<rect id="SVGID_00000178886585266399700770000010170510351693552806_" x="31" y="171" width="1450.4" height="341.3"/>
				</defs>
				<clipPath id="SVGID_00000096746606886472932630000002505660578723095957_">
					<use xlink:href="#SVGID_00000178886585266399700770000010170510351693552806_"  style="overflow:visible;"/>
				</clipPath>
				<path style="clip-path:url(#SVGID_00000096746606886472932630000002505660578723095957_);" d="M1086.1,315.3
					c46.4,0,77.4,26.8,77.4,63.8c0,34.9-31.7,63.8-77.4,63.8c-46.1,0-77.7-28.9-77.7-63.8C1008.4,342.1,1039.5,315.3,1086.1,315.3
					 M1086.1,424.8c32.9,0,47.6-23.9,47.6-45.6c0-23.2-17.7-45.6-47.6-45.6c-30.2,0-47.8,22.4-47.8,45.6
					C1038.3,401,1052.9,424.8,1086.1,424.8"/>
			</g>
		</g>
		<g>
			<g>
				<defs>
					<rect id="SVGID_00000142889330734169038660000006224471821122156943_" x="31" y="171" width="1450.4" height="341.3"/>
				</defs>
				<clipPath id="SVGID_00000121990167552619984600000013820820843071404417_">
					<use xlink:href="#SVGID_00000142889330734169038660000006224471821122156943_"  style="overflow:visible;"/>
				</clipPath>
				<path style="clip-path:url(#SVGID_00000121990167552619984600000013820820843071404417_);" d="M1191,318.2h26.3v17.7h0.6
					c10.7-14.1,26-20.5,48.4-20.5c17.7,0,35.3,7.1,43.3,23.7c10.4-17.4,33.5-23.7,47.2-23.7c38.8,0,52.9,20.1,52.9,46.6v78.2h-28.1
					v-72.7c0-15-4.5-33.9-27.2-33.9c-28.7,0-40,22.4-40,45.2v61.4h-28.1v-72.7c0-15-4.5-33.9-27.2-33.9c-28.7,0-40.1,22.4-40.1,45.2
					v61.4h-28.1L1191,318.2L1191,318.2z"/>
			</g>
		</g>
		<g>
			<g>
				<defs>
					<rect id="SVGID_00000173849661445375423880000010277386710502621573_" x="31" y="171" width="1450.4" height="341.3"/>
				</defs>
				<clipPath id="SVGID_00000164494932990690589130000011634923490736948913_">
					<use xlink:href="#SVGID_00000173849661445375423880000010277386710502621573_"  style="overflow:visible;"/>
				</clipPath>
				<path style="clip-path:url(#SVGID_00000164494932990690589130000011634923490736948913_);" d="M1425.5,339.4
					c0-11.4,9.3-20.6,20.6-20.6c11.4,0,20.7,9.3,20.7,20.6c0,11.4-9.3,20.6-20.7,20.6C1434.7,360.1,1425.5,350.8,1425.5,339.4
					 M1461.7,339.4c0-9.7-7-16.7-15.6-16.7c-8.6,0-15.6,7-15.6,16.7c0,9.7,7,16.7,15.6,16.7C1454.8,356.1,1461.7,349.1,1461.7,339.4
					 M1438.2,327.6h8.7c5.6,0,8.6,1.9,8.6,6.9c0,4-2.2,6-6.2,6.3l6.3,10.2h-4.5l-6.1-10.1h-2.6V351h-4.4V327.6L1438.2,327.6z
					 M1442.6,337.7h3.8c2.6,0,4.8-0.3,4.8-3.5c0-2.8-2.6-3.2-4.8-3.2h-3.8V337.7L1442.6,337.7z"/>
			</g>
		</g>
	</g>
</g>
</svg>
