<?xml version="1.0" encoding="utf-8"?>
<!-- Generator: Adobe Illustrator 26.0.3, SVG Export Plug-In . SVG Version: 6.00 Build 0)  -->
<svg version="1.1" id="Layer_1" xmlns="http://www.w3.org/2000/svg" xmlns:xlink="http://www.w3.org/1999/xlink" x="0px" y="0px"
	 viewBox="0 0 1500 538" style="enable-background:new 0 0 1500 538;" xml:space="preserve">
<style type="text/css">
	
		.st0{clip-path:url(#SVGID_00000150083955832055597900000015533693450677304724_);fill:url(#SVGID_00000119823867255389516150000014736569761045303216_);}
	.st1{clip-path:url(#SVGID_00000083778569210853212620000016365583731505666450_);}
	.st2{clip-path:url(#SVGID_00000062156364096681869940000006087641399987084479_);}
	.st3{clip-path:url(#SVGID_00000011717711614731297600000009590455355759946138_);}
	.st4{clip-path:url(#SVGID_00000000923071304027776130000017252245194439483033_);}
	.st5{clip-path:url(#SVGID_00000174562506306990002520000013191309179394094721_);}
	.st6{clip-path:url(#SVGID_00000072252948288505360470000013547371172503399095_);}
	.st7{clip-path:url(#SVGID_00000154407653292627377800000006617597362643164339_);}
</style>
<g>
	<g>
		<g>
			<defs>
				<path id="SVGID_1_" d="M102.3,123c-10.3,0-18.7,8.4-18.7,18.7v37.7v19.4v19.5v178c0,10.3,8.4,18.7,18.7,18.7h39.3
					c10.3,0,18.7-8.4,18.7-18.7v-178c0-10.3,8.4-18.7,18.6-18.7h101.4c10.3,0,18.7,8.4,18.7,18.7v101.2c0,10.3-8.4,18.6-18.7,18.6
					h-58.4c-10.3,0-18.7,8.4-18.7,18.7V396c0,10.3,8.4,18.7,18.7,18.7h58.4c10.3,0,18.7,0,18.7,0h18.7h39.3
					c10.3,0,18.7-8.4,18.7-18.6V141.7c0-10.3-8.4-18.7-18.7-18.7h-33.4c-10.3,0-18.7,0-18.7,0s-8.4,0-18.7,0L102.3,123L102.3,123z"
					/>
			</defs>
			<clipPath id="SVGID_00000125585314719449024870000002035895299936087428_">
				<use xlink:href="#SVGID_1_"  style="overflow:visible;"/>
			</clipPath>
			
				<linearGradient id="SVGID_00000091700997077854879900000010169039443612829835_" gradientUnits="userSpaceOnUse" x1="1039.3702" y1="-212.6863" x2="1044.0338" y2="-212.6863" gradientTransform="matrix(51.9091 45.5959 -45.5959 51.9091 -63551.1914 -36196.2695)">
				<stop  offset="0" style="stop-color:#AECC50"/>
				<stop  offset="4.900000e-03" style="stop-color:#AECC50"/>
				<stop  offset="0.6995" style="stop-color:#00853D"/>
				<stop  offset="0.9951" style="stop-color:#00603E"/>
				<stop  offset="1" style="stop-color:#00603E"/>
			</linearGradient>
			
				<polygon style="clip-path:url(#SVGID_00000125585314719449024870000002035895299936087428_);fill:url(#SVGID_00000091700997077854879900000010169039443612829835_);" points="
				210.8,-21.8 520.4,250.1 248.4,559.7 -61.1,287.8 			"/>
		</g>
	</g>
	<g>
		<g>
			<defs>
				<rect id="SVGID_00000138567008301146862950000008946037227181408642_" x="68.3" y="108.6" width="1363.4" height="320.8"/>
			</defs>
			<clipPath id="SVGID_00000098187014042985482630000001946084929007805352_">
				<use xlink:href="#SVGID_00000138567008301146862950000008946037227181408642_"  style="overflow:visible;"/>
			</clipPath>
			<path style="clip-path:url(#SVGID_00000098187014042985482630000001946084929007805352_);" d="M440.6,247h25.3v16.2h0.6
				c7-8.5,23.3-18.9,48.6-18.9c41.6,0,61.8,27.2,61.8,58c0,31.4-18.3,62-61.5,62c-25.3,0-39.6-7.9-47.8-18.4H467v62.9h-26.4
				L440.6,247L440.6,247z M509.5,261.4c-28.7,0-42.4,21.8-42.4,43.1c0,19.1,12.4,42.7,42.1,42.7c28.4,0,40.2-25.4,39.6-43.4
				C549.3,283.2,538.1,261.4,509.5,261.4"/>
		</g>
		<g>
			<defs>
				<rect id="SVGID_00000003100577106081926220000011623877091701498785_" x="68.3" y="108.6" width="1363.4" height="320.8"/>
			</defs>
			<clipPath id="SVGID_00000067934846267079727330000015239972128083449519_">
				<use xlink:href="#SVGID_00000003100577106081926220000011623877091701498785_"  style="overflow:visible;"/>
			</clipPath>
			<path style="clip-path:url(#SVGID_00000067934846267079727330000015239972128083449519_);" d="M609.8,255.1
				c13.2-6.3,28.9-10.8,47.2-10.8c41,0,57.6,16.2,57.6,47.4v47.4c0,13,0.6,19.1,1.1,22.5h-24.7v-14.8h-0.6
				c-6.2,7-20.2,17.5-44.4,17.5c-30.9,0-52.5-10.8-52.5-35.7c0-28.8,39.3-37.8,66.6-37.8c10.4,0,17.7,0,28.1,0.4
				c0-19.8-9-29.9-35.4-29.9c-14.9,0-30.9,4.5-41.6,11.7L609.8,255.1z M688.1,307c-5.6,0-11.2-0.4-16.9-0.4
				c-14.3,0-49.7,1.8-49.7,22c0,12.1,14.6,18.6,26.7,18.6c26.1,0,39.9-13,39.9-30.1V307z"/>
		</g>
		<g>
			<defs>
				<rect id="SVGID_00000011030398129690318410000007856312793432595105_" x="68.3" y="108.6" width="1363.4" height="320.8"/>
			</defs>
			<clipPath id="SVGID_00000045610821741655739800000009630045560204963970_">
				<use xlink:href="#SVGID_00000011030398129690318410000007856312793432595105_"  style="overflow:visible;"/>
			</clipPath>
			<path style="clip-path:url(#SVGID_00000045610821741655739800000009630045560204963970_);" d="M739.3,392.6
				c3.4,0.9,7.9,1.8,12.4,1.8c23.6,0,31.5-26.1,31.5-28.3c0-2.5-3.4-8.3-5-12.1l-48.6-107h28.9l38.5,94.8h0.6l39.4-94.8h26.7
				l-52.8,117.1c-9.8,22-20.2,47.4-55,47.4c-8.4,0-13.2-0.9-18-1.6L739.3,392.6z"/>
		</g>
		<g>
			<defs>
				<rect id="SVGID_00000067930298000994827760000009385787075646913668_" x="68.3" y="108.6" width="1363.4" height="320.8"/>
			</defs>
			<clipPath id="SVGID_00000129920707635342056060000002940165898856653702_">
				<use xlink:href="#SVGID_00000067930298000994827760000009385787075646913668_"  style="overflow:visible;"/>
			</clipPath>
			<path style="clip-path:url(#SVGID_00000129920707635342056060000002940165898856653702_);" d="M972.2,266.3
				c-10.1-3.4-20.2-4.9-28.7-4.9c-29.5,0-46,21.1-46,42.9c0,20.4,13.7,42.9,47.8,42.9c9,0,20.2-2.2,28.4-6.5l1.9,18.9
				c-10.9,4-23.6,4.7-33.1,4.7c-43.3,0-73-27.2-73-60c0-34.8,29.2-60,73-60c10.7,0,24.4,2,32,4.5L972.2,266.3z"/>
		</g>
		<g>
			<defs>
				<rect id="SVGID_00000040553948921983086770000000747222148934665649_" x="68.3" y="108.6" width="1363.4" height="320.8"/>
			</defs>
			<clipPath id="SVGID_00000061430790390131823820000011378596037482493602_">
				<use xlink:href="#SVGID_00000040553948921983086770000000747222148934665649_"  style="overflow:visible;"/>
			</clipPath>
			<path style="clip-path:url(#SVGID_00000061430790390131823820000011378596037482493602_);" d="M1060.1,244.3
				c43.6,0,72.8,25.2,72.8,60c0,32.8-29.8,60-72.8,60c-43.3,0-73-27.2-73-60C987.1,269.5,1016.3,244.3,1060.1,244.3 M1060.1,347.2
				c30.9,0,44.7-22.5,44.7-42.9c0-21.8-16.6-42.9-44.7-42.9c-28.4,0-44.9,21.1-44.9,42.9C1015.2,324.8,1028.9,347.2,1060.1,347.2"/>
		</g>
		<g>
			<defs>
				<rect id="SVGID_00000072237809657332997320000012152187087476826813_" x="68.3" y="108.6" width="1363.4" height="320.8"/>
			</defs>
			<clipPath id="SVGID_00000156548691805630550810000007839698950345488828_">
				<use xlink:href="#SVGID_00000072237809657332997320000012152187087476826813_"  style="overflow:visible;"/>
			</clipPath>
			<path style="clip-path:url(#SVGID_00000156548691805630550810000007839698950345488828_);" d="M1158.7,247h24.7v16.6h0.6
				c10.1-13.3,24.4-19.3,45.5-19.3c16.6,0,33.2,6.7,40.7,22.3c9.8-16.4,31.5-22.3,44.4-22.3c36.5,0,49.7,18.9,49.7,43.8v73.5h-26.4
				v-68.3c0-14.1-4.2-31.9-25.6-31.9c-27,0-37.6,21.1-37.6,42.5v57.7h-26.4v-68.3c0-14.1-4.2-31.9-25.6-31.9
				c-27,0-37.7,21.1-37.7,42.5v57.7h-26.4L1158.7,247L1158.7,247z"/>
		</g>
		<g>
			<defs>
				<rect id="SVGID_00000073694471458487325780000018371627145714278290_" x="68.3" y="108.6" width="1363.4" height="320.8"/>
			</defs>
			<clipPath id="SVGID_00000103983883155087571650000006265117469351963551_">
				<use xlink:href="#SVGID_00000073694471458487325780000018371627145714278290_"  style="overflow:visible;"/>
			</clipPath>
			<path style="clip-path:url(#SVGID_00000103983883155087571650000006265117469351963551_);" d="M1379.1,266.9
				c0-10.7,8.7-19.4,19.4-19.4c10.7,0,19.5,8.7,19.5,19.4c0,10.7-8.7,19.4-19.5,19.4C1387.8,286.4,1379.1,277.6,1379.1,266.9
				 M1413.2,266.9c0-9.1-6.6-15.7-14.7-15.7c-8.1,0-14.7,6.6-14.7,15.7c0,9.1,6.6,15.7,14.7,15.7
				C1406.7,282.6,1413.2,276,1413.2,266.9 M1391.1,255.8h8.2c5.3,0,8.1,1.8,8.1,6.5c0,3.8-2.1,5.6-5.8,5.9l5.9,9.6h-4.2l-5.7-9.5
				h-2.4v9.5h-4.1L1391.1,255.8L1391.1,255.8z M1395.2,265.3h3.6c2.4,0,4.5-0.3,4.5-3.3c0-2.6-2.4-3-4.5-3h-3.6L1395.2,265.3
				L1395.2,265.3z"/>
		</g>
	</g>
</g>
</svg>
