<svg id="Layer_1" data-name="Layer 1" xmlns="http://www.w3.org/2000/svg" viewBox="0 0 252.33 48.63"><defs><style>.cls-1{fill:#08bed5;}.cls-2{fill:#007179;}</style></defs><path class="cls-1" d="M36.87,39.77A11.48,11.48,0,0,1,51,31.44l.06,0,0,0a0,0,0,0,1,0,0h0a12.63,12.63,0,0,0-9.5,12.12,13.2,13.2,0,0,0,4.14,10.11h0v0h0A11.38,11.38,0,0,1,41.51,52a11.49,11.49,0,0,1-4.64-12.23" transform="translate(-23.46 -23.21)"/><path class="cls-1" d="M49.28,35.3a10,10,0,0,1,8-.47,9.78,9.78,0,0,1,5.35,4.8l0,0v0h0a10.92,10.92,0,0,0-13.15.74,11.22,11.22,0,0,0-3,3.71,11,11,0,0,0-1.15,4.54v0h0a9.4,9.4,0,0,1-1.21-3.63,9.56,9.56,0,0,1,2.16-7.31,10,10,0,0,1,3.07-2.45" transform="translate(-23.46 -23.21)"/><path class="cls-1" d="M69.51,47.52A21.74,21.74,0,1,1,47.78,25.79,21.76,21.76,0,0,1,69.51,47.52M47.78,23.21A24.32,24.32,0,1,0,72.09,47.52,24.35,24.35,0,0,0,47.78,23.21" transform="translate(-23.46 -23.21)"/><path class="cls-1" d="M49.92,56.16c-.22,0-.66.06-.66.06A13.53,13.53,0,0,1,33.93,42.83a13.31,13.31,0,0,1,2.35-7.57v0h0A16.86,16.86,0,0,0,47.78,64.38a17.62,17.62,0,0,0,2.83-.23h0a4,4,0,0,0-.69-8" transform="translate(-23.46 -23.21)"/><polygon class="cls-2" points="68.36 35.9 68.36 16.27 61.33 16.27 61.33 12.69 79.46 12.69 79.46 16.27 72.43 16.27 72.43 35.9 68.36 35.9"/><path class="cls-2" d="M110,55.52h4.56a7.63,7.63,0,0,0,8-8c0-4.49-2.79-8-8-8H110Zm-4.07,3.59V35.9h8.63c7.24,0,12.14,4.8,12.14,11.62s-4.9,11.59-12.14,11.59Z" transform="translate(-23.46 -23.21)"/><path class="cls-2" d="M141.4,52.7a10,10,0,0,0,7.34,3.2c3.34,0,4.66-1.63,4.66-3.16,0-2.09-2.47-2.72-5.29-3.45-3.79-.94-8.24-2-8.24-7,0-3.82,3.37-6.78,8.45-6.78a12.13,12.13,0,0,1,8.42,3l-2.05,3.28A9.43,9.43,0,0,0,148,39.17c-2.4,0-3.93,1.15-3.93,2.89s2.37,2.4,5.12,3.09c3.82,1,8.38,2.16,8.38,7.21,0,3.86-2.71,7.16-9,7.16A12.5,12.5,0,0,1,139.29,56Z" transform="translate(-23.46 -23.21)"/><polygon class="cls-2" points="144.07 35.9 144.07 26.26 135.06 12.69 139.72 12.69 146.12 22.64 152.45 12.69 157.12 12.69 148.14 26.26 148.14 35.9 144.07 35.9"/><polygon class="cls-2" points="175.93 35.9 163.82 18.99 163.82 35.9 159.75 35.9 159.75 12.69 163.92 12.69 175.79 29.15 175.79 12.69 179.86 12.69 179.86 35.9 175.93 35.9"/><polygon class="cls-2" points="201.25 35.9 189.14 18.99 189.14 35.9 185.07 35.9 185.07 12.69 189.25 12.69 201.11 29.15 201.11 12.69 205.18 12.69 205.18 35.9 201.25 35.9"/><polygon class="cls-2" points="210.4 35.9 210.4 12.69 226.3 12.69 226.3 16.27 214.47 16.27 214.47 22.29 226.05 22.29 226.05 25.88 214.47 25.88 214.47 32.31 226.3 32.31 226.3 35.9 210.4 35.9"/><polygon class="cls-2" points="247.46 35.9 240.95 26.82 234.44 35.9 229.57 35.9 238.27 24 230.09 12.69 234.97 12.69 240.95 21.21 246.9 12.69 251.81 12.69 243.66 23.96 252.33 35.9 247.46 35.9"/><path class="cls-2" d="M275.79,59.11Z" transform="translate(-23.46 -23.21)"/></svg>