<svg xmlns="http://www.w3.org/2000/svg" viewBox="0 0 422.25 133.7"><defs><style>.cls-1{fill:#002950}.cls-2{fill:#f15a22}</style></defs><g id="Group_-_Formal_Stacked" data-name="Group - Formal Stacked"><g id="Group_-_Formal_Stacked-2" data-name="Group - Formal Stacked"><g id="Group_-_Formal_Stacked_center_" data-name="Group - Formal Stacked (center)"><path class="cls-1" d="M24.43 91.31a10.61 10.61 0 0 0-6.21-1.82A11.13 11.13 0 0 0 13 90.64a10.29 10.29 0 0 0-3.6 3.1 13.41 13.41 0 0 0-2.09 4.43 19.86 19.86 0 0 0-.67 5.19 22.07 22.07 0 0 0 .67 5.54 13.27 13.27 0 0 0 2.09 4.56 10.27 10.27 0 0 0 3.62 3.1 11.3 11.3 0 0 0 5.28 1.15 10.28 10.28 0 0 0 4-.74 9.17 9.17 0 0 0 3-2.07 9.56 9.56 0 0 0 2-3.14 12.93 12.93 0 0 0 .86-3.94h4.56q-.72 6.48-4.47 10.08t-10.37 3.6a16.37 16.37 0 0 1-7-1.37A13.63 13.63 0 0 1 6 116.37a16.13 16.13 0 0 1-3-5.67 24.32 24.32 0 0 1-1-7 22.76 22.76 0 0 1 1.06-7 16.84 16.84 0 0 1 3.09-5.73 14.45 14.45 0 0 1 5.09-3.87 16.45 16.45 0 0 1 7-1.41 17.59 17.59 0 0 1 5.09.72 13.53 13.53 0 0 1 4.27 2.11A11.86 11.86 0 0 1 30.74 92a12.68 12.68 0 0 1 1.64 4.82h-4.56a8.5 8.5 0 0 0-3.39-5.51ZM36.56 103.24a11.67 11.67 0 0 1 2.3-4.13 10.8 10.8 0 0 1 3.79-2.76 12.65 12.65 0 0 1 5.19-1 12.53 12.53 0 0 1 5.2 1 10.81 10.81 0 0 1 3.77 2.76 11.69 11.69 0 0 1 2.31 4.13 16.57 16.57 0 0 1 .76 5.11 16.4 16.4 0 0 1-.76 5.09 11.64 11.64 0 0 1-2.31 4.1 10.64 10.64 0 0 1-3.81 2.74 12.86 12.86 0 0 1-5.2 1 13 13 0 0 1-5.19-1 10.63 10.63 0 0 1-3.79-2.74 11.62 11.62 0 0 1-2.3-4.1 16.11 16.11 0 0 1-.77-5.09 16.28 16.28 0 0 1 .81-5.11Zm4.15 9.12a8.49 8.49 0 0 0 1.65 2.93 7.32 7.32 0 0 0 2.48 1.8 7.35 7.35 0 0 0 8.47-1.8 8.49 8.49 0 0 0 1.69-2.93 13.7 13.7 0 0 0 0-8 8.77 8.77 0 0 0-1.65-3 7.05 7.05 0 0 0-2.47-1.82 7.46 7.46 0 0 0-6 0 7 7 0 0 0-2.48 1.82 8.77 8.77 0 0 0-1.65 3 13.7 13.7 0 0 0 0 8ZM68.32 86.46v34.28h-4.08V86.46ZM78.15 86.46v34.28h-4.08V86.46ZM101.47 119.15a11.23 11.23 0 0 1-7 2.11 12.71 12.71 0 0 1-5.16-1 10.24 10.24 0 0 1-3.68-2.68 11.58 11.58 0 0 1-2.23-4.13 20.45 20.45 0 0 1-.84-5.24 14.86 14.86 0 0 1 .87-5.18A12.24 12.24 0 0 1 85.85 99a11 11 0 0 1 3.7-2.69 11.26 11.26 0 0 1 4.68-1 10.18 10.18 0 0 1 5.49 1.37 10.81 10.81 0 0 1 3.51 3.48 13.89 13.89 0 0 1 1.82 4.61 19.75 19.75 0 0 1 .41 4.75H86.88a9.88 9.88 0 0 0 .39 3.1 6.78 6.78 0 0 0 3.84 4.38 8.41 8.41 0 0 0 3.5.67 7.08 7.08 0 0 0 4.25-1.2 5.79 5.79 0 0 0 2.18-3.65h4a9.88 9.88 0 0 1-3.57 6.33Zm-1-15.94A7 7 0 0 0 99 101a7.07 7.07 0 0 0-5-2 7.08 7.08 0 0 0-2.86.56A6.36 6.36 0 0 0 89 101a7.13 7.13 0 0 0-1.44 2.23 8.45 8.45 0 0 0-.63 2.71h14.26a8.51 8.51 0 0 0-.7-2.73ZM128.12 127.74c-1.85 2-4.77 3-8.73 3a16.59 16.59 0 0 1-3.53-.39 10.48 10.48 0 0 1-3.26-1.25 7.48 7.48 0 0 1-2.43-2.25 6.37 6.37 0 0 1-1-3.41h4.07a3.06 3.06 0 0 0 .7 1.87 5.12 5.12 0 0 0 1.58 1.25 8.06 8.06 0 0 0 2 .7 11.44 11.44 0 0 0 2.12.21 7.65 7.65 0 0 0 3.41-.69 6.6 6.6 0 0 0 2.3-1.92 7.89 7.89 0 0 0 1.32-3 16.71 16.71 0 0 0 .41-3.8v-1.63H127a6.89 6.89 0 0 1-3.19 3.39 10 10 0 0 1-4.54 1.08 11 11 0 0 1-4.85-1 10.27 10.27 0 0 1-3.45-2.72 11.38 11.38 0 0 1-2.09-4 16.57 16.57 0 0 1-.7-4.82 19.1 19.1 0 0 1 .58-4.54 12.56 12.56 0 0 1 1.92-4.22 10.45 10.45 0 0 1 3.55-3.12 11 11 0 0 1 5.43-1.23 9.3 9.3 0 0 1 4.32 1 7.35 7.35 0 0 1 3.07 3.1v-3.43h3.84v22.7q.02 6.11-2.77 9.12Zm-5.2-11.16a6.58 6.58 0 0 0 2.27-2.21 10.17 10.17 0 0 0 1.28-3.09 15.08 15.08 0 0 0 .41-3.46 13.37 13.37 0 0 0-.39-3.21 9.06 9.06 0 0 0-1.22-2.86 6.3 6.3 0 0 0-2.19-2 6.47 6.47 0 0 0-3.26-.77 7 7 0 0 0-3.36.75 6.45 6.45 0 0 0-2.28 2 8.42 8.42 0 0 0-1.3 2.88 14.09 14.09 0 0 0-.41 3.41 17.41 17.41 0 0 0 .34 3.36 9.49 9.49 0 0 0 1.15 3 6.53 6.53 0 0 0 2.16 2.21 6.25 6.25 0 0 0 3.36.84 6.64 6.64 0 0 0 3.44-.85ZM154.09 119.15a11.24 11.24 0 0 1-7 2.11 12.77 12.77 0 0 1-5.16-1 10.2 10.2 0 0 1-3.67-2.68 11.43 11.43 0 0 1-2.23-4.13 19.62 19.62 0 0 1-.84-5.24 15.09 15.09 0 0 1 .86-5.18 12.43 12.43 0 0 1 2.42-4.03 11 11 0 0 1 3.69-2.69 11.32 11.32 0 0 1 4.68-1 10.22 10.22 0 0 1 5.5 1.37 10.78 10.78 0 0 1 3.5 3.48 13.91 13.91 0 0 1 1.83 4.61 20.27 20.27 0 0 1 .41 4.75H139.5a10.18 10.18 0 0 0 .38 3.1 7.08 7.08 0 0 0 1.4 2.59 6.9 6.9 0 0 0 2.44 1.8 8.46 8.46 0 0 0 3.51.67 7.08 7.08 0 0 0 4.25-1.2 5.79 5.79 0 0 0 2.18-3.65h4a9.88 9.88 0 0 1-3.57 6.32Zm-1-15.94a7.2 7.2 0 0 0-1.49-2.23 7.07 7.07 0 0 0-5-2 7.07 7.07 0 0 0-2.85.56 6.5 6.5 0 0 0-2.19 1.51 7.31 7.31 0 0 0-1.44 2.23 8.44 8.44 0 0 0-.62 2.71h14.26a8.78 8.78 0 0 0-.65-2.78ZM175.07 103.24a11.67 11.67 0 0 1 2.3-4.13 10.8 10.8 0 0 1 3.79-2.76 13.89 13.89 0 0 1 10.4 0 10.86 10.86 0 0 1 3.76 2.76 11.69 11.69 0 0 1 2.31 4.13 16.57 16.57 0 0 1 .76 5.11 16.4 16.4 0 0 1-.76 5.09 11.64 11.64 0 0 1-2.31 4.1 10.69 10.69 0 0 1-3.76 2.74 14.29 14.29 0 0 1-10.4 0 10.63 10.63 0 0 1-3.79-2.74 11.62 11.62 0 0 1-2.3-4.1 16.11 16.11 0 0 1-.77-5.09 16.28 16.28 0 0 1 .77-5.11Zm4.15 9.12a8.49 8.49 0 0 0 1.65 2.93 7.32 7.32 0 0 0 2.48 1.8 7.35 7.35 0 0 0 8.47-1.8 8.49 8.49 0 0 0 1.65-2.93 13.7 13.7 0 0 0 0-8 8.77 8.77 0 0 0-1.65-3 7.05 7.05 0 0 0-2.47-1.82 7.46 7.46 0 0 0-6 0 7 7 0 0 0-2.48 1.82 8.77 8.77 0 0 0-1.65 3 13.7 13.7 0 0 0 0 8ZM199.58 99.52v-3.6h4.18v-3.7a5.81 5.81 0 0 1 1.75-4.58 7.46 7.46 0 0 1 5.11-1.56 11.24 11.24 0 0 1 1.32.09 8.39 8.39 0 0 1 1.32.29V90a5.7 5.7 0 0 0-1.15-.26 9.68 9.68 0 0 0-1.15-.07 4 4 0 0 0-2.31.57 2.57 2.57 0 0 0-.81 2.21v3.46h4.8v3.6h-4.8v21.22h-4.08V99.52ZM247.46 91.14a9.71 9.71 0 0 0-5.83-1.65 13.49 13.49 0 0 0-2.84.29 7.49 7.49 0 0 0-2.47 1 5 5 0 0 0-1.73 1.8 5.55 5.55 0 0 0-.64 2.8 3.57 3.57 0 0 0 .93 2.57 7 7 0 0 0 2.5 1.61 20.26 20.26 0 0 0 3.53 1c1.31.27 2.64.57 4 .89s2.7.69 4 1.13a13.08 13.08 0 0 1 3.53 1.75 8.44 8.44 0 0 1 2.5 2.78 9.81 9.81 0 0 1-.29 8.91 10.11 10.11 0 0 1-3.15 3.16 13.65 13.65 0 0 1-4.29 1.78 20.76 20.76 0 0 1-4.73.55 20.1 20.1 0 0 1-5.45-.72 13.42 13.42 0 0 1-4.51-2.18 10.39 10.39 0 0 1-3.07-3.74 12.08 12.08 0 0 1-1.13-5.4h4.32a7.67 7.67 0 0 0 .84 3.71 7.56 7.56 0 0 0 2.21 2.57 9.11 9.11 0 0 0 3.19 1.49 14.64 14.64 0 0 0 3.74.48 16.34 16.34 0 0 0 3.1-.29 9.16 9.16 0 0 0 2.81-1 5.29 5.29 0 0 0 2.78-5 4.33 4.33 0 0 0-.93-2.88 7 7 0 0 0-2.5-1.8 18.76 18.76 0 0 0-3.53-1.13l-4-.88c-1.36-.31-2.69-.66-4-1.06a14.25 14.25 0 0 1-3.53-1.59 7.06 7.06 0 0 1-3.43-6.45 9.14 9.14 0 0 1 1.05-4.49 9.36 9.36 0 0 1 2.81-3.12 12.59 12.59 0 0 1 4-1.82 17.63 17.63 0 0 1 4.59-.6 18.49 18.49 0 0 1 4.89.62 11 11 0 0 1 4 2 9.41 9.41 0 0 1 2.69 3.38 12 12 0 0 1 1.08 4.88h-4.32a7.14 7.14 0 0 0-2.72-5.35ZM275.05 100.24a6.15 6.15 0 0 0-4.12-1.3 7.64 7.64 0 0 0-3.7.82 6.53 6.53 0 0 0-2.38 2.16 9.28 9.28 0 0 0-1.27 3.09 16.68 16.68 0 0 0-.38 3.63 13.92 13.92 0 0 0 .4 3.36 9 9 0 0 0 1.28 2.9 6.32 6.32 0 0 0 2.25 2 7.72 7.72 0 0 0 8-.81 7.18 7.18 0 0 0 2.09-4.47h4.18a11.5 11.5 0 0 1-3.43 7.11 10.83 10.83 0 0 1-7.52 2.49 12.83 12.83 0 0 1-5-.91 9.67 9.67 0 0 1-3.65-2.59 11.24 11.24 0 0 1-2.21-4 16.56 16.56 0 0 1-.74-5.11 18.22 18.22 0 0 1 .72-5.21 12 12 0 0 1 2.18-4.22 10.34 10.34 0 0 1 3.67-2.84 12.15 12.15 0 0 1 5.14-1 14.81 14.81 0 0 1 4 .51 9.39 9.39 0 0 1 3.26 1.56 8.44 8.44 0 0 1 2.33 2.66 9.79 9.79 0 0 1 1.15 3.82h-4.22a6.18 6.18 0 0 0-2.03-3.65ZM285.6 91.46v-5h4.08v5Zm4.08 4.46v24.82h-4.08V95.92ZM313 119.15a11.28 11.28 0 0 1-7 2.11 12.71 12.71 0 0 1-5.16-1 10.12 10.12 0 0 1-3.67-2.68 11.45 11.45 0 0 1-2.24-4.13 20.45 20.45 0 0 1-.84-5.24 14.86 14.86 0 0 1 .87-5.18 12.24 12.24 0 0 1 2.42-4.03 11 11 0 0 1 3.7-2.69 11.26 11.26 0 0 1 4.68-1 10.16 10.16 0 0 1 5.49 1.37 10.81 10.81 0 0 1 3.51 3.48 13.68 13.68 0 0 1 1.82 4.61 19.75 19.75 0 0 1 .41 4.75h-18.58a9.88 9.88 0 0 0 .39 3.1 7.06 7.06 0 0 0 1.39 2.59 6.85 6.85 0 0 0 2.45 1.8 8.41 8.41 0 0 0 3.5.67 7.06 7.06 0 0 0 4.25-1.2 5.79 5.79 0 0 0 2.18-3.65h4a10 10 0 0 1-3.57 6.32Zm-1-15.94a7.2 7.2 0 0 0-9.36-3.71 6.46 6.46 0 0 0-2.18 1.51 7.13 7.13 0 0 0-1.44 2.23 8.45 8.45 0 0 0-.63 2.71h14.26a8.51 8.51 0 0 0-.65-2.74ZM324.77 95.92v3.94h.1a8.58 8.58 0 0 1 8.06-4.52A11 11 0 0 1 337 96a6.71 6.71 0 0 1 2.64 1.88 7.09 7.09 0 0 1 1.42 2.85 15.54 15.54 0 0 1 .4 3.68v16.32h-4.08v-16.8a4.9 4.9 0 0 0-1.34-3.65 5 5 0 0 0-3.7-1.35 8.26 8.26 0 0 0-3.24.58 6.1 6.1 0 0 0-2.28 1.63 7.16 7.16 0 0 0-1.36 2.47 9.93 9.93 0 0 0-.46 3.1v14h-4.08V95.92ZM361.9 100.24a6.18 6.18 0 0 0-4.13-1.3 7.67 7.67 0 0 0-3.7.82 6.5 6.5 0 0 0-2.37 2.16 8.88 8.88 0 0 0-1.27 3.09 16.69 16.69 0 0 0-.39 3.63 13.93 13.93 0 0 0 .41 3.36 9 9 0 0 0 1.27 2.9 6.44 6.44 0 0 0 2.26 2 7.72 7.72 0 0 0 8-.81 7.23 7.23 0 0 0 2.09-4.47h4.17a11.45 11.45 0 0 1-3.43 7.11 10.79 10.79 0 0 1-7.51 2.49 12.92 12.92 0 0 1-5-.91 9.75 9.75 0 0 1-3.65-2.59 11.22 11.22 0 0 1-2.2-4 16.56 16.56 0 0 1-.75-5.11 18.22 18.22 0 0 1 .72-5.21 12 12 0 0 1 2.19-4.22 10.25 10.25 0 0 1 3.67-2.84 12.1 12.1 0 0 1 5.13-1 14.81 14.81 0 0 1 4 .51 9.44 9.44 0 0 1 3.27 1.56 8.56 8.56 0 0 1 2.33 2.66 10 10 0 0 1 1.15 3.82h-4.23a6.22 6.22 0 0 0-2.03-3.65ZM389.9 119.15a11.26 11.26 0 0 1-7 2.11 12.77 12.77 0 0 1-5.16-1 10.2 10.2 0 0 1-3.67-2.68 11.43 11.43 0 0 1-2.23-4.13 19.62 19.62 0 0 1-.84-5.24 15.09 15.09 0 0 1 .86-5.18 12.43 12.43 0 0 1 2.42-4.03 11 11 0 0 1 3.72-2.7 11.32 11.32 0 0 1 4.68-1 10.22 10.22 0 0 1 5.5 1.37 10.88 10.88 0 0 1 3.5 3.48 13.91 13.91 0 0 1 1.83 4.61 19.72 19.72 0 0 1 .4 4.75h-18.6a9.88 9.88 0 0 0 .38 3.1 7.06 7.06 0 0 0 1.39 2.59 6.94 6.94 0 0 0 2.45 1.8 8.42 8.42 0 0 0 3.51.67 7 7 0 0 0 4.24-1.2 5.76 5.76 0 0 0 2.19-3.65h4a9.88 9.88 0 0 1-3.57 6.33Zm-1-15.94a7.2 7.2 0 0 0-1.49-2.23 7 7 0 0 0-2.21-1.48 6.94 6.94 0 0 0-2.81-.56 7 7 0 0 0-2.85.56 6.5 6.5 0 0 0-2.19 1.51 7.13 7.13 0 0 0-1.44 2.23 8.44 8.44 0 0 0-.62 2.71h14.25a8.5 8.5 0 0 0-.62-2.74ZM401.06 115.19a4.23 4.23 0 0 0 1.51 1.49 6.65 6.65 0 0 0 2.11.79 12 12 0 0 0 2.42.24 16 16 0 0 0 2-.14 7.38 7.38 0 0 0 1.94-.53 3.66 3.66 0 0 0 1.47-1.13 3 3 0 0 0 .57-1.9 2.7 2.7 0 0 0-1.2-2.39 10.16 10.16 0 0 0-3-1.33c-1.2-.33-2.5-.63-3.91-.91a19.82 19.82 0 0 1-3.91-1.15 8 8 0 0 1-3-2.09 5.4 5.4 0 0 1-1.2-3.74 6 6 0 0 1 .84-3.22 6.92 6.92 0 0 1 2.18-2.18 9.83 9.83 0 0 1 3-1.25 13.77 13.77 0 0 1 3.28-.41 19.57 19.57 0 0 1 3.89.36 9.08 9.08 0 0 1 3.13 1.3 6.49 6.49 0 0 1 2.18 2.4 9.28 9.28 0 0 1 1 3.77h-4.08a3.87 3.87 0 0 0-2-3.26 5.92 5.92 0 0 0-1.8-.7 8.86 8.86 0 0 0-2-.22 11.73 11.73 0 0 0-1.85.15 6 6 0 0 0-1.7.5 3.46 3.46 0 0 0-1.25 1 2.42 2.42 0 0 0-.48 1.56 2.3 2.3 0 0 0 .74 1.75 5.8 5.8 0 0 0 1.9 1.15 15.25 15.25 0 0 0 2.59.77l2.88.65c1 .23 2 .5 3 .82a9.62 9.62 0 0 1 2.59 1.27 6.34 6.34 0 0 1 1.83 2 5.89 5.89 0 0 1 .69 3 6.94 6.94 0 0 1-.93 3.74 7.4 7.4 0 0 1-2.45 2.4 10.17 10.17 0 0 1-3.41 1.27 20.13 20.13 0 0 1-3.77.36 17.34 17.34 0 0 1-3.93-.43 9.78 9.78 0 0 1-3.31-1.41 7.27 7.27 0 0 1-2.31-2.6 9.12 9.12 0 0 1-1-3.91h4.08a4.49 4.49 0 0 0 .67 2.16Z"/><g id="UTSA-5" data-name="UTSA"><path class="cls-2" d="m261.56 3.71-17.72 46.06c.1-1.06.14-2.13.14-3.19 0-10.46-6.94-15-15.94-17.66l-4.29-1.29c-2.91-.94-7.46-2.4-7.46-6.17 0-3.6 4.12-5.39 7.21-5.39a17.61 17.61 0 0 1 11.14 4.28l6.69-13A44.22 44.22 0 0 0 221.1 2c-8.07 0-14.73 3.33-18.61 9V3.71h-57.6v34c0 8.41-.61 17.58-11.4 17.58s-11.4-9.17-11.4-17.58v-34h-16.8v36.35c0 8.31.34 16.54 6.77 22.8 5.4 5.32 13.89 7.2 21.43 7.2s16-1.88 21.43-7.2c6.43-6.26 6.77-14.49 6.77-22.8V18h10.12v50.4h16.8V18h10.87a25.08 25.08 0 0 0-.67 5.74c0 12.52 6.94 15.26 17.48 18.25 3.61 1 10.21 2.67 10.21 7.38 0 4.54-4.21 6.51-8.15 6.51-5.74 0-10.71-3-14.92-6.68l-7.19 13.54A39.86 39.86 0 0 0 219 70.06c6.51 0 13.29-1.79 18.35-6.08a17.59 17.59 0 0 0 1.65-1.71l-2.34 6.08h17.83L259 57.12h23.15l4.19 11.23h17.92L279.9 3.71Zm2.05 40.55 6.94-20.57h.18l6.85 20.57ZM309.14 60a4.36 4.36 0 1 0 0 8.71 4.36 4.36 0 1 0 0-8.71Zm0 7.8a3.46 3.46 0 0 1-.06-6.92 3.36 3.36 0 0 1 3.34 3.47 3.31 3.31 0 0 1-3.28 3.43Z"/><path class="cls-2" d="M310.12 64.46v-.06a1.11 1.11 0 0 0 .89-1 1.16 1.16 0 0 0-.42-.93 2.38 2.38 0 0 0-1.51-.35 9.17 9.17 0 0 0-1.66.16v4.31h1v-1.74h.48c.55 0 .82.21.9.69a3.52 3.52 0 0 0 .34 1h1.09a2.78 2.78 0 0 1-.32-1.06 1.23 1.23 0 0 0-.79-1.02Zm-1.19-.32h-.48v-1.25a2.26 2.26 0 0 1 .55 0c.64 0 .93.27.93.66s-.45.59-1 .59Z"/></g></g></g></g></svg>