<?xml version="1.0" encoding="utf-8"?>
<!-- Generator: Adobe Illustrator 26.0.3, SVG Export Plug-In . SVG Version: 6.00 Build 0)  -->
<svg version="1.1" id="Layer_1" xmlns="http://www.w3.org/2000/svg" xmlns:xlink="http://www.w3.org/1999/xlink" x="0px" y="0px"
	 viewBox="0 0 600 346" style="enable-background:new 0 0 600 346;" xml:space="preserve">
<style type="text/css">
	.st0{fill:#00708E;}
	.st1{fill:#FBB727;}
	.st2{fill:#F7F9F8;}
	.st3{fill:#FDFDFE;}
	.st4{fill:#F1F7F8;}
</style>
<g>
	<path class="st0" d="M494.3,60.7c1.6,0.9,2.3,2.2,1.4,4c-2.7,5.3-6,9.5-12.5,10.4c-43.4,5.8-82.5,22.1-118,47.4
		c-3.1,2.2-3.8,6.2-5.2,9.4c-11.9,26.8-23.6,53.7-35.2,80.6c-1.2,2.8-2.8,4.1-6.1,4.1c-17.4-0.2-34.7-0.2-52.1,0c-3.3,0-4.7-1.2-6-4
		c-10.3-23.7-20.8-47.3-31.2-70.9c-8.8-20-17.6-40-26.3-60.1c-1.2-2.8-2.4-3.4-5.3-1.8c-18.8,10-36.7,21.5-52.7,35.6
		c-5.1,4.5-10.6,4.3-16.1,2.7c-4.2-1.2-0.7-4.4-0.4-6.7c1-1,2.3-1.1,3.6-1c5.9,0.8,10.2-1.8,14.6-5.5c14.3-12.2,30-22.5,46.6-31.5
		c3.1-1.7,3.8-3.3,2-6.4c-1-1.8-1.7-3.8-1.6-5.9c-5.7-13.2-11.3-26.4-17.2-39.4c-1.3-3-1.1-3.7,2.3-3.7c23.8,0.1,47.6,0.1,71.5,0
		c2.6,0,3.8,0.7,4.5,3.4c1.9,6.5,4.3,12.9,6.5,19.3c2.4,7.1,6.3,12.1,13.8,15.3c5.6,2.4,7.8,8.5,5.7,15.1c-2.2,1.3-2.4-0.9-2.9-1.8
		c-1.7-3.1-4.2-5-7.8-6.2c1,7.4,5.1,13.7,5.6,21c-1,4.3-3.9,7.6-6.2,11.2c-5.8,9.1-11.9,18.1-14,29c-3.9,20.4,12.1,36.6,32.7,33.4
		c17.6-2.8,32.7-10.9,46.7-21.6c17.8-13.6,35.8-27,55.4-38.1c18.2-10.3,37.2-18.7,57.6-23.9c12.3-3.2,24.7-6.1,37.3-7.8
		c2-0.3,3.5-1.4,5-2.6C491.5,62.6,492.3,60.8,494.3,60.7z"/>
	<path class="st0" d="M292.4,74.4c0.7,8.4-2.7,15.6-7,22.3c-2.9,4.5-3.8,8.5-1.9,13.6c3.1,8.3,5.6,16.8,8.7,26.3
		c2.9-8.4,5.5-15.7,7.9-23.1c6.3-19.3,12.5-38.6,18.7-57.9c3.6-11.1,7.5-22.2,10.9-33.4c0.9-3.1,2.1-4.3,5.5-4.3
		c23.4,0.2,46.8,0.2,70.2,0c4.4,0,4.2,1.2,2.7,4.5c-10.4,23.6-20.7,47.2-31,70.9c0.1,1.7-1.1,2.6-2.3,3.3
		c-19.2,11.4-36.6,25.2-54.7,38.1c-8.4,6-17.8,9.8-27.7,12.5c-4.8,1.3-9.8,1.2-14.7,0.5c-6.3-0.9-11.5-6.4-12.6-12.7
		c-1.1-6.4,0-12.6,2.9-18.5c4.8-9.5,11.1-18.2,16.5-27.3c2.2-3.7,3.9-7.6,5.6-11.6C290.7,76.5,290.5,74.7,292.4,74.4z"/>
	<path class="st1" d="M292.4,74.4c-2.8,10.1-8.5,18.6-14.2,27.2c-3.6,5.4-7.2,10.9-9.7,16.8c-3.3,7.6-5,15.7,0.9,22.9
		c5.8,7.1,13.9,6.3,21.6,4.7c12.6-2.5,23.8-8.5,34-16.3c15.9-12.1,32-23.8,49.2-34.1c1.1-0.6,2-1.6,3-2.4
		c6.6-3.4,13.2-6.8,19.8-10.3c21.2-11,43.7-18.6,66.9-24c8.5-2,16.9-4.4,25.6-5.1c7.3-0.6,7.8,0.2,4.9,6.6c-3,4.1-6.6,6.5-12,7.3
		c-37.5,5.6-72.5,18-104.3,38.9c-16.4,10.8-32.2,22.5-48,34.2c-12.2,9.1-25.6,15.2-40.7,17.5c-14.7,2.3-26.9-3.2-32.8-15.3
		c-4.3-8.8-3.5-17.9-0.1-26.8c3.9-10.3,10.5-19.1,16.2-28.4c0.9-1.5,1.7-3,2.6-4.5c0.8-4.5,2.9-8.5,5.1-12.5c1-8-1.6-13.8-8.7-15.8
		c-6.3-1.7-8.6-5.6-9.5-11.3c-0.2-1.1-0.5-2.1-0.7-3.2c11.5,0.6,21.6,3.9,28,14.5C293.1,61.4,293.2,67.8,292.4,74.4z"/>
	<path class="st0" d="M485.2,327.4c-14-0.3-26.4-4.4-34.5-16.6c-14.1-21.1-4.8-54.8,28.1-58.9c13.3-1.7,25.8,0.9,35.9,10.5
		c19.2,18.2,14.9,55.3-17.1,63.6C493.5,327,489.4,327.3,485.2,327.4z"/>
	<path class="st0" d="M420.4,297.7c6.6,8.2,11.7,17.2,17.6,25.5c1.3,1.8,1.4,2.9-1.3,2.9c-8.9,0-17.8,0-26.7,0
		c-2.9,0-3.4-2.5-4.4-4.4c-2.6-5.2-5.1-10.5-8.7-15.7c0,5.4-0.2,10.8,0.1,16.2c0.1,3.1-0.8,4.1-4,4c-6.4-0.2-12.7-0.2-19.1,0
		c-2.8,0.1-4-0.7-4-3.7c0.1-22.1,0.1-44.2,0-66.3c0-2.7,0.9-3.6,3.6-3.6c11.8,0.2,23.6-0.7,35.3,0.4c22.4,2,27.5,19.9,22.8,34.5
		C429.9,293.1,424.6,294.9,420.4,297.7z"/>
	<path class="st0" d="M189.8,289.4c-2.3,7.8-4.9,15.6-6.9,23.5c-3.2,12.9-3,12.9-16.1,12.9c-4.5,0-8.9,0-13.4,0
		c-2.3,0-3.1-0.4-2.1-3c8.8-22.4,17.6-44.8,26.1-67.3c1-2.6,2.3-3.4,4.8-3.4c5.4,0.1,10.8,0.1,16.2,0c2.7-0.1,3.9,1,4.9,3.5
		c8.2,21.4,16.6,42.8,24.9,64.3c2.3,6,2.3,6-4.3,6c-6.2,0-12.4-0.2-18.6,0.1c-3,0.1-4.3-1-5.1-3.7c-3-10.9-6.2-21.9-9.2-32.8
		C190.7,289.5,190.2,289.5,189.8,289.4z"/>
	<path class="st0" d="M303.2,289.2c0-10.8,0.1-21.6-0.1-32.4c0-3,0.7-4.2,4-4.1c14.2,0.2,28.3,0.1,42.5,0c2.8,0,4.1,0.7,3.9,3.7
		c-0.2,4.6-0.2,9.2,0,13.8c0.1,2.8-1.1,3.6-3.7,3.5c-5.1-0.1-10.2,0-15.3,0c-1.8,0-3.5-0.2-3.6,2.5c-0.1,2.9,1.6,3,3.7,3
		c4.5,0,8.9,0.1,13.4,0c2.3-0.1,3.1,0.8,3,3c-0.1,4.6-0.1,9.2,0,13.8c0.1,2.5-0.7,3.4-3.2,3.3c-4.5-0.2-8.9,0-13.4-0.1
		c-2.3,0-3.6,0.5-3.5,3.2c0.1,2.5,1.5,2.8,3.4,2.8c5.3,0,10.5,0.1,15.8,0c2.5-0.1,3.9,0.5,3.8,3.4c-0.2,4.8-0.1,9.5,0,14.3
		c0.1,2.4-0.8,3.4-3.3,3.4c-14.6-0.1-29.3-0.1-43.9,0c-3.2,0-3.6-1.5-3.6-4.1C303.2,311.1,303.2,300.1,303.2,289.2z"/>
	<path class="st0" d="M115,289.4c3.2-10.9,6.5-21.8,9.5-32.8c0.8-3.1,2.2-4,5.2-4c6.8,0.2,13.7,0.3,20.5,0c3.9-0.2,4.1,1.2,2.9,4.3
		c-6,15.3-12,30.7-17.9,46c-2.4,6.2-4.8,12.4-7,18.7c-1.1,3.3-2.8,5-6.6,4.6c-3.8-0.3-7.7-0.5-11.4,0c-5.9,0.9-8.3-1.9-10.2-7
		c-5.5-15.2-11.3-30.3-17.4-45.2c-2.4-6-4.1-12.2-6.8-18c-1.1-2.4-0.8-3.5,2.1-3.4c7.6,0.1,15.3,0.2,22.9,0c2.8-0.1,3,1.6,3.5,3.4
		c3.3,11.1,6.5,22.1,9.8,33.2C114.3,289.3,114.6,289.3,115,289.4z"/>
	<path class="st0" d="M238.4,289c0-10.8,0.1-21.6-0.1-32.4c-0.1-3.1,0.9-4.1,4-4c6.5,0.2,13,0.3,19.5,0c3.5-0.1,4.2,1.3,4.1,4.4
		c-0.1,13.3,0.1,26.7-0.1,40c-0.1,3.7,1,5.1,4.8,4.8c4.6-0.3,9.2,0,13.8-0.1c2.6-0.1,3.7,0.6,3.6,3.4c-0.2,5.9-0.2,11.7,0,17.6
		c0.1,2.9-1.2,3.4-3.7,3.4c-14.1-0.1-28.3-0.1-42.4,0c-3,0-3.7-1.1-3.7-3.9C238.5,311.2,238.4,300.1,238.4,289z"/>
	<path class="st1" d="M193.8,61.1c1.3,2.7,2.5,5.4,3.9,8.1c1.1,2,0.5,2.8-1.5,3.9c-13.1,7.2-25.8,14.9-37.8,23.9
		c-2.9,2.2-6.1,4.1-8.6,6.7c-5.9,6.2-12.6,9.5-21.2,7.6c-3.1-3.4-0.9-5.8,1.5-8.1c7.2-6.7,15.2-12.5,23.3-18
		C166.4,76.4,179.8,68.2,193.8,61.1z"/>
	<path class="st2" d="M280.2,71.1c-0.3,4.7-2.8,8.6-5.1,12.5c-2.1-6.4-4.2-12.8-6.3-19.2c-0.3-1-1.3-2.1-0.1-3c1-0.7,2,0.3,3,0.7
		C275.8,63.9,278.4,67.1,280.2,71.1z"/>
	<path class="st3" d="M472.4,289.9c0-7.9,5.2-13.4,12.8-13.4c7.6,0,12.9,5.5,12.9,13.4c0.1,7.8-5.4,13.4-12.9,13.4
		C477.6,303.2,472.4,297.9,472.4,289.9z"/>
	<path class="st4" d="M396.5,279.3c1.2-2.3-1.5-5.9,3.3-5.8c4.3,0.1,6.5,1.9,6.3,5.8c-0.2,4.6-3.8,5.3-7,5.3
		C394.2,284.7,398.7,280.5,396.5,279.3z"/>
</g>
</svg>
