<?xml version="1.0" encoding="utf-8"?>
<!-- Generator: Adobe Illustrator 26.0.3, SVG Export Plug-In . SVG Version: 6.00 Build 0)  -->
<svg version="1.1" id="Layer_1" xmlns="http://www.w3.org/2000/svg" xmlns:xlink="http://www.w3.org/1999/xlink" x="0px" y="0px"
	 viewBox="0 0 608 262" style="enable-background:new 0 0 608 262;" xml:space="preserve">
<style type="text/css">
	.st0{fill:none;}
	.st1{fill:#016EAA;}
	.st2{fill:#FDCE01;}
</style>
<g>
	<path class="st0" d="M405.1,85.8C405.1,85.8,405.1,85.8,405.1,85.8c-0.1,0.4-0.2,0.7-0.3,1.1C404.9,86.6,405,86.2,405.1,85.8z"/>
	<path class="st0" d="M366.3,35c-3.1,7.7-6.1,15.3-9.2,23C360.1,50.3,363.2,42.6,366.3,35z"/>
	<path class="st0" d="M404.1,88c-0.1,0.1-0.2,0.2-0.3,0.3C404,88.2,404,88.1,404.1,88z"/>
	<path class="st0" d="M340,100.5c3.3-8.2,6.6-16.4,9.8-24.6C346.6,84.1,343.3,92.3,340,100.5L340,100.5z"/>
	<path class="st0" d="M404.7,87c0,0.1-0.1,0.2-0.2,0.3C404.6,87.2,404.7,87.1,404.7,87z"/>
	<path class="st0" d="M271.6,180.5c0,7.1,0,14.3,0,21.4c0,6.8,0,13.5,0,20.3c0-6.8,0-13.5,0-20.3
		C271.6,194.7,271.6,187.6,271.6,180.5z"/>
	<path class="st1" d="M404.9,94.1c1.8-0.8,2.9-2.1,2.9-4.1c0-0.4,0-0.7-0.1-1.1c-0.1-0.3-0.2-0.6-0.3-0.9c-0.4-1-1.2-1.7-2.4-2.2
		c-0.1,0.4-0.2,0.7-0.3,1.1c0,0,0,0.1,0,0.1c0,0.1-0.1,0.2-0.2,0.3c-0.1,0.2-0.3,0.5-0.4,0.7c-0.1,0.1-0.2,0.2-0.3,0.3
		c-0.2,0.2-0.5,0.5-0.8,0.7c-0.5,0.3-1,0.6-1.6,0.9c-13.8,5.6-28,10.4-42.3,14.7c-11.3,3.4-22.7,6.3-34.3,8.3
		c-7.3,1.3-14.6,2.2-22,1.9c-3.8-0.2-7.5-0.6-11-2.2c-3.3-1.5-5.6-3.9-6-7.7c-0.2-2.3,0.5-4.4,1.4-6.4c1.5-3.1,3.7-5.7,6-8.2
		c0.1-0.2,0.3-0.3,0.5-0.5c0.5-0.5,0.9-0.9,1.3-1.5c-1.2-3.1-2.3-6.3-3.5-9.4c-0.1-0.3-0.5-0.8,0.3-0.8c3.4,0.2,6.8,0.4,9.7,2.5
		c1.5-2.5,1-4.4-1.5-5.9c-2-1.1-4.2-1.5-6.5-1.8c-0.8-0.1-1.6-0.2-2.4-0.2c-1.9-0.1-1.9-0.1-2.6-1.9c-0.8-2.2-1.5-4.3-2.3-6.5h0
		c0-0.1-0.1-0.2-0.1-0.3c-0.1-0.3-0.2-0.5-0.3-0.8c-3.3-9-6.7-18.1-10-27.2c-0.3-0.8-0.6-1.1-1.6-1.1c-14.9,0-29.7,0-44.6,0
		c-0.4,0-0.8,0-1.1,0c-0.1,0.5,0.2,0.8,0.3,1.1c1.9,4.7,3.8,9.4,5.6,14.1c3,7.6,6.1,15.3,9.1,22.9c0.9,2.3,1.8,4.6,2.8,6.9
		c0.4,0.8-0.2,0.8-0.7,0.9c-7.1,2.2-14.1,4.6-21.1,7.2c-7,2.6-13.9,5.3-20.6,8.8c-1.5,0.8-3,0.7-4.5,0.1c-0.1,0.4-0.1,0.8,0,1.2
		c0,0.2,0.1,0.4,0.1,0.6c0,0.2,0.1,0.4,0.2,0.5c0,0.1,0.1,0.2,0.1,0.3c0.1,0.2,0.2,0.3,0.3,0.5c0.3,0.4,0.6,0.7,1.1,1
		c1.5,1,3,1,4.6,0.2c1.5-0.8,3-1.5,4.6-2.2c12-5.4,24.5-9.7,37-13.7c0.9-0.3,1,0.1,1.2,0.7c5.2,13.1,10.4,26.1,15.7,39.2
		c2.1,5.2,4.1,10.6,6.8,15.5c2.6,4.6,6.4,6.9,11.7,6.8c12.3-0.1,24.6,0,37,0c0.9,0,1.3-0.3,1.6-1.1c3.8-9.6,7.7-19.1,11.5-28.7
		c0.3-0.8,0.7-1.1,1.5-1.3c1.4-0.3,2.7-0.6,4.1-0.9c15.4-3.6,30.5-8.4,45.5-13.6C391.2,99.5,398.1,97,404.9,94.1z"/>
	<path class="st1" d="M407.4,88c-0.4-1-1.2-1.7-2.4-2.2c0,0,0,0,0,0C406.2,86.3,407,87.1,407.4,88z"/>
	<path class="st1" d="M286.2,64.2L286.2,64.2c0-0.1-0.1-0.2-0.1-0.3C286.1,64,286.2,64.1,286.2,64.2L286.2,64.2z"/>
	<path class="st1" d="M199.9,99.1c-0.1-0.2-0.1-0.4-0.2-0.5C199.7,98.8,199.8,99,199.9,99.1z"/>
	<path class="st1" d="M200.3,99.9c-0.1-0.2-0.2-0.3-0.3-0.5C200.1,99.6,200.2,99.7,200.3,99.9z"/>
	<path class="st1" d="M407.4,88c0.1,0.3,0.2,0.6,0.3,0.9C407.7,88.6,407.6,88.3,407.4,88z"/>
	<path class="st1" d="M199.7,98.6c0-0.2-0.1-0.4-0.1-0.6C199.6,98.2,199.6,98.4,199.7,98.6z"/>
	<path class="st1" d="M199.6,96.8L199.6,96.8c-0.1,0.4-0.1,0.8,0,1.2C199.5,97.6,199.5,97.2,199.6,96.8z"/>
	<path class="st1" d="M311.1,79.4c-0.4,3.1-2,5.7-4,8.1c-1.6,2-3.6,3.6-5.4,5.5c-2,2.1-4,4.3-5.5,6.8c-0.4,0.6-0.7,1.2-1,1.8
		c-0.9,2.2-0.4,3.3,1.8,4.1c1.2,0.4,2.4,0.6,3.7,0.6c6.5,0.3,12.8-0.6,19.1-1.6c6.6-1.1,13-2.5,19.5-4c0.2,0,0.3-0.1,0.5-0.2
		c3.3-8.2,6.6-16.4,9.8-24.6c2.4-6,4.8-12,7.2-18c3.1-7.7,6.1-15.3,9.2-23c-0.3,0-0.5,0-0.7,0c-15.1,0-30.2,0-45.4,0
		c-0.8,0-1,0.3-1.3,0.9c-2.1,5.8-4.3,11.6-6.4,17.4c-2,5.3-3.9,10.5-5.9,15.8C310.2,71.6,311.7,75.1,311.1,79.4z"/>
	<path class="st1" d="M357.1,57.9c-2.4,6-4.8,12-7.2,18C352.2,69.9,354.7,63.9,357.1,57.9z"/>
	<path class="st2" d="M288.5,70.7c0.7,1.8,0.7,1.8,2.6,1.9c0.8,0,1.6,0.1,2.4,0.2c2.2,0.3,4.5,0.6,6.5,1.8c2.5,1.4,3,3.4,1.5,5.9
		c-0.5,1.1-1.2,1.9-2,2.8c-1.5,1.6-3,3.3-4.4,4.9c0,0,0,0,0,0c-0.3,0.6-0.8,1-1.3,1.5c-0.2,0.2-0.3,0.3-0.5,0.5
		c-2.3,2.5-4.5,5.1-6,8.2c-1,2-1.7,4.1-1.4,6.4c0.4,3.8,2.7,6.2,6,7.7c3.5,1.6,7.2,2.1,11,2.2c7.4,0.3,14.7-0.6,22-1.9
		c11.6-2,23-5,34.3-8.3c14.3-4.3,28.5-9,42.3-14.7c0.6-0.2,1.1-0.5,1.6-0.9c0.3-0.2,0.5-0.4,0.8-0.7c0.1-0.1,0.2-0.2,0.3-0.3
		c0.2-0.2,0.3-0.4,0.4-0.7c0.1-0.1,0.1-0.2,0.2-0.3c0,0,0-0.1,0-0.1c0.1-0.3,0.2-0.7,0.3-1.1l0,0c0.1-2-0.9-3.5-2.3-4.3
		c-0.2-0.1-0.3-0.2-0.5-0.2c-0.1,0-0.2-0.1-0.3-0.1c-0.2-0.1-0.4-0.1-0.6-0.1c-1-0.2-2.1,0-3.2,0.4C382.9,88.1,367,93.3,351,97.7
		c-0.9,0.2-1.8,0.5-2.7,0.8c-2.7,0.7-5.5,1.5-8.2,2c0,0,0,0,0,0l0,0c-0.2,0.1-0.3,0.2-0.5,0.2c-6.4,1.6-12.9,3-19.5,4
		c-6.3,1-12.7,1.9-19.1,1.6c-1.2-0.1-2.5-0.2-3.7-0.6c-2.2-0.8-2.8-1.9-1.8-4.1c0.3-0.6,0.6-1.2,1-1.8c1.5-2.5,3.5-4.6,5.5-6.8
		c1.8-1.9,3.7-3.5,5.4-5.5c2-2.4,3.6-5,4-8.1c0.5-4.3-0.9-7.9-4.5-10.4c-3.9-2.4-8.1-3.7-12.5-4.3c-0.4-0.1-0.9-0.1-1.3-0.2
		c-2.2-0.3-4.4-0.4-6.7-0.4C287,66.4,287.7,68.5,288.5,70.7z"/>
	<path class="st2" d="M292.8,64.6c-2.2-0.3-4.4-0.4-6.7-0.4l0,0C288.4,64.2,290.7,64.3,292.8,64.6z"/>
	<path class="st2" d="M402.2,81.3c0.2,0.1,0.4,0.1,0.5,0.2C402.6,81.4,402.4,81.4,402.2,81.3z"/>
	<path class="st2" d="M401.4,81.1c0.2,0,0.4,0.1,0.6,0.1C401.7,81.1,401.6,81.1,401.4,81.1z"/>
	<path class="st2" d="M348.2,98.5c-2.7,0.7-5.5,1.5-8.2,2c0,0,0,0,0,0C342.8,100,345.5,99.2,348.2,98.5z"/>
	<path class="st2" d="M292.8,64.6c0.4,0.1,0.9,0.1,1.3,0.2C293.7,64.7,293.3,64.6,292.8,64.6z"/>
	<path class="st2" d="M405.1,85.8L405.1,85.8C405.1,85.8,405.1,85.8,405.1,85.8c0.1-2-0.9-3.5-2.3-4.3
		C404.2,82.3,405.2,83.8,405.1,85.8z"/>
	<path class="st2" d="M403.9,88.3c-0.2,0.2-0.5,0.5-0.8,0.7C403.4,88.8,403.6,88.5,403.9,88.3z"/>
	<path class="st2" d="M293.3,90.1c0.1-0.2,0.3-0.3,0.5-0.5C293.6,89.8,293.4,90,293.3,90.1z"/>
	<path class="st2" d="M404.8,86.9C404.8,86.9,404.7,87,404.8,86.9C404.7,87,404.8,86.9,404.8,86.9z"/>
	<path class="st2" d="M295,88.2C295,88.2,295,88.2,295,88.2C295,88.2,295,88.2,295,88.2c-0.3,0.6-0.8,1-1.3,1.5
		C294.2,89.2,294.7,88.7,295,88.2z"/>
	<path class="st2" d="M404.6,87.3c-0.1,0.2-0.3,0.5-0.4,0.7C404.3,87.8,404.4,87.5,404.6,87.3z"/>
	<path class="st1" d="M228,171.9c-0.5,0-0.8,0-1.1,0c-4.3,0-8.7,0-13,0c-0.8,0-1.2,0.3-1.4,1c-3.3,9-6.7,18-10.1,27
		c-1.2,3.3-2.5,6.6-3.8,10.1c-0.2-0.6-0.4-0.9-0.5-1.2c-4.5-12-8.9-23.9-13.3-35.9c-0.3-0.7-0.6-1-1.4-1c-4.3,0-8.7,0-13,0
		c-1.3,0-1.3,0-0.8,1.2c2.8,7,5.6,13.9,8.4,20.9c3.2,7.9,6.3,15.8,9.5,23.6c1.7,4.2,4.9,6.8,9.5,7.5c2.9,0.4,5.8,0,8.7,0.2
		c1,0.1,1.4-0.3,1.8-1.2c5.8-14.6,11.6-29.1,17.4-43.7C225.8,177.5,226.9,174.7,228,171.9z"/>
	<path class="st1" d="M338.4,200.2c-0.4-8.4-5.3-14.4-13.4-16.4c-4.8-1.2-9.6-1.2-14.4-0.5c-4.3,0.6-8.4,2-11.8,4.8
		c-5.3,4.5-7.3,10.4-7.2,17.1c0.1,5.5,1.7,10.3,5.8,14.1c3.6,3.4,8.1,5.1,12.9,5.8c8.7,1.4,17.4,0.9,26.1-0.5c0.7-0.1,0.7-0.4,0.7-1
		c0-2.3,0-4.6,0-6.9c0-1.5,0-1.5-1.5-1.2c-6,1-12.1,1.6-18.2,1c-2.7-0.2-5.2-0.8-7.5-2.3c-2.3-1.5-3.7-3.6-4.2-6.3
		c-0.2-0.9,0-1.2,1-1.2c2.5,0,5.1,0,7.7,0c2.6,0,5.1,0,7.7,0c2.6,0,5.1,0,7.7,0s5.1,0,7.7,0c0.8,0,1.1-0.2,1-1
		C338.4,204.1,338.5,202.2,338.4,200.2z M326,199.2c-3.2-0.1-6.3,0-9.5,0c-3.2,0-6.3,0-9.5,0c-1.1,0-1.2-0.4-1-1.3
		c0.5-2.2,1.8-3.8,3.9-4.6c4.4-1.7,8.9-1.7,13.4-0.1c2.2,0.8,3.3,2.5,3.7,4.8C327.2,198.8,327,199.2,326,199.2z"/>
	<path class="st1" d="M314.4,207c2.6,0,5.1,0,7.7,0c2.6,0,5.1,0,7.7,0c-2.6,0-5.1,0-7.7,0C319.5,207,316.9,207,314.4,207z"/>
	<path class="st1" d="M414.4,185.5c-4.1-2-8.6-2.6-13.4-2.6c-2.3,0-5,0.2-7.5,0.8c-6.7,1.5-12,5-14.8,11.6
		c-1.5,3.6-1.8,7.4-1.7,11.2c0.4,8.6,5.4,15.3,13.5,18c7.2,2.4,14.6,2.4,21.8-0.1c6.3-2.1,10.5-6.5,12.4-12.9
		c0.9-3.2,1.1-6.5,0.8-9.8C424.7,194.3,421.2,188.8,414.4,185.5z M410.4,211.1c-1.3,3.5-3.9,5.2-7.5,5.6c-1.3,0.1-2.6,0.1-3.8-0.1
		c-4.1-0.6-6.4-3.1-7.3-6.9c-0.8-3.5-0.9-7.1,0.1-10.5c1.5-5.7,5.2-7.6,10.9-7.1c4.7,0.5,7.4,3.2,8.2,8c0.3,1.5,0.3,3.1,0.4,4.5
		C411.2,206.9,411.2,209,410.4,211.1z"/>
	<path class="st1" d="M264.4,196c-0.1-4.4-2.2-7.7-6-9.9c-1.3-0.8-2.7-1.3-4.2-1.7c-7.9-2-15.9-1.8-23.9-0.4
		c-0.6,0.1-0.7,0.4-0.9,0.9c-0.9,2.4-1.8,4.9-2.7,7.3c-0.1,0.2-0.3,0.5,0,0.8c0.2,0,0.4,0,0.6,0c0.3,0,0.6-0.1,0.9-0.1
		c5.3-0.6,10.5-1.1,15.8-0.6c4,0.4,6,2,6.5,5.7c0.1,0.9,0,1.3-1,1.3c-3.6,0-7.3-0.1-10.9,0.1c-3.9,0.3-7.7,0.9-11.2,2.8
		c-4.5,2.3-7.2,7.2-6.7,12.1c0.5,5.2,4.2,9.6,9.3,10.8c3.8,0.9,7.7,1,11.6,0.7c2.9-0.3,5.7-1,8.4-2.4c0,0.4,0.1,0.7,0,1
		c-0.1,0.7,0.2,0.8,0.8,0.8c4.3,0,8.6,0,12.9,0c0.6,0,0.8-0.1,0.8-0.7C264.5,214.9,264.6,205.4,264.4,196z M250.5,207.9
		c0,0.3,0,0.6,0,1c0,0.3,0,0.6,0,1c0,0.2,0,0.3,0,0.5c0,4.3-1.5,5.9-5.8,6.5c-2,0.2-4.1,0.2-6.1,0c-2.2-0.2-3.8-1.6-4.1-3.6
		c-0.4-2,0.6-3.9,2.6-5c1.3-0.7,2.7-0.8,4.1-0.9c2.8-0.2,5.7-0.3,8.5-0.3C250.4,207,250.6,207.2,250.5,207.9z"/>
	<path class="st1" d="M285.7,172.4c0-0.4-0.2-0.5-0.5-0.5c-2.3,0-4.6-0.2-6.9,0.1c-4,0.7-6.6,4.1-6.6,8.5c0,7.1,0,14.3,0,21.4
		c0,6.8,0,13.5,0,20.3c0,0.8,0,1.6,0,2.4c0,0.3,0,0.6,0.5,0.6c2.5-0.1,5.1,0.3,7.6-0.3c3.7-0.9,6.1-4.2,6.1-8.3
		c0-14.5,0-29.1,0-43.6C285.7,172.7,285.7,172.5,285.7,172.4z"/>
	<path class="st1" d="M373.8,183.9c-3.7-0.8-7.4-1-11.1-0.9c-3.2,0.1-6.2,0.6-9.1,1.8c-4.7,2.1-7.9,5.4-8,10.8
		c-0.2,9.6-0.1,19.2-0.1,28.8c0,0.7,0.2,0.8,0.8,0.8c4.1,0,8.2,0,12.4,0c0.7,0,0.9-0.3,0.9-0.9c0-2.6,0-5.3,0-7.9
		c0-5.4,0-10.9,0.1-16.3c0.1-3.3,1.9-5.4,5.1-6.1c0.7-0.1,1.4-0.2,2.1-0.3c2.7-0.2,5.3,0.3,7.9,0.9c0-0.3,0.1-0.6,0.1-0.9
		c0-2.8,0-5.7,0-8.5C374.8,184.3,374.5,184,373.8,183.9z"/>
	<path class="st2" d="M199.6,96.8L199.6,96.8c1.5,0.7,3,0.7,4.5-0.1c6.6-3.4,13.6-6.2,20.6-8.8c7-2.6,14-4.9,21.1-7.2
		c0.4-0.1,1-0.1,0.7-0.9c-1-2.3-1.9-4.6-2.8-6.9c-6,1.9-11.9,3.8-17.8,5.9c-8.5,3-16.9,6.2-25.1,10c-1.1,0.5-2.1,1.2-2.6,2.3
		c-0.4,0.9-0.5,1.7-0.4,2.5c0,0.2,0.1,0.5,0.2,0.7c0,0.1,0.1,0.2,0.2,0.3c0.1,0.2,0.3,0.5,0.4,0.7C198.7,95.9,199.1,96.4,199.6,96.8
		z"/>
	<path class="st2" d="M199.6,96.8c-0.5-0.4-0.9-0.9-1.2-1.3C198.7,95.9,199.1,96.4,199.6,96.8L199.6,96.8L199.6,96.8z"/>
	<path class="st2" d="M198.4,95.5c-0.2-0.2-0.3-0.5-0.4-0.7C198.1,95,198.2,95.3,198.4,95.5z"/>
	<path class="st2" d="M197.8,94.5c-0.1-0.2-0.2-0.5-0.2-0.7C197.6,94,197.7,94.2,197.8,94.5z"/>
	<path class="st1" d="M433.6,183.2c-2.8,0-5.1,2.3-5.1,5.1c0,2.9,2.3,5.2,5.2,5.2c2.9,0,5.2-2.3,5.2-5.2
		C438.8,185.4,436.5,183.2,433.6,183.2z M433.6,192.3c-2.1,0-3.8-1.8-3.8-3.9c0-2.1,1.7-3.9,3.9-3.9c2.2,0,3.9,1.8,3.9,4
		C437.6,190.5,435.8,192.3,433.6,192.3z"/>
	<path class="st1" d="M435.4,188c0.8-0.8,0.2-2.1-1-2.3c-0.6-0.1-1.3,0-1.9-0.1c-0.5,0-0.7,0.1-0.7,0.7c0,1.2,0,2.4,0,3.6
		c0,0.5,0.1,0.7,0.7,0.7c0.6,0,0.7-0.3,0.7-0.8c0-0.3-0.2-0.7,0.3-0.9c0.8,0.7,1.2,2.3,2.9,1.5c-0.3-0.4-0.6-0.7-0.9-1.1
		C435,189,434.7,188.7,435.4,188z M433.5,187.9c-0.5,0-0.4-0.4-0.4-0.6c0-0.3,0-0.6,0.5-0.6c0.3,0,0.7,0.1,0.7,0.6
		C434.2,187.7,433.9,187.9,433.5,187.9z"/>
</g>
</svg>
