<?xml version="1.0" encoding="utf-8"?>
<!-- Generator: Adobe Illustrator 26.0.3, SVG Export Plug-In . SVG Version: 6.00 Build 0)  -->
<svg version="1.1" id="Layer_1" xmlns="http://www.w3.org/2000/svg" xmlns:xlink="http://www.w3.org/1999/xlink" x="0px" y="0px"
	 viewBox="0 0 588 228" style="enable-background:new 0 0 588 228;" xml:space="preserve">
<style type="text/css">
	.st0{fill:none;}
	.st1{fill:#016EAA;}
	.st2{fill:#FDCE01;}
</style>
<g>
	<path class="st0" d="M395.1,68.8L395.1,68.8c-0.1,0.4-0.2,0.7-0.3,1.1C394.9,69.6,395,69.2,395.1,68.8z"/>
	<path class="st0" d="M356.3,18c-3.1,7.7-6.1,15.3-9.2,23C350.1,33.3,353.2,25.6,356.3,18z"/>
	<path class="st0" d="M394.1,71c-0.1,0.1-0.2,0.2-0.3,0.3C394,71.2,394,71.1,394.1,71z"/>
	<path class="st0" d="M330,83.5c3.3-8.2,6.6-16.4,9.8-24.6C336.6,67.1,333.3,75.3,330,83.5L330,83.5z"/>
	<path class="st0" d="M394.7,70c0,0.1-0.1,0.2-0.2,0.3C394.6,70.2,394.7,70.1,394.7,70z"/>
	<path class="st0" d="M261.6,163.5c0,7.1,0,14.3,0,21.4c0,6.8,0,13.5,0,20.3c0-6.8,0-13.5,0-20.3
		C261.6,177.7,261.6,170.6,261.6,163.5z"/>
	<path class="st1" d="M394.9,77.1c1.8-0.8,2.9-2.1,2.9-4.1c0-0.4,0-0.7-0.1-1.1c-0.1-0.3-0.2-0.6-0.3-0.9c-0.4-1-1.2-1.7-2.4-2.2
		c-0.1,0.4-0.2,0.7-0.3,1.1V70c0,0.1-0.1,0.2-0.2,0.3c-0.1,0.2-0.3,0.5-0.4,0.7c-0.1,0.1-0.2,0.2-0.3,0.3c-0.2,0.2-0.5,0.5-0.8,0.7
		c-0.5,0.3-1,0.6-1.6,0.9c-13.8,5.6-28,10.4-42.3,14.7c-11.3,3.4-22.7,6.3-34.3,8.3c-7.3,1.3-14.6,2.2-22,1.9
		c-3.8-0.2-7.5-0.6-11-2.2c-3.3-1.5-5.6-3.9-6-7.7c-0.2-2.3,0.5-4.4,1.4-6.4c1.5-3.1,3.7-5.7,6-8.2c0.1-0.2,0.3-0.3,0.5-0.5
		c0.5-0.5,0.9-0.9,1.3-1.5c-1.2-3.1-2.3-6.3-3.5-9.4c-0.1-0.3-0.5-0.8,0.3-0.8c3.4,0.2,6.8,0.4,9.7,2.5c1.5-2.5,1-4.4-1.5-5.9
		c-2-1.1-4.2-1.5-6.5-1.8c-0.8-0.1-1.6-0.2-2.4-0.2c-1.9-0.1-1.9-0.1-2.6-1.9c-0.8-2.2-1.5-4.3-2.3-6.5l0,0c0-0.1-0.1-0.2-0.1-0.3
		c-0.1-0.3-0.2-0.5-0.3-0.8c-3.3-9-6.7-18.1-10-27.2c-0.3-0.8-0.6-1.1-1.6-1.1c-14.9,0-29.7,0-44.6,0c-0.4,0-0.8,0-1.1,0
		c-0.1,0.5,0.2,0.8,0.3,1.1c1.9,4.7,3.8,9.4,5.6,14.1c3,7.6,6.1,15.3,9.1,22.9c0.9,2.3,1.8,4.6,2.8,6.9c0.4,0.8-0.2,0.8-0.7,0.9
		c-7.1,2.2-14.1,4.6-21.1,7.2s-13.9,5.3-20.6,8.8c-1.5,0.8-3,0.7-4.5,0.1c-0.1,0.4-0.1,0.8,0,1.2c0,0.2,0.1,0.4,0.1,0.6
		s0.1,0.4,0.2,0.5c0,0.1,0.1,0.2,0.1,0.3c0.1,0.2,0.2,0.3,0.3,0.5c0.3,0.4,0.6,0.7,1.1,1c1.5,1,3,1,4.6,0.2c1.5-0.8,3-1.5,4.6-2.2
		c12-5.4,24.5-9.7,37-13.7c0.9-0.3,1,0.1,1.2,0.7c5.2,13.1,10.4,26.1,15.7,39.2c2.1,5.2,4.1,10.6,6.8,15.5c2.6,4.6,6.4,6.9,11.7,6.8
		c12.3-0.1,24.6,0,37,0c0.9,0,1.3-0.3,1.6-1.1c3.8-9.6,7.7-19.1,11.5-28.7c0.3-0.8,0.7-1.1,1.5-1.3c1.4-0.3,2.7-0.6,4.1-0.9
		c15.4-3.6,30.5-8.4,45.5-13.6C381.2,82.5,388.1,80,394.9,77.1z"/>
	<path class="st1" d="M397.4,71c-0.4-1-1.2-1.7-2.4-2.2l0,0C396.2,69.3,397,70.1,397.4,71z"/>
	<path class="st1" d="M276.2,47.2L276.2,47.2c0-0.1-0.1-0.2-0.1-0.3C276.1,47,276.2,47.1,276.2,47.2L276.2,47.2z"/>
	<path class="st1" d="M189.9,82.1c-0.1-0.2-0.1-0.4-0.2-0.5C189.7,81.8,189.8,82,189.9,82.1z"/>
	<path class="st1" d="M190.3,82.9c-0.1-0.2-0.2-0.3-0.3-0.5C190.1,82.6,190.2,82.7,190.3,82.9z"/>
	<path class="st1" d="M397.4,71c0.1,0.3,0.2,0.6,0.3,0.9C397.7,71.6,397.6,71.3,397.4,71z"/>
	<path class="st1" d="M189.7,81.6c0-0.2-0.1-0.4-0.1-0.6C189.6,81.2,189.6,81.4,189.7,81.6z"/>
	<path class="st1" d="M189.6,79.8L189.6,79.8c-0.1,0.4-0.1,0.8,0,1.2C189.5,80.6,189.5,80.2,189.6,79.8z"/>
	<path class="st1" d="M301.1,62.4c-0.4,3.1-2,5.7-4,8.1c-1.6,2-3.6,3.6-5.4,5.5c-2,2.1-4,4.3-5.5,6.8c-0.4,0.6-0.7,1.2-1,1.8
		c-0.9,2.2-0.4,3.3,1.8,4.1c1.2,0.4,2.4,0.6,3.7,0.6c6.5,0.3,12.8-0.6,19.1-1.6c6.6-1.1,13-2.5,19.5-4c0.2,0,0.3-0.1,0.5-0.2
		c3.3-8.2,6.6-16.4,9.8-24.6c2.4-6,4.8-12,7.2-18c3.1-7.7,6.1-15.3,9.2-23c-0.3,0-0.5,0-0.7,0c-15.1,0-30.2,0-45.4,0
		c-0.8,0-1,0.3-1.3,0.9c-2.1,5.8-4.3,11.6-6.4,17.4c-2,5.3-3.9,10.5-5.9,15.8C300.2,54.6,301.7,58.1,301.1,62.4z"/>
	<path class="st1" d="M347.1,40.9c-2.4,6-4.8,12-7.2,18C342.2,52.9,344.7,46.9,347.1,40.9z"/>
	<path class="st2" d="M278.5,53.7c0.7,1.8,0.7,1.8,2.6,1.9c0.8,0,1.6,0.1,2.4,0.2c2.2,0.3,4.5,0.6,6.5,1.8c2.5,1.4,3,3.4,1.5,5.9
		c-0.5,1.1-1.2,1.9-2,2.8c-1.5,1.6-3,3.3-4.4,4.9l0,0c-0.3,0.6-0.8,1-1.3,1.5c-0.2,0.2-0.3,0.3-0.5,0.5c-2.3,2.5-4.5,5.1-6,8.2
		c-1,2-1.7,4.1-1.4,6.4c0.4,3.8,2.7,6.2,6,7.7c3.5,1.6,7.2,2.1,11,2.2c7.4,0.3,14.7-0.6,22-1.9c11.6-2,23-5,34.3-8.3
		c14.3-4.3,28.5-9,42.3-14.7c0.6-0.2,1.1-0.5,1.6-0.9c0.3-0.2,0.5-0.4,0.8-0.7c0.1-0.1,0.2-0.2,0.3-0.3c0.2-0.2,0.3-0.4,0.4-0.7
		c0.1-0.1,0.1-0.2,0.2-0.3v-0.1c0.1-0.3,0.2-0.7,0.3-1.1l0,0c0.1-2-0.9-3.5-2.3-4.3c-0.2-0.1-0.3-0.2-0.5-0.2
		c-0.1,0-0.2-0.1-0.3-0.1c-0.2-0.1-0.4-0.1-0.6-0.1c-1-0.2-2.1,0-3.2,0.4C372.9,71.1,357,76.3,341,80.7c-0.9,0.2-1.8,0.5-2.7,0.8
		c-2.7,0.7-5.5,1.5-8.2,2l0,0l0,0c-0.2,0.1-0.3,0.2-0.5,0.2c-6.4,1.6-12.9,3-19.5,4c-6.3,1-12.7,1.9-19.1,1.6
		c-1.2-0.1-2.5-0.2-3.7-0.6c-2.2-0.8-2.8-1.9-1.8-4.1c0.3-0.6,0.6-1.2,1-1.8c1.5-2.5,3.5-4.6,5.5-6.8c1.8-1.9,3.7-3.5,5.4-5.5
		c2-2.4,3.6-5,4-8.1c0.5-4.3-0.9-7.9-4.5-10.4c-3.9-2.4-8.1-3.7-12.5-4.3c-0.4-0.1-0.9-0.1-1.3-0.2c-2.2-0.3-4.4-0.4-6.7-0.4
		C277,49.4,277.7,51.5,278.5,53.7z"/>
	<path class="st2" d="M282.8,47.6c-2.2-0.3-4.4-0.4-6.7-0.4l0,0C278.4,47.2,280.7,47.3,282.8,47.6z"/>
	<path class="st2" d="M392.2,64.3c0.2,0.1,0.4,0.1,0.5,0.2C392.6,64.4,392.4,64.4,392.2,64.3z"/>
	<path class="st2" d="M391.4,64.1c0.2,0,0.4,0.1,0.6,0.1C391.7,64.1,391.6,64.1,391.4,64.1z"/>
	<path class="st2" d="M338.2,81.5c-2.7,0.7-5.5,1.5-8.2,2l0,0C332.8,83,335.5,82.2,338.2,81.5z"/>
	<path class="st2" d="M282.8,47.6c0.4,0.1,0.9,0.1,1.3,0.2C283.7,47.7,283.3,47.6,282.8,47.6z"/>
	<path class="st2" d="M395.1,68.8L395.1,68.8L395.1,68.8c0.1-2-0.9-3.5-2.3-4.3C394.2,65.3,395.2,66.8,395.1,68.8z"/>
	<path class="st2" d="M393.9,71.3c-0.2,0.2-0.5,0.5-0.8,0.7C393.4,71.8,393.6,71.5,393.9,71.3z"/>
	<path class="st2" d="M283.3,73.1c0.1-0.2,0.3-0.3,0.5-0.5C283.6,72.8,283.4,73,283.3,73.1z"/>
	<path class="st2" d="M394.8,69.9C394.8,69.9,394.7,70,394.8,69.9C394.7,70,394.8,69.9,394.8,69.9z"/>
	<path class="st2" d="M285,71.2L285,71.2L285,71.2c-0.3,0.6-0.8,1-1.3,1.5C284.2,72.2,284.7,71.7,285,71.2z"/>
	<path class="st2" d="M394.6,70.3c-0.1,0.2-0.3,0.5-0.4,0.7C394.3,70.8,394.4,70.5,394.6,70.3z"/>
	<path class="st1" d="M218,154.9c-0.5,0-0.8,0-1.1,0c-4.3,0-8.7,0-13,0c-0.8,0-1.2,0.3-1.4,1c-3.3,9-6.7,18-10.1,27
		c-1.2,3.3-2.5,6.6-3.8,10.1c-0.2-0.6-0.4-0.9-0.5-1.2c-4.5-12-8.9-23.9-13.3-35.9c-0.3-0.7-0.6-1-1.4-1c-4.3,0-8.7,0-13,0
		c-1.3,0-1.3,0-0.8,1.2c2.8,7,5.6,13.9,8.4,20.9c3.2,7.9,6.3,15.8,9.5,23.6c1.7,4.2,4.9,6.8,9.5,7.5c2.9,0.4,5.8,0,8.7,0.2
		c1,0.1,1.4-0.3,1.8-1.2c5.8-14.6,11.6-29.1,17.4-43.7C215.8,160.5,216.9,157.7,218,154.9z"/>
	<path class="st1" d="M328.4,183.2c-0.4-8.4-5.3-14.4-13.4-16.4c-4.8-1.2-9.6-1.2-14.4-0.5c-4.3,0.6-8.4,2-11.8,4.8
		c-5.3,4.5-7.3,10.4-7.2,17.1c0.1,5.5,1.7,10.3,5.8,14.1c3.6,3.4,8.1,5.1,12.9,5.8c8.7,1.4,17.4,0.9,26.1-0.5c0.7-0.1,0.7-0.4,0.7-1
		c0-2.3,0-4.6,0-6.9c0-1.5,0-1.5-1.5-1.2c-6,1-12.1,1.6-18.2,1c-2.7-0.2-5.2-0.8-7.5-2.3s-3.7-3.6-4.2-6.3c-0.2-0.9,0-1.2,1-1.2
		c2.5,0,5.1,0,7.7,0s5.1,0,7.7,0s5.1,0,7.7,0s5.1,0,7.7,0c0.8,0,1.1-0.2,1-1C328.4,187.1,328.5,185.2,328.4,183.2z M316,182.2
		c-3.2-0.1-6.3,0-9.5,0s-6.3,0-9.5,0c-1.1,0-1.2-0.4-1-1.3c0.5-2.2,1.8-3.8,3.9-4.6c4.4-1.7,8.9-1.7,13.4-0.1
		c2.2,0.8,3.3,2.5,3.7,4.8C317.2,181.8,317,182.2,316,182.2z"/>
	<path class="st1" d="M304.4,190c2.6,0,5.1,0,7.7,0s5.1,0,7.7,0c-2.6,0-5.1,0-7.7,0S306.9,190,304.4,190z"/>
	<path class="st1" d="M404.4,168.5c-4.1-2-8.6-2.6-13.4-2.6c-2.3,0-5,0.2-7.5,0.8c-6.7,1.5-12,5-14.8,11.6
		c-1.5,3.6-1.8,7.4-1.7,11.2c0.4,8.6,5.4,15.3,13.5,18c7.2,2.4,14.6,2.4,21.8-0.1c6.3-2.1,10.5-6.5,12.4-12.9
		c0.9-3.2,1.1-6.5,0.8-9.8C414.7,177.3,411.2,171.8,404.4,168.5z M400.4,194.1c-1.3,3.5-3.9,5.2-7.5,5.6c-1.3,0.1-2.6,0.1-3.8-0.1
		c-4.1-0.6-6.4-3.1-7.3-6.9c-0.8-3.5-0.9-7.1,0.1-10.5c1.5-5.7,5.2-7.6,10.9-7.1c4.7,0.5,7.4,3.2,8.2,8c0.3,1.5,0.3,3.1,0.4,4.5
		C401.2,189.9,401.2,192,400.4,194.1z"/>
	<path class="st1" d="M254.4,179c-0.1-4.4-2.2-7.7-6-9.9c-1.3-0.8-2.7-1.3-4.2-1.7c-7.9-2-15.9-1.8-23.9-0.4
		c-0.6,0.1-0.7,0.4-0.9,0.9c-0.9,2.4-1.8,4.9-2.7,7.3c-0.1,0.2-0.3,0.5,0,0.8c0.2,0,0.4,0,0.6,0c0.3,0,0.6-0.1,0.9-0.1
		c5.3-0.6,10.5-1.1,15.8-0.6c4,0.4,6,2,6.5,5.7c0.1,0.9,0,1.3-1,1.3c-3.6,0-7.3-0.1-10.9,0.1c-3.9,0.3-7.7,0.9-11.2,2.8
		c-4.5,2.3-7.2,7.2-6.7,12.1c0.5,5.2,4.2,9.6,9.3,10.8c3.8,0.9,7.7,1,11.6,0.7c2.9-0.3,5.7-1,8.4-2.4c0,0.4,0.1,0.7,0,1
		c-0.1,0.7,0.2,0.8,0.8,0.8c4.3,0,8.6,0,12.9,0c0.6,0,0.8-0.1,0.8-0.7C254.5,197.9,254.6,188.4,254.4,179z M240.5,190.9
		c0,0.3,0,0.6,0,1c0,0.3,0,0.6,0,1c0,0.2,0,0.3,0,0.5c0,4.3-1.5,5.9-5.8,6.5c-2,0.2-4.1,0.2-6.1,0c-2.2-0.2-3.8-1.6-4.1-3.6
		c-0.4-2,0.6-3.9,2.6-5c1.3-0.7,2.7-0.8,4.1-0.9c2.8-0.2,5.7-0.3,8.5-0.3C240.4,190,240.6,190.2,240.5,190.9z"/>
	<path class="st1" d="M275.7,155.4c0-0.4-0.2-0.5-0.5-0.5c-2.3,0-4.6-0.2-6.9,0.1c-4,0.7-6.6,4.1-6.6,8.5c0,7.1,0,14.3,0,21.4
		c0,6.8,0,13.5,0,20.3c0,0.8,0,1.6,0,2.4c0,0.3,0,0.6,0.5,0.6c2.5-0.1,5.1,0.3,7.6-0.3c3.7-0.9,6.1-4.2,6.1-8.3
		c0-14.5,0-29.1,0-43.6C275.7,155.7,275.7,155.5,275.7,155.4z"/>
	<path class="st1" d="M363.8,166.9c-3.7-0.8-7.4-1-11.1-0.9c-3.2,0.1-6.2,0.6-9.1,1.8c-4.7,2.1-7.9,5.4-8,10.8
		c-0.2,9.6-0.1,19.2-0.1,28.8c0,0.7,0.2,0.8,0.8,0.8c4.1,0,8.2,0,12.4,0c0.7,0,0.9-0.3,0.9-0.9c0-2.6,0-5.3,0-7.9
		c0-5.4,0-10.9,0.1-16.3c0.1-3.3,1.9-5.4,5.1-6.1c0.7-0.1,1.4-0.2,2.1-0.3c2.7-0.2,5.3,0.3,7.9,0.9c0-0.3,0.1-0.6,0.1-0.9
		c0-2.8,0-5.7,0-8.5C364.8,167.3,364.5,167,363.8,166.9z"/>
	<path class="st2" d="M189.6,79.8L189.6,79.8c1.5,0.7,3,0.7,4.5-0.1c6.6-3.4,13.6-6.2,20.6-8.8c7-2.6,14-4.9,21.1-7.2
		c0.4-0.1,1-0.1,0.7-0.9c-1-2.3-1.9-4.6-2.8-6.9c-6,1.9-11.9,3.8-17.8,5.9c-8.5,3-16.9,6.2-25.1,10c-1.1,0.5-2.1,1.2-2.6,2.3
		c-0.4,0.9-0.5,1.7-0.4,2.5c0,0.2,0.1,0.5,0.2,0.7c0,0.1,0.1,0.2,0.2,0.3c0.1,0.2,0.3,0.5,0.4,0.7C188.7,78.9,189.1,79.4,189.6,79.8
		z"/>
	<path class="st2" d="M189.6,79.8c-0.5-0.4-0.9-0.9-1.2-1.3C188.7,78.9,189.1,79.4,189.6,79.8L189.6,79.8L189.6,79.8z"/>
	<path class="st2" d="M188.4,78.5c-0.2-0.2-0.3-0.5-0.4-0.7C188.1,78,188.2,78.3,188.4,78.5z"/>
	<path class="st2" d="M187.8,77.5c-0.1-0.2-0.2-0.5-0.2-0.7C187.6,77,187.7,77.2,187.8,77.5z"/>
	<path class="st1" d="M423.6,166.2c-2.8,0-5.1,2.3-5.1,5.1c0,2.9,2.3,5.2,5.2,5.2c2.9,0,5.2-2.3,5.2-5.2
		C428.8,168.4,426.5,166.2,423.6,166.2z M423.6,175.3c-2.1,0-3.8-1.8-3.8-3.9c0-2.1,1.7-3.9,3.9-3.9c2.2,0,3.9,1.8,3.9,4
		C427.6,173.5,425.8,175.3,423.6,175.3z"/>
	<path class="st1" d="M425.4,171c0.8-0.8,0.2-2.1-1-2.3c-0.6-0.1-1.3,0-1.9-0.1c-0.5,0-0.7,0.1-0.7,0.7c0,1.2,0,2.4,0,3.6
		c0,0.5,0.1,0.7,0.7,0.7s0.7-0.3,0.7-0.8c0-0.3-0.2-0.7,0.3-0.9c0.8,0.7,1.2,2.3,2.9,1.5c-0.3-0.4-0.6-0.7-0.9-1.1
		C425,172,424.7,171.7,425.4,171z M423.5,170.9c-0.5,0-0.4-0.4-0.4-0.6c0-0.3,0-0.6,0.5-0.6c0.3,0,0.7,0.1,0.7,0.6
		C424.2,170.7,423.9,170.9,423.5,170.9z"/>
</g>
</svg>
