<?xml version="1.0" encoding="utf-8"?>
<!-- Generator: Adobe Illustrator 26.0.3, SVG Export Plug-In . SVG Version: 6.00 Build 0)  -->
<svg version="1.1" id="Layer_1" xmlns="http://www.w3.org/2000/svg" xmlns:xlink="http://www.w3.org/1999/xlink" x="0px" y="0px"
	 viewBox="0 0 552 262" style="enable-background:new 0 0 552 262;" xml:space="preserve">
<style type="text/css">
	.st0{fill:#00708E;}
	.st1{fill:#FBB727;}
</style>
<g>
	<path class="st0" d="M412.3,55.6c0.6-1.2,0.1-2.2-1-2.8c0,0,0,0-0.1,0c-2.1,2.8-4.5,4.3-8.2,4.8c-26.1,3.9-50.4,12.5-72.5,27.1
		c-11.4,7.5-22.4,15.7-33.4,23.7c-8.4,6.3-17.8,10.5-28.3,12.2c-10.2,1.6-18.7-2.3-22.8-10.6c-3-6.1-2.4-12.4-0.1-18.6
		c2.7-7.1,7.3-13.3,11.2-19.7c0.6-0.9,1.1-2,1.7-2.9c-1.5-4.4-3-8.9-4.3-13.3c-0.2-0.7-0.9-1.5-0.1-2.1c0.7-0.5,1.4,0.2,2.1,0.5
		c2.9,1.2,4.7,3.4,5.9,6.2c0-0.1,0.1-0.1,0.1-0.2c0.7-5.6-1.1-9.6-6.1-11c-4.3-1.2-6-3.9-6.6-7.8c-0.2-0.8-0.3-1.5-0.5-2.3
		c0,0,0.1,0,0.1,0c0,0,0,0,0,0c-1.5-4.4-3.2-8.9-4.5-13.4c-0.5-1.8-1.3-2.3-3.1-2.3c-16.6,0.1-33.2,0.1-49.7,0
		c-2.4,0-2.5,0.5-1.6,2.6c4.1,9,7.9,18.3,11.9,27.4c0.9,1.9,1.7,3.7,2.7,5.7c0.8,1.4,0.3,1.9-1,2.7c-9.1,5-17.9,10.4-26.3,16.6
		c-2,1.6-4.3,2.9-6,4.7c-4.1,4.3-8.8,6.6-14.7,5.3c0,0-0.1-0.1-0.1-0.1c0,0,0,0,0,0c-0.2,1.7-2.7,3.8,0.3,4.7
		c3.8,1.1,7.6,1.2,11.2-1.9c11.1-9.7,23.6-17.7,36.6-24.7c2-1.1,2.8-0.7,3.7,1.2c6,14,12.2,27.9,18.3,41.8
		c7.3,16.4,14.6,32.9,21.7,49.3c0.9,1.9,1.9,2.8,4.2,2.8c12.1-0.2,24.1-0.2,36.2,0c2.4,0,3.4-1,4.3-2.9c8-18.7,16.1-37.4,24.4-56
		c1.1-2.2,1.5-4.9,3.7-6.5c24.7-17.6,51.8-29,82-33C408.1,62.2,410.4,59.3,412.3,55.6z"/>
	<path class="st0" d="M254.4,92.9c-2.3,5.3-3.5,10.9,0.6,15.9c4,5,9.7,4.3,15,3.3c8.8-1.7,16.5-5.9,23.7-11.3
		c11-8.4,22.3-16.5,34.2-23.7c0.8-0.4,1.3-1,2-1.6c0,0,0-0.1,0-0.1c7.2-16.5,14.4-32.9,21.6-49.3c1.1-2.2,1.1-3.1-1.9-3.1
		c-16.3,0.2-32.5,0.2-48.8,0c-2.3,0-3.2,0.8-3.8,3c-2.4,7.8-5.1,15.5-7.6,23.2c-4.3,13.5-8.7,26.9-13,40.3
		c-1.7,5.2-3.5,10.3-5.5,16.1c-2.2-6.6-3.9-12.6-6.1-18.3c-1.3-3.6-0.7-6.4,1.3-9.5c3-4.6,5.4-9.7,4.9-15.5c-1.9,7-5.9,13-9.8,18.9
		C258.7,84.9,256.2,88.8,254.4,92.9z"/>
	<path class="st1" d="M259,49.4c3.9,1.7,5.4,5.9,4,10.5c-0.2,0.1-0.4,0.2-0.6,0.2c-0.2,2.9-1.5,5.3-3,7.7c0,0.4,0.1,0.8,0.1,1.1
		c-0.7,3-2.7,5.3-4.3,7.7c-4,6.3-8.3,12.6-9.7,20.2c-2.7,14.2,8.4,25.4,22.7,23.2c12.3-1.9,22.7-7.6,32.4-15
		c12.4-9.5,24.9-18.8,38.5-26.4c12.6-7.1,25.8-13,40-16.6c8.5-2.3,17.1-4.3,25.9-5.4c1.4-0.2,2.4-1,3.5-1.8c0.9-0.8,1.4-2,2.7-2.1
		c0.1-0.1,0.1-0.1,0.2-0.2c2-4.4,1.6-5-3.4-4.6c-6.1,0.6-11.9,2.2-17.8,3.6c-16.1,3.7-31.8,9-46.5,16.7c-4.6,2.4-9.1,4.8-13.7,7.1
		c0,0-0.1,0.1-0.1,0.1c0,1.1-0.8,1.7-1.6,2.2c-13.3,7.9-25.4,17.5-38,26.4c-5.8,4.2-12.4,6.8-19.2,8.7c-3.3,0.9-6.8,0.9-10.2,0.3
		c-4.3-0.6-8-4.4-8.8-8.8c-0.8-4.4,0-8.8,2-12.9c3.3-6.6,7.7-12.6,11.5-19c1.6-2.6,2.7-5.3,3.9-8.1c0.2-0.5,0.2-1.7,1.5-2
		c0.5-4.5,0.4-8.9-2.2-13.4c-4.5-7.4-11.4-9.7-19.4-10.1C251.1,43.8,253.7,47.2,259,49.4z"/>
	<path class="st1" d="M249.8,41.1c0.6,3.9,2.3,6.6,6.6,7.8c5,1.4,6.8,5.4,6.1,11c0,0.1-0.1,0.1-0.1,0.2c0,0,0,0,0,0c0,0,0,0,0,0
		c0.2,0,0.4-0.1,0.6-0.2c1.4-4.6-0.1-8.8-4-10.5c-5.3-2.2-7.9-5.6-9.6-10.6c0,0-0.1,0-0.1,0C249.5,39.6,249.6,40.3,249.8,41.1z"/>
	<path class="st1" d="M408.5,54.9c-1.1,0.8-2.1,1.6-3.5,1.8c-8.8,1.1-17.4,3.1-25.9,5.4c-14.2,3.6-27.4,9.5-40,16.6
		c-13.6,7.6-26.1,16.9-38.5,26.4c-9.7,7.4-20.1,13.1-32.4,15c-14.3,2.2-25.4-9-22.7-23.2c1.4-7.6,5.7-13.9,9.7-20.2
		c1.6-2.4,3.6-4.7,4.3-7.7c0-0.4-0.1-0.8-0.1-1.1c-0.2,0.3-0.4,0.6-0.6,0.9c0,0,0,0,0,0c-0.6,1-1.1,2-1.7,2.9
		c-3.9,6.4-8.5,12.6-11.2,19.7c-2.3,6.2-2.9,12.5,0.1,18.6c4.1,8.3,12.6,12.2,22.8,10.6c10.5-1.7,19.9-5.9,28.3-12.2
		c11-8,22-16.2,33.4-23.7c22.1-14.6,46.4-23.2,72.5-27.1c3.7-0.5,6.2-2,8.2-4.8C409.9,52.9,409.4,54.1,408.5,54.9z"/>
	<path class="st1" d="M269.5,64.3c-1.2,2.8-2.3,5.5-3.9,8.1c-3.8,6.4-8.2,12.4-11.5,19c-2,4.1-2.8,8.5-2,12.9
		c0.8,4.4,4.5,8.2,8.8,8.8c3.4,0.6,6.9,0.6,10.2-0.3c6.8-1.9,13.4-4.5,19.2-8.7c12.6-8.9,24.7-18.5,38-26.4c0.8-0.5,1.6-1.1,1.6-2.2
		c-0.7,0.6-1.2,1.2-2,1.6c-11.9,7.2-23.2,15.3-34.2,23.7c-7.2,5.4-14.9,9.6-23.7,11.3c-5.3,1-11,1.7-15-3.3
		c-4.1-5-2.9-10.6-0.6-15.9c1.8-4.1,4.3-8,6.8-11.7c3.9-5.9,7.9-11.9,9.8-18.9C269.7,62.6,269.7,63.8,269.5,64.3z"/>
	<path class="st0" d="M425.5,192.9c-7.1-6.7-15.8-8.5-25-7.3c-22.9,2.9-29.4,26.3-19.6,41c5.6,8.6,14.3,11.4,24,11.6
		c3-0.1,5.8-0.3,8.7-1.1C435.9,231.3,438.8,205.5,425.5,192.9z M404.9,221.4c-5.3,0-8.9-3.7-8.9-9.3c0-5.5,3.7-9.3,8.9-9.3
		c5.2,0,9,3.8,9,9.3C414,217.5,410.2,221.4,404.9,221.4z"/>
	<path class="st0" d="M359.9,217.6c2.9-2,6.6-3.2,7.8-7.1c3.3-10.2-0.2-22.6-15.8-24c-8.1-0.8-16.3-0.1-24.5-0.3
		c-1.9,0-2.5,0.6-2.5,2.5c0.1,15.4,0.1,30.7,0,46.1c0,2.1,0.9,2.7,2.8,2.6c4.5-0.2,8.9-0.2,13.3,0c2.3,0.1,2.9-0.6,2.8-2.8
		c-0.3-3.7-0.1-7.5-0.1-11.2c2.5,3.6,4.3,7.2,6.1,10.9c0.7,1.3,1,3,3,3c6.1,0,12.3,0,18.5,0c1.9,0,1.8-0.8,0.9-2
		C368,229.5,364.5,223.3,359.9,217.6z M344.9,208.5c-3.2,0-0.1-2.9-1.7-3.7c0.9-1.6-1-4.1,2.3-4c3,0.1,4.5,1.3,4.3,4
		C349.6,208,347.2,208.5,344.9,208.5z"/>
	<path class="st0" d="M208.9,188.4c-0.7-1.7-1.5-2.5-3.4-2.4c-3.7,0.1-7.5,0.1-11.2,0c-1.7,0-2.6,0.5-3.3,2.3
		c-5.9,15.7-12.1,31.2-18.2,46.8c-0.7,1.8-0.1,2.1,1.5,2.1c3.1,0,6.2,0,9.3,0c9.1,0,8.9,0,11.2-9c1.4-5.5,3.2-11,4.8-16.4
		c0.3,0,0.6,0,0.6,0.2c2.1,7.6,4.3,15.2,6.4,22.8c0.6,1.9,1.5,2.7,3.6,2.6c4.4-0.3,8.7-0.1,13-0.1c4.6,0,4.6,0,3-4.2
		C220.5,218.1,214.6,203.3,208.9,188.4z"/>
	<path class="st0" d="M313.6,225.1c0.1-2-0.9-2.4-2.6-2.3c-3.7,0.1-7.3,0-11,0c-1.3,0-2.2-0.2-2.3-1.9c-0.1-2,0.8-2.3,2.4-2.3
		c3.1,0.1,6.2-0.1,9.3,0.1c1.8,0,2.4-0.6,2.3-2.3c-0.1-3.2-0.1-6.4,0-9.6c0.1-1.6-0.5-2.2-2.1-2.1c-3.1,0.1-6.2,0-9.3,0
		c-1.5,0-2.7-0.1-2.6-2.1c0.1-1.9,1.3-1.7,2.5-1.7c3.5,0,7-0.1,10.6,0c1.8,0.1,2.7-0.5,2.6-2.4c-0.2-3.2-0.2-6.4,0-9.6
		c0.2-2.1-0.8-2.6-2.7-2.6c-9.9,0.1-19.8,0.2-29.6,0c-2.3-0.1-2.8,0.8-2.8,2.9c0.2,7.5,0.1,15,0.1,22.5s0,15.2-0.1,22.7
		c0,1.9,0.2,2.9,2.5,2.9c10.1-0.1,20.3-0.1,30.5,0c1.8,0,2.4-0.6,2.3-2.3C313.5,231.7,313.4,228.4,313.6,225.1z"/>
	<path class="st0" d="M172.2,186.2c-4.8,0.2-9.6,0.2-14.3,0c-2.1,0-3.2,0.6-3.7,2.8c-2.1,7.7-4.3,15.2-6.6,22.8
		c-0.2,0-0.4,0-0.5-0.1c-2.3-7.7-4.5-15.4-6.8-23.1c-0.3-1.2-0.5-2.4-2.4-2.3c-5.3,0.2-10.6,0.1-15.9,0c-2-0.1-2.3,0.6-1.5,2.3
		c1.8,4.1,3,8.3,4.7,12.5c4.3,10.3,8.3,20.9,12.1,31.4c1.4,3.6,3,5.5,7.1,4.9c2.5-0.3,5.3-0.2,7.9,0c2.7,0.3,3.8-0.9,4.6-3.2
		c1.6-4.4,3.2-8.7,4.9-13c4-10.7,8.2-21.4,12.4-32C175.1,187.1,174.9,186,172.2,186.2z"/>
	<path class="st0" d="M265.4,220.2c-3.2,0.1-6.4-0.1-9.6,0.1c-2.6,0.3-3.4-0.7-3.3-3.3c0.2-9.3,0-18.6,0.1-27.8
		c0.1-2.1-0.5-3.1-2.9-3c-4.6,0.2-9.1,0.2-13.6,0c-2.2-0.1-2.9,0.6-2.8,2.8c0.2,7.5,0.1,15,0.1,22.5c0,7.7,0.1,15.5-0.2,22.9
		c0,1.9,0.5,2.7,2.6,2.7c9.8-0.1,19.7-0.1,29.5,0c1.7,0,2.7-0.3,2.6-2.3c-0.2-4.2-0.2-8.2,0-12.3C268,220.6,267.2,220.1,265.4,220.2
		z"/>
	<path class="st1" d="M159.5,87.3c4.1,0.5,7.1-1.2,10.2-3.8c9.9-8.4,20.9-15.7,32.4-21.9c2.2-1.2,2.6-2.3,1.4-4.4
		c-0.7-1.2-1.2-2.6-1.1-4.1c-9.7,5-19,10.6-28.1,16.8c-5.7,3.8-11.2,7.8-16.2,12.5c-1.6,1.7-3.1,3.3-1.1,5.6
		C157.7,87.3,158.6,87.2,159.5,87.3z"/>
	<path class="st1" d="M171.8,82.8c1.7-1.8,4-3.1,6-4.7c8.4-6.2,17.2-11.6,26.3-16.6c1.3-0.8,1.8-1.3,1-2.7c-1-2-1.8-3.8-2.7-5.7
		c-0.1,1.5,0.4,2.9,1.1,4.1c1.2,2.1,0.8,3.2-1.4,4.4c-11.5,6.2-22.5,13.5-32.4,21.9c-3.1,2.6-6.1,4.3-10.2,3.8
		c-0.9-0.1-1.8,0-2.5,0.7c0,0,0.1,0.1,0.1,0.1C163,89.4,167.7,87.1,171.8,82.8z"/>
</g>
</svg>
