<?xml version="1.0" encoding="utf-8"?>
<!-- Generator: Adobe Illustrator 26.0.3, SVG Export Plug-In . SVG Version: 6.00 Build 0)  -->
<svg version="1.1" id="Layer_1" xmlns="http://www.w3.org/2000/svg" xmlns:xlink="http://www.w3.org/1999/xlink" x="0px" y="0px"
	 viewBox="0 0 608 262" style="enable-background:new 0 0 608 262;" xml:space="preserve">
<style type="text/css">
	.st0{fill:#00708E;}
	.st1{fill:#FBB727;}
</style>
<g>
	<path class="st0" d="M425.2,64c0.5-1.1,0.1-2-0.9-2.5c0,0,0,0-0.1,0c-1.9,2.5-4,3.8-7.3,4.3c-23.2,3.5-44.8,11.1-64.4,24.1
		c-10.1,6.7-19.9,13.9-29.7,21.1c-7.5,5.6-15.8,9.3-25.1,10.8c-9.1,1.4-16.6-2-20.3-9.4c-2.7-5.4-2.1-11-0.1-16.5
		c2.4-6.3,6.5-11.8,10-17.5c0.5-0.8,1-1.8,1.5-2.6c-1.3-3.9-2.7-7.9-3.8-11.8c-0.2-0.6-0.8-1.3-0.1-1.9c0.6-0.4,1.2,0.2,1.9,0.4
		c2.6,1.1,4.2,3,5.2,5.5c0-0.1,0.1-0.1,0.1-0.2c0.6-5-1-8.5-5.4-9.8c-3.8-1.1-5.3-3.5-5.9-6.9c-0.2-0.7-0.3-1.3-0.4-2h0.1l0,0
		c-1.3-3.9-2.8-7.9-4-11.9c-0.4-1.6-1.2-2-2.8-2c-14.7,0.1-29.5,0.1-44.2,0c-2.1,0-2.2,0.4-1.4,2.3c3.6,8,7,16.3,10.6,24.3
		c0.8,1.7,1.5,3.3,2.4,5.1c0.7,1.2,0.3,1.7-0.9,2.4c-8.1,4.4-15.9,9.2-23.4,14.7c-1.8,1.4-3.8,2.6-5.3,4.2
		c-3.6,3.8-7.8,5.9-13.1,4.7l-0.1-0.1l0,0c-0.2,1.5-2.4,3.4,0.3,4.2c3.4,1,6.8,1.1,10-1.7c9.9-8.6,21-15.7,32.5-21.9
		c1.8-1,2.5-0.6,3.3,1.1c5.3,12.4,10.8,24.8,16.3,37.1c6.5,14.6,13,29.2,19.3,43.8c0.8,1.7,1.7,2.5,3.7,2.5
		c10.8-0.2,21.4-0.2,32.2,0c2.1,0,3-0.9,3.8-2.6c7.1-16.6,14.3-33.2,21.7-49.8c1-2,1.3-4.4,3.3-5.8c21.9-15.6,46-25.8,72.9-29.3
		C421.5,69.8,423.5,67.3,425.2,64z"/>
	<path class="st0" d="M284.9,97.1c-2,4.7-3.1,9.7,0.5,14.1c3.6,4.4,8.6,3.8,13.3,2.9c7.8-1.5,14.7-5.2,21.1-10
		c9.8-7.5,19.8-14.7,30.4-21.1c0.7-0.4,1.2-0.9,1.8-1.4v-0.1c6.4-14.7,12.8-29.2,19.2-43.8c1-2,1-2.8-1.7-2.8
		c-14.5,0.2-28.9,0.2-43.4,0c-2,0-2.8,0.7-3.4,2.7c-2.1,6.9-4.5,13.8-6.8,20.6c-3.8,12-7.7,23.9-11.6,35.8
		c-1.5,4.6-3.1,9.2-4.9,14.3c-2-5.9-3.5-11.2-5.4-16.3c-1.2-3.2-0.6-5.7,1.2-8.4c2.7-4.1,4.8-8.6,4.4-13.8
		c-1.7,6.2-5.2,11.6-8.7,16.8C288.7,90,286.5,93.5,284.9,97.1z"/>
	<path class="st1" d="M289,58.5c3.5,1.5,4.8,5.2,3.6,9.3c-0.2,0.1-0.4,0.2-0.5,0.2c-0.2,2.6-1.3,4.7-2.7,6.8c0,0.4,0.1,0.7,0.1,1
		c-0.6,2.7-2.4,4.7-3.8,6.8c-3.6,5.6-7.4,11.2-8.6,17.9c-2.4,12.6,7.5,22.6,20.2,20.6c10.9-1.7,20.2-6.8,28.8-13.3
		c11-8.4,22.1-16.7,34.2-23.5c11.2-6.3,22.9-11.6,35.5-14.7c7.6-2,15.2-3.8,23-4.8c1.2-0.2,2.1-0.9,3.1-1.6c0.8-0.7,1.2-1.8,2.4-1.9
		c0.1-0.1,0.1-0.1,0.2-0.2c1.8-3.9,1.4-4.4-3-4.1c-5.4,0.5-10.6,2-15.8,3.2c-14.3,3.3-28.3,8-41.3,14.8c-4.1,2.1-8.1,4.3-12.2,6.3
		l-0.1,0.1c0,1-0.7,1.5-1.4,2c-11.8,7-22.6,15.5-33.8,23.5c-5.2,3.7-11,6-17.1,7.7c-2.9,0.8-6,0.8-9.1,0.3c-3.8-0.5-7.1-3.9-7.8-7.8
		s0-7.8,1.8-11.5c2.9-5.9,6.8-11.2,10.2-16.9c1.4-2.3,2.4-4.7,3.5-7.2c0.2-0.4,0.2-1.5,1.3-1.8c0.4-4,0.4-7.9-2-11.9
		c-4-6.6-10.1-8.6-17.2-9C282,53.5,284.3,56.5,289,58.5z"/>
	<path class="st1" d="M280.8,51.1c0.5,3.5,2,5.9,5.9,6.9c4.4,1.2,6,4.8,5.4,9.8c0,0.1-0.1,0.1-0.1,0.2l0,0l0,0
		c0.2,0,0.4-0.1,0.5-0.2c1.2-4.1-0.1-7.8-3.6-9.3c-4.7-2-7-5-8.5-9.4h-0.1C280.5,49.7,280.6,50.4,280.8,51.1z"/>
	<path class="st1" d="M421.8,63.3c-1,0.7-1.9,1.4-3.1,1.6c-7.8,1-15.5,2.8-23,4.8c-12.6,3.2-24.3,8.4-35.5,14.7
		c-12.1,6.8-23.2,15-34.2,23.5c-8.6,6.6-17.9,11.6-28.8,13.3c-12.7,2-22.6-8-20.2-20.6c1.2-6.8,5.1-12.3,8.6-17.9
		c1.4-2.1,3.2-4.2,3.8-6.8c0-0.4-0.1-0.7-0.1-1c-0.2,0.3-0.4,0.5-0.5,0.8l0,0c-0.5,0.9-1,1.8-1.5,2.6c-3.5,5.7-7.6,11.2-10,17.5
		c-2,5.5-2.6,11.1,0.1,16.5c3.6,7.4,11.2,10.8,20.3,9.4c9.3-1.5,17.7-5.2,25.1-10.8c9.8-7.1,19.5-14.4,29.7-21.1
		c19.6-13,41.2-20.6,64.4-24.1c3.3-0.4,5.5-1.8,7.3-4.3C423.1,61.6,422.6,62.6,421.8,63.3z"/>
	<path class="st1" d="M298.3,71.7c-1.1,2.5-2,4.9-3.5,7.2c-3.4,5.7-7.3,11-10.2,16.9c-1.8,3.6-2.5,7.6-1.8,11.5s4,7.3,7.8,7.8
		c3,0.5,6.1,0.5,9.1-0.3c6-1.7,11.9-4,17.1-7.7c11.2-7.9,21.9-16.4,33.8-23.5c0.7-0.4,1.4-1,1.4-2c-0.6,0.5-1.1,1.1-1.8,1.4
		c-10.6,6.4-20.6,13.6-30.4,21.1c-6.4,4.8-13.2,8.5-21.1,10c-4.7,0.9-9.8,1.5-13.3-2.9c-3.6-4.4-2.6-9.4-0.5-14.1
		c1.6-3.6,3.8-7.1,6-10.4c3.5-5.2,7-10.6,8.7-16.8C298.5,70.2,298.5,71.2,298.3,71.7z"/>
	<path class="st0" d="M436.9,186c-6.3-6-14-7.6-22.2-6.5c-20.3,2.6-26.1,23.4-17.4,36.4c5,7.6,12.7,10.1,21.3,10.3
		c2.7-0.1,5.2-0.3,7.7-1C446.2,220.1,448.7,197.1,436.9,186z M418.6,211.3c-4.7,0-7.9-3.3-7.9-8.3c0-4.9,3.3-8.3,7.9-8.3
		c4.6,0,8,3.4,8,8.3C426.7,207.8,423.3,211.3,418.6,211.3z"/>
	<path class="st0" d="M378.6,207.9c2.6-1.8,5.9-2.8,6.9-6.3c2.9-9.1-0.2-20.1-14-21.3c-7.2-0.7-14.5-0.1-21.8-0.3
		c-1.7,0-2.2,0.5-2.2,2.2c0.1,13.7,0.1,27.3,0,41c0,1.9,0.8,2.4,2.5,2.3c4-0.2,7.9-0.2,11.8,0c2,0.1,2.6-0.5,2.5-2.5
		c-0.3-3.3-0.1-6.7-0.1-10c2.2,3.2,3.8,6.4,5.4,9.7c0.6,1.2,0.9,2.7,2.7,2.7c5.4,0,10.9,0,16.4,0c1.7,0,1.6-0.7,0.8-1.8
		C385.8,218.5,382.7,213,378.6,207.9z M365.3,199.8c-2.8,0-0.1-2.6-1.5-3.3c0.8-1.4-0.9-3.6,2-3.6c2.7,0.1,4,1.2,3.8,3.6
		C369.5,199.4,367.3,199.8,365.3,199.8z"/>
	<path class="st0" d="M244.5,182c-0.6-1.5-1.3-2.2-3-2.1c-3.3,0.1-6.7,0.1-10,0c-1.5,0-2.3,0.4-2.9,2c-5.2,13.9-10.8,27.7-16.2,41.6
		c-0.6,1.6-0.1,1.9,1.3,1.9c2.8,0,5.5,0,8.3,0c8.1,0,7.9,0,10-8c1.2-4.9,2.8-9.8,4.3-14.6c0.3,0,0.5,0,0.5,0.2
		c1.9,6.8,3.8,13.5,5.7,20.3c0.5,1.7,1.3,2.4,3.2,2.3c3.9-0.3,7.7-0.1,11.6-0.1c4.1,0,4.1,0,2.7-3.7
		C254.8,208.3,249.5,195.2,244.5,182z"/>
	<path class="st0" d="M337.5,214.6c0.1-1.8-0.8-2.1-2.3-2c-3.3,0.1-6.5,0-9.8,0c-1.2,0-2-0.2-2-1.7c-0.1-1.8,0.7-2,2.1-2
		c2.8,0.1,5.5-0.1,8.3,0.1c1.6,0,2.1-0.5,2-2c-0.1-2.8-0.1-5.7,0-8.5c0.1-1.4-0.4-2-1.9-1.9c-2.8,0.1-5.5,0-8.3,0
		c-1.3,0-2.4-0.1-2.3-1.9c0.1-1.7,1.2-1.5,2.2-1.5c3.1,0,6.2-0.1,9.4,0c1.6,0.1,2.4-0.4,2.3-2.1c-0.2-2.8-0.2-5.7,0-8.5
		c0.2-1.9-0.7-2.3-2.4-2.3c-8.8,0.1-17.6,0.2-26.3,0c-2-0.1-2.5,0.7-2.5,2.6c0.2,6.7,0.1,13.3,0.1,20s0,13.5-0.1,20.2
		c0,1.7,0.2,2.6,2.2,2.6c9-0.1,18-0.1,27.1,0c1.6,0,2.1-0.5,2-2C337.4,220.4,337.3,217.5,337.5,214.6z"/>
	<path class="st0" d="M211.9,180c-4.3,0.2-8.5,0.2-12.7,0c-1.9,0-2.8,0.5-3.3,2.5c-1.9,6.8-3.8,13.5-5.9,20.3c-0.2,0-0.4,0-0.4-0.1
		c-2-6.8-4-13.7-6-20.5c-0.3-1.1-0.4-2.1-2.1-2c-4.7,0.2-9.4,0.1-14.1,0c-1.8-0.1-2,0.5-1.3,2c1.6,3.6,2.7,7.4,4.2,11.1
		c3.8,9.2,7.4,18.6,10.8,27.9c1.2,3.2,2.7,4.9,6.3,4.4c2.2-0.3,4.7-0.2,7,0c2.4,0.3,3.4-0.8,4.1-2.8c1.4-3.9,2.8-7.7,4.4-11.6
		c3.6-9.5,7.3-19,11-28.4C214.4,180.8,214.3,179.8,211.9,180z"/>
	<path class="st0" d="M294.7,210.2c-2.8,0.1-5.7-0.1-8.5,0.1c-2.3,0.3-3-0.6-2.9-2.9c0.2-8.3,0-16.5,0.1-24.7
		c0.1-1.9-0.4-2.8-2.6-2.7c-4.1,0.2-8.1,0.2-12.1,0c-2-0.1-2.6,0.5-2.5,2.5c0.2,6.7,0.1,13.3,0.1,20c0,6.8,0.1,13.8-0.2,20.3
		c0,1.7,0.4,2.4,2.3,2.4c8.7-0.1,17.5-0.1,26.2,0c1.5,0,2.4-0.3,2.3-2c-0.2-3.7-0.2-7.3,0-10.9C297,210.6,296.3,210.1,294.7,210.2z"
		/>
	<path class="st1" d="M200.6,92.1c3.6,0.4,6.3-1.1,9.1-3.4c8.8-7.5,18.6-13.9,28.8-19.5c2-1.1,2.3-2,1.2-3.9c-0.6-1.1-1.1-2.3-1-3.6
		c-8.6,4.4-16.9,9.4-25,14.9c-5.1,3.4-10,6.9-14.4,11.1c-1.4,1.5-2.8,2.9-1,5C199,92.1,199.8,92,200.6,92.1z"/>
	<path class="st1" d="M211.5,88.1c1.5-1.6,3.6-2.8,5.3-4.2c7.5-5.5,15.3-10.3,23.4-14.7c1.2-0.7,1.6-1.2,0.9-2.4
		c-0.9-1.8-1.6-3.4-2.4-5.1c-0.1,1.3,0.4,2.6,1,3.6c1.1,1.9,0.7,2.8-1.2,3.9c-10.2,5.5-20,12-28.8,19.5c-2.8,2.3-5.4,3.8-9.1,3.4
		c-0.8-0.1-1.6,0-2.2,0.6l0.1,0.1C203.7,94,207.9,92,211.5,88.1z"/>
</g>
</svg>
